G75*
%MOIN*%
%OFA0B0*%
%FSLAX25Y25*%
%IPPOS*%
%LPD*%
%AMOC8*
5,1,8,0,0,1.08239X$1,22.5*
%
%ADD10C,0,11824*%
%ADD11C,0,08000*%
%ADD12C,0,07950*%
%ADD13C,0,08800*%
%ADD14OC8,0,08000*%
%ADD15C,0,07300*%
D10*
X0110769Y0087535D03*
X0380021Y0012850D03*
X0381123Y0386000D03*
X0015139Y0386551D03*
D11*
X0051263Y0101039D02*
X0058463Y0101039D01*
X0058463Y0091039D02*
X0051263Y0091039D01*
X0051263Y0081039D02*
X0058463Y0081039D01*
X0058463Y0071039D02*
X0051263Y0071039D01*
X0051263Y0061039D02*
X0058463Y0061039D01*
X0058463Y0051039D02*
X0051263Y0051039D01*
X0051263Y0041039D02*
X0058463Y0041039D01*
X0058463Y0031039D02*
X0051263Y0031039D01*
X0081263Y0031039D02*
X0088463Y0031039D01*
X0088463Y0041039D02*
X0081263Y0041039D01*
X0081263Y0051039D02*
X0088463Y0051039D01*
X0088463Y0061039D02*
X0081263Y0061039D01*
X0081263Y0071039D02*
X0088463Y0071039D01*
X0088463Y0081039D02*
X0081263Y0081039D01*
X0081263Y0091039D02*
X0088463Y0091039D01*
X0088463Y0101039D02*
X0081263Y0101039D01*
X0134886Y0096079D02*
X0142086Y0096079D01*
X0142086Y0086079D02*
X0134886Y0086079D01*
X0134886Y0076079D02*
X0142086Y0076079D01*
X0142086Y0066079D02*
X0134886Y0066079D01*
X0134886Y0056079D02*
X0142086Y0056079D01*
X0142086Y0046079D02*
X0134886Y0046079D01*
X0134886Y0036079D02*
X0142086Y0036079D01*
X0142086Y0026079D02*
X0134886Y0026079D01*
X0164886Y0026079D02*
X0172086Y0026079D01*
X0172086Y0036079D02*
X0164886Y0036079D01*
X0164886Y0046079D02*
X0172086Y0046079D01*
X0172086Y0056079D02*
X0164886Y0056079D01*
X0164886Y0066079D02*
X0172086Y0066079D01*
X0172086Y0076079D02*
X0164886Y0076079D01*
X0164886Y0086079D02*
X0172086Y0086079D01*
X0172086Y0096079D02*
X0164886Y0096079D01*
X0218035Y0093874D02*
X0225235Y0093874D01*
X0225235Y0083874D02*
X0218035Y0083874D01*
X0218035Y0073874D02*
X0225235Y0073874D01*
X0225235Y0063874D02*
X0218035Y0063874D01*
X0218035Y0053874D02*
X0225235Y0053874D01*
X0225235Y0043874D02*
X0218035Y0043874D01*
X0218035Y0033874D02*
X0225235Y0033874D01*
X0225235Y0023874D02*
X0218035Y0023874D01*
X0248035Y0023874D02*
X0255235Y0023874D01*
X0255235Y0033874D02*
X0248035Y0033874D01*
X0248035Y0043874D02*
X0255235Y0043874D01*
X0255235Y0053874D02*
X0248035Y0053874D01*
X0248035Y0063874D02*
X0255235Y0063874D01*
X0255235Y0073874D02*
X0248035Y0073874D01*
X0248035Y0083874D02*
X0255235Y0083874D01*
X0255235Y0093874D02*
X0248035Y0093874D01*
X0300555Y0092535D02*
X0307755Y0092535D01*
X0307755Y0082535D02*
X0300555Y0082535D01*
X0300555Y0072535D02*
X0307755Y0072535D01*
X0307755Y0062535D02*
X0300555Y0062535D01*
X0300555Y0052535D02*
X0307755Y0052535D01*
X0307755Y0042535D02*
X0300555Y0042535D01*
X0300555Y0032535D02*
X0307755Y0032535D01*
X0307755Y0022535D02*
X0300555Y0022535D01*
X0330555Y0022535D02*
X0337755Y0022535D01*
X0337755Y0032535D02*
X0330555Y0032535D01*
X0330555Y0042535D02*
X0337755Y0042535D01*
X0337755Y0052535D02*
X0330555Y0052535D01*
X0330555Y0062535D02*
X0337755Y0062535D01*
X0337755Y0072535D02*
X0330555Y0072535D01*
X0330555Y0082535D02*
X0337755Y0082535D01*
X0337755Y0092535D02*
X0330555Y0092535D01*
D12*
X0299745Y0146866D03*
X0289745Y0146866D03*
X0289745Y0156866D03*
X0299745Y0156866D03*
X0279745Y0156866D03*
X0269745Y0156866D03*
X0269745Y0146866D03*
X0279745Y0146866D03*
X0259745Y0146866D03*
X0249745Y0146866D03*
X0239745Y0146866D03*
X0239745Y0156866D03*
X0249745Y0156866D03*
X0259745Y0156866D03*
X0229745Y0156866D03*
X0229745Y0146866D03*
X0209745Y0146866D03*
X0199745Y0146866D03*
X0199745Y0156866D03*
X0209745Y0156866D03*
X0189745Y0156866D03*
X0179745Y0156866D03*
X0169745Y0156866D03*
X0169745Y0146866D03*
X0179745Y0146866D03*
X0189745Y0146866D03*
X0159745Y0146866D03*
X0159745Y0156866D03*
X0119745Y0156866D03*
X0109745Y0156866D03*
X0099745Y0156866D03*
X0099745Y0146866D03*
X0109745Y0146866D03*
X0119745Y0146866D03*
X0139745Y0267142D03*
X0139745Y0277142D03*
X0149745Y0277142D03*
X0149745Y0267142D03*
X0159745Y0277142D03*
X0229745Y0277142D03*
X0229745Y0267142D03*
X0239745Y0267142D03*
X0239745Y0277142D03*
X0249745Y0277142D03*
X0249745Y0267142D03*
X0259745Y0267142D03*
X0259745Y0277142D03*
X0269745Y0277142D03*
X0269745Y0267142D03*
X0279745Y0267142D03*
X0279745Y0277142D03*
X0289745Y0277142D03*
X0289745Y0267142D03*
X0299745Y0267142D03*
X0299745Y0277142D03*
X0299745Y0257142D03*
X0289745Y0257142D03*
D13*
X0342675Y0196197D02*
X0350675Y0196197D01*
X0350675Y0186197D02*
X0342675Y0186197D01*
X0342675Y0176197D02*
X0350675Y0176197D01*
X0371336Y0177339D02*
X0379336Y0177339D01*
X0379336Y0167339D02*
X0371336Y0167339D01*
X0371336Y0147929D02*
X0379336Y0147929D01*
X0379336Y0137929D02*
X0371336Y0137929D01*
X0371336Y0127929D02*
X0379336Y0127929D01*
X0379336Y0117929D02*
X0371336Y0117929D01*
X0366974Y0072732D02*
X0358974Y0072732D01*
X0358974Y0062732D02*
X0366974Y0062732D01*
X0366974Y0052732D02*
X0358974Y0052732D01*
X0358974Y0042732D02*
X0366974Y0042732D01*
X0281108Y0052929D02*
X0273108Y0052929D01*
X0273108Y0062929D02*
X0281108Y0062929D01*
X0202210Y0064307D02*
X0194210Y0064307D01*
X0194210Y0054307D02*
X0202210Y0054307D01*
X0116698Y0056197D02*
X0108698Y0056197D01*
X0108698Y0066197D02*
X0116698Y0066197D01*
X0116698Y0046197D02*
X0108698Y0046197D01*
X0108698Y0036197D02*
X0116698Y0036197D01*
X0116698Y0026197D02*
X0108698Y0026197D01*
X0031777Y0025528D02*
X0023777Y0025528D01*
X0023777Y0035528D02*
X0031777Y0035528D01*
X0031777Y0045528D02*
X0023777Y0045528D01*
X0023777Y0055528D02*
X0031777Y0055528D01*
X0031777Y0065528D02*
X0023777Y0065528D01*
X0022147Y0125189D02*
X0022147Y0133189D01*
X0032147Y0133189D02*
X0032147Y0125189D01*
X0042147Y0125189D02*
X0042147Y0133189D01*
X0042147Y0151055D02*
X0042147Y0159055D01*
X0032147Y0159055D02*
X0032147Y0151055D01*
X0022147Y0151055D02*
X0022147Y0159055D01*
X0022147Y0176685D02*
X0022147Y0184685D01*
X0032147Y0184685D02*
X0032147Y0176685D01*
X0042147Y0176685D02*
X0042147Y0184685D01*
X0041871Y0201449D02*
X0041871Y0209449D01*
X0031871Y0209449D02*
X0031871Y0201449D01*
X0021871Y0201449D02*
X0021871Y0209449D01*
X0022698Y0225228D02*
X0022698Y0233228D01*
X0032698Y0233228D02*
X0032698Y0225228D01*
X0042698Y0225228D02*
X0042698Y0233228D01*
X0026737Y0255685D02*
X0018738Y0255685D01*
X0018738Y0265685D02*
X0026737Y0265685D01*
X0027013Y0285843D02*
X0019013Y0285843D01*
X0019013Y0295843D02*
X0027013Y0295843D01*
X0027013Y0313008D02*
X0019013Y0313008D01*
X0019013Y0323008D02*
X0027013Y0323008D01*
X0027289Y0337693D02*
X0019289Y0337693D01*
X0019289Y0347693D02*
X0027289Y0347693D01*
X0027564Y0363717D02*
X0019564Y0363717D01*
X0019564Y0373717D02*
X0027564Y0373717D01*
X0096989Y0344094D02*
X0096989Y0336094D01*
X0106989Y0336094D02*
X0106989Y0344094D01*
X0116989Y0344094D02*
X0116989Y0336094D01*
X0126989Y0336094D02*
X0126989Y0344094D01*
X0136989Y0344094D02*
X0136989Y0336094D01*
X0146989Y0336094D02*
X0146989Y0344094D01*
X0156989Y0344094D02*
X0156989Y0336094D01*
X0166989Y0336094D02*
X0166989Y0344094D01*
X0176989Y0344094D02*
X0176989Y0336094D01*
X0186989Y0336094D02*
X0186989Y0344094D01*
X0196989Y0344094D02*
X0196989Y0336094D01*
X0206989Y0336094D02*
X0206989Y0344094D01*
X0227147Y0359323D02*
X0227147Y0367323D01*
X0237147Y0367323D02*
X0237147Y0359323D01*
X0256163Y0359323D02*
X0256163Y0367323D01*
X0266163Y0367323D02*
X0266163Y0359323D01*
X0284352Y0359047D02*
X0284352Y0367047D01*
X0294352Y0367047D02*
X0294352Y0359047D01*
X0311438Y0359047D02*
X0311438Y0367047D01*
X0321438Y0367047D02*
X0321438Y0359047D01*
X0337974Y0358496D02*
X0337974Y0366496D01*
X0347974Y0366496D02*
X0347974Y0358496D01*
X0365178Y0358496D02*
X0365178Y0366496D01*
X0375178Y0366496D02*
X0375178Y0358496D01*
X0372084Y0290291D02*
X0380084Y0290291D01*
X0380084Y0280291D02*
X0372084Y0280291D01*
X0371730Y0256827D02*
X0379730Y0256827D01*
X0379730Y0246827D02*
X0371730Y0246827D01*
X0371533Y0226276D02*
X0379533Y0226276D01*
X0379533Y0216276D02*
X0371533Y0216276D01*
X0371336Y0197339D02*
X0379336Y0197339D01*
X0379336Y0187339D02*
X0371336Y0187339D01*
X0130021Y0310465D02*
X0130021Y0318465D01*
X0120021Y0318465D02*
X0120021Y0310465D01*
X0110021Y0310465D02*
X0110021Y0318465D01*
X0100021Y0318465D02*
X0100021Y0310465D01*
D14*
X0076005Y0313008D03*
X0075730Y0286118D03*
X0075454Y0265685D03*
X0045454Y0265685D03*
X0045730Y0286118D03*
X0046005Y0313008D03*
X0043800Y0337693D03*
X0043800Y0363717D03*
X0073800Y0363717D03*
X0073800Y0337693D03*
X0162344Y0362417D03*
X0192344Y0362417D03*
X0236596Y0340646D03*
X0266438Y0340921D03*
X0294352Y0341197D03*
X0321714Y0341197D03*
X0347029Y0341472D03*
X0374942Y0342575D03*
X0374942Y0312575D03*
X0357934Y0289346D03*
X0347029Y0311472D03*
X0327934Y0289346D03*
X0321714Y0311197D03*
X0294352Y0311197D03*
X0266438Y0310921D03*
X0236596Y0310646D03*
X0328131Y0256669D03*
X0358131Y0256669D03*
X0357934Y0225843D03*
X0327934Y0225843D03*
D15*
X0013919Y0008874D03*
X0038525Y0016748D03*
X0049352Y0018717D03*
X0024745Y0076787D03*
X0053289Y0134858D03*
X0072974Y0146669D03*
X0075926Y0181118D03*
X0086753Y0193913D03*
X0071989Y0208677D03*
X0059194Y0213598D03*
X0054273Y0223441D03*
X0086753Y0233283D03*
X0098564Y0242142D03*
X0063131Y0257890D03*
X0035572Y0274622D03*
X0054273Y0294307D03*
X0139903Y0305134D03*
X0157619Y0318913D03*
X0182226Y0286433D03*
X0206832Y0295291D03*
X0216675Y0305134D03*
X0221596Y0318913D03*
X0215690Y0378953D03*
X0137934Y0387811D03*
X0249155Y0244110D03*
X0229470Y0233283D03*
X0208800Y0217535D03*
X0199942Y0200803D03*
X0208800Y0167339D03*
X0233407Y0167339D03*
X0249155Y0134858D03*
X0230454Y0111236D03*
X0240297Y0102378D03*
X0199942Y0102378D03*
X0158604Y0113205D03*
X0149745Y0119110D03*
X0117265Y0135843D03*
X0013919Y0142732D03*
X0233407Y0016748D03*
X0284588Y0073835D03*
X0284588Y0102378D03*
X0319037Y0108283D03*
X0336753Y0120094D03*
X0346596Y0128953D03*
X0327895Y0137811D03*
X0375139Y0100409D03*
X0305257Y0185055D03*
X0311163Y0195882D03*
X0296399Y0210646D03*
X0280651Y0199819D03*
X0317068Y0224425D03*
X0336753Y0247063D03*
X0338722Y0277575D03*
X0303289Y0300213D03*
X0303289Y0387811D03*
M02*
