G75*
%MOIN*%
%OFA0B0*%
%FSLAX25Y25*%
%IPPOS*%
%LPD*%
%AMOC8*
5,1,8,0,0,1.08239X$1,22.5*
%
%ADD10C,0,00400*%
%ADD11C,0,07200*%
%ADD12C,0,07150*%
%ADD13C,0,08000*%
%ADD14OC8,0,07200*%
%ADD15C,0,03000*%
%ADD16C,0,06500*%
D10*
X0036106Y0385373D02*
X0036106Y0387675D01*
X0036873Y0388443D01*
X0039175Y0388443D01*
X0039175Y0385373D01*
X0040710Y0386141D02*
X0040710Y0387675D01*
X0041477Y0388443D01*
X0043012Y0388443D01*
X0043779Y0387675D01*
X0043779Y0386141D01*
X0043012Y0385373D01*
X0041477Y0385373D01*
X0040710Y0386141D01*
X0045314Y0385373D02*
X0046081Y0386141D01*
X0046081Y0389210D01*
X0045314Y0388443D02*
X0046849Y0388443D01*
X0048383Y0388443D02*
X0049918Y0388443D01*
X0049151Y0389210D02*
X0049151Y0386141D01*
X0048383Y0385373D01*
X0051453Y0385373D02*
X0051453Y0388443D01*
X0054522Y0388443D02*
X0054522Y0386141D01*
X0053755Y0385373D01*
X0051453Y0385373D01*
X0056056Y0386141D02*
X0056824Y0385373D01*
X0059126Y0385373D01*
X0059126Y0389977D01*
X0056824Y0389977D01*
X0056056Y0389210D01*
X0056056Y0388443D01*
X0056824Y0387675D01*
X0059126Y0387675D01*
X0056824Y0387675D02*
X0056056Y0386908D01*
X0056056Y0386141D01*
X0065264Y0385373D02*
X0068334Y0385373D01*
X0066799Y0385373D02*
X0066799Y0389977D01*
X0068334Y0388443D01*
X0069868Y0389977D02*
X0069868Y0386908D01*
X0071403Y0385373D01*
X0072938Y0386908D01*
X0072938Y0389977D01*
X0074472Y0384606D02*
X0077541Y0384606D01*
X0079076Y0386141D02*
X0079843Y0385373D01*
X0081378Y0385373D01*
X0082145Y0386141D01*
X0082145Y0389210D01*
X0081378Y0389977D01*
X0079843Y0389977D01*
X0079076Y0389210D01*
X0083680Y0389977D02*
X0085215Y0389977D01*
X0084447Y0389977D02*
X0084447Y0385373D01*
X0083680Y0385373D02*
X0085215Y0385373D01*
D11*
X0088463Y0101039D02*
X0081263Y0101039D01*
X0081263Y0091039D02*
X0088463Y0091039D01*
X0088463Y0081039D02*
X0081263Y0081039D01*
X0081263Y0071039D02*
X0088463Y0071039D01*
X0088463Y0061039D02*
X0081263Y0061039D01*
X0081263Y0051039D02*
X0088463Y0051039D01*
X0088463Y0041039D02*
X0081263Y0041039D01*
X0081263Y0031039D02*
X0088463Y0031039D01*
X0058463Y0031039D02*
X0051263Y0031039D01*
X0051263Y0041039D02*
X0058463Y0041039D01*
X0058463Y0051039D02*
X0051263Y0051039D01*
X0051263Y0061039D02*
X0058463Y0061039D01*
X0058463Y0071039D02*
X0051263Y0071039D01*
X0051263Y0081039D02*
X0058463Y0081039D01*
X0058463Y0091039D02*
X0051263Y0091039D01*
X0051263Y0101039D02*
X0058463Y0101039D01*
X0134886Y0096079D02*
X0142086Y0096079D01*
X0142086Y0086079D02*
X0134886Y0086079D01*
X0134886Y0076079D02*
X0142086Y0076079D01*
X0142086Y0066079D02*
X0134886Y0066079D01*
X0134886Y0056079D02*
X0142086Y0056079D01*
X0142086Y0046079D02*
X0134886Y0046079D01*
X0134886Y0036079D02*
X0142086Y0036079D01*
X0142086Y0026079D02*
X0134886Y0026079D01*
X0164886Y0026079D02*
X0172086Y0026079D01*
X0172086Y0036079D02*
X0164886Y0036079D01*
X0164886Y0046079D02*
X0172086Y0046079D01*
X0172086Y0056079D02*
X0164886Y0056079D01*
X0164886Y0066079D02*
X0172086Y0066079D01*
X0172086Y0076079D02*
X0164886Y0076079D01*
X0164886Y0086079D02*
X0172086Y0086079D01*
X0172086Y0096079D02*
X0164886Y0096079D01*
X0218035Y0093874D02*
X0225235Y0093874D01*
X0225235Y0083874D02*
X0218035Y0083874D01*
X0218035Y0073874D02*
X0225235Y0073874D01*
X0225235Y0063874D02*
X0218035Y0063874D01*
X0218035Y0053874D02*
X0225235Y0053874D01*
X0225235Y0043874D02*
X0218035Y0043874D01*
X0218035Y0033874D02*
X0225235Y0033874D01*
X0225235Y0023874D02*
X0218035Y0023874D01*
X0248035Y0023874D02*
X0255235Y0023874D01*
X0255235Y0033874D02*
X0248035Y0033874D01*
X0248035Y0043874D02*
X0255235Y0043874D01*
X0255235Y0053874D02*
X0248035Y0053874D01*
X0248035Y0063874D02*
X0255235Y0063874D01*
X0255235Y0073874D02*
X0248035Y0073874D01*
X0248035Y0083874D02*
X0255235Y0083874D01*
X0255235Y0093874D02*
X0248035Y0093874D01*
X0300555Y0092535D02*
X0307755Y0092535D01*
X0307755Y0082535D02*
X0300555Y0082535D01*
X0300555Y0072535D02*
X0307755Y0072535D01*
X0307755Y0062535D02*
X0300555Y0062535D01*
X0300555Y0052535D02*
X0307755Y0052535D01*
X0307755Y0042535D02*
X0300555Y0042535D01*
X0300555Y0032535D02*
X0307755Y0032535D01*
X0307755Y0022535D02*
X0300555Y0022535D01*
X0330555Y0022535D02*
X0337755Y0022535D01*
X0337755Y0032535D02*
X0330555Y0032535D01*
X0330555Y0042535D02*
X0337755Y0042535D01*
X0337755Y0052535D02*
X0330555Y0052535D01*
X0330555Y0062535D02*
X0337755Y0062535D01*
X0337755Y0072535D02*
X0330555Y0072535D01*
X0330555Y0082535D02*
X0337755Y0082535D01*
X0337755Y0092535D02*
X0330555Y0092535D01*
D12*
X0299745Y0146866D03*
X0289745Y0146866D03*
X0289745Y0156866D03*
X0299745Y0156866D03*
X0279745Y0156866D03*
X0269745Y0156866D03*
X0269745Y0146866D03*
X0279745Y0146866D03*
X0259745Y0146866D03*
X0249745Y0146866D03*
X0239745Y0146866D03*
X0239745Y0156866D03*
X0249745Y0156866D03*
X0259745Y0156866D03*
X0229745Y0156866D03*
X0229745Y0146866D03*
X0209745Y0146866D03*
X0199745Y0146866D03*
X0199745Y0156866D03*
X0209745Y0156866D03*
X0189745Y0156866D03*
X0179745Y0156866D03*
X0169745Y0156866D03*
X0169745Y0146866D03*
X0179745Y0146866D03*
X0189745Y0146866D03*
X0159745Y0146866D03*
X0159745Y0156866D03*
X0119745Y0156866D03*
X0109745Y0156866D03*
X0099745Y0156866D03*
X0099745Y0146866D03*
X0109745Y0146866D03*
X0119745Y0146866D03*
X0139745Y0267142D03*
X0139745Y0277142D03*
X0149745Y0277142D03*
X0149745Y0267142D03*
X0159745Y0277142D03*
X0229745Y0277142D03*
X0229745Y0267142D03*
X0239745Y0267142D03*
X0239745Y0277142D03*
X0249745Y0277142D03*
X0249745Y0267142D03*
X0259745Y0267142D03*
X0259745Y0277142D03*
X0269745Y0277142D03*
X0269745Y0267142D03*
X0279745Y0267142D03*
X0279745Y0277142D03*
X0289745Y0277142D03*
X0289745Y0267142D03*
X0299745Y0267142D03*
X0299745Y0277142D03*
X0299745Y0257142D03*
X0289745Y0257142D03*
D13*
X0342675Y0196197D02*
X0350675Y0196197D01*
X0350675Y0186197D02*
X0342675Y0186197D01*
X0342675Y0176197D02*
X0350675Y0176197D01*
X0371336Y0177339D02*
X0379336Y0177339D01*
X0379336Y0167339D02*
X0371336Y0167339D01*
X0371336Y0147929D02*
X0379336Y0147929D01*
X0379336Y0137929D02*
X0371336Y0137929D01*
X0371336Y0127929D02*
X0379336Y0127929D01*
X0379336Y0117929D02*
X0371336Y0117929D01*
X0366974Y0072732D02*
X0358974Y0072732D01*
X0358974Y0062732D02*
X0366974Y0062732D01*
X0366974Y0052732D02*
X0358974Y0052732D01*
X0358974Y0042732D02*
X0366974Y0042732D01*
X0281108Y0052929D02*
X0273108Y0052929D01*
X0273108Y0062929D02*
X0281108Y0062929D01*
X0202210Y0064307D02*
X0194210Y0064307D01*
X0194210Y0054307D02*
X0202210Y0054307D01*
X0116698Y0056197D02*
X0108698Y0056197D01*
X0108698Y0066197D02*
X0116698Y0066197D01*
X0116698Y0046197D02*
X0108698Y0046197D01*
X0108698Y0036197D02*
X0116698Y0036197D01*
X0116698Y0026197D02*
X0108698Y0026197D01*
X0031777Y0025528D02*
X0023777Y0025528D01*
X0023777Y0035528D02*
X0031777Y0035528D01*
X0031777Y0045528D02*
X0023777Y0045528D01*
X0023777Y0055528D02*
X0031777Y0055528D01*
X0031777Y0065528D02*
X0023777Y0065528D01*
X0022147Y0125189D02*
X0022147Y0133189D01*
X0032147Y0133189D02*
X0032147Y0125189D01*
X0042147Y0125189D02*
X0042147Y0133189D01*
X0042147Y0151055D02*
X0042147Y0159055D01*
X0032147Y0159055D02*
X0032147Y0151055D01*
X0022147Y0151055D02*
X0022147Y0159055D01*
X0022147Y0176685D02*
X0022147Y0184685D01*
X0032147Y0184685D02*
X0032147Y0176685D01*
X0042147Y0176685D02*
X0042147Y0184685D01*
X0041871Y0201449D02*
X0041871Y0209449D01*
X0031871Y0209449D02*
X0031871Y0201449D01*
X0021871Y0201449D02*
X0021871Y0209449D01*
X0022698Y0225228D02*
X0022698Y0233228D01*
X0032698Y0233228D02*
X0032698Y0225228D01*
X0042698Y0225228D02*
X0042698Y0233228D01*
X0026737Y0255685D02*
X0018738Y0255685D01*
X0018738Y0265685D02*
X0026737Y0265685D01*
X0027013Y0285843D02*
X0019013Y0285843D01*
X0019013Y0295843D02*
X0027013Y0295843D01*
X0027013Y0313008D02*
X0019013Y0313008D01*
X0019013Y0323008D02*
X0027013Y0323008D01*
X0027289Y0337693D02*
X0019289Y0337693D01*
X0019289Y0347693D02*
X0027289Y0347693D01*
X0027564Y0363717D02*
X0019564Y0363717D01*
X0019564Y0373717D02*
X0027564Y0373717D01*
X0096989Y0344094D02*
X0096989Y0336094D01*
X0106989Y0336094D02*
X0106989Y0344094D01*
X0116989Y0344094D02*
X0116989Y0336094D01*
X0126989Y0336094D02*
X0126989Y0344094D01*
X0136989Y0344094D02*
X0136989Y0336094D01*
X0146989Y0336094D02*
X0146989Y0344094D01*
X0156989Y0344094D02*
X0156989Y0336094D01*
X0166989Y0336094D02*
X0166989Y0344094D01*
X0176989Y0344094D02*
X0176989Y0336094D01*
X0186989Y0336094D02*
X0186989Y0344094D01*
X0196989Y0344094D02*
X0196989Y0336094D01*
X0206989Y0336094D02*
X0206989Y0344094D01*
X0227147Y0359323D02*
X0227147Y0367323D01*
X0237147Y0367323D02*
X0237147Y0359323D01*
X0256163Y0359323D02*
X0256163Y0367323D01*
X0266163Y0367323D02*
X0266163Y0359323D01*
X0284352Y0359047D02*
X0284352Y0367047D01*
X0294352Y0367047D02*
X0294352Y0359047D01*
X0311438Y0359047D02*
X0311438Y0367047D01*
X0321438Y0367047D02*
X0321438Y0359047D01*
X0337974Y0358496D02*
X0337974Y0366496D01*
X0347974Y0366496D02*
X0347974Y0358496D01*
X0365178Y0358496D02*
X0365178Y0366496D01*
X0375178Y0366496D02*
X0375178Y0358496D01*
X0372084Y0290291D02*
X0380084Y0290291D01*
X0380084Y0280291D02*
X0372084Y0280291D01*
X0371730Y0256827D02*
X0379730Y0256827D01*
X0379730Y0246827D02*
X0371730Y0246827D01*
X0371533Y0226276D02*
X0379533Y0226276D01*
X0379533Y0216276D02*
X0371533Y0216276D01*
X0371336Y0197339D02*
X0379336Y0197339D01*
X0379336Y0187339D02*
X0371336Y0187339D01*
X0130021Y0310465D02*
X0130021Y0318465D01*
X0120021Y0318465D02*
X0120021Y0310465D01*
X0110021Y0310465D02*
X0110021Y0318465D01*
X0100021Y0318465D02*
X0100021Y0310465D01*
D14*
X0076005Y0313008D03*
X0075730Y0286118D03*
X0075454Y0265685D03*
X0045454Y0265685D03*
X0045730Y0286118D03*
X0046005Y0313008D03*
X0043800Y0337693D03*
X0043800Y0363717D03*
X0073800Y0363717D03*
X0073800Y0337693D03*
X0162344Y0362417D03*
X0192344Y0362417D03*
X0236596Y0340646D03*
X0266438Y0340921D03*
X0294352Y0341197D03*
X0321714Y0341197D03*
X0347029Y0341472D03*
X0374942Y0342575D03*
X0374942Y0312575D03*
X0357934Y0289346D03*
X0347029Y0311472D03*
X0327934Y0289346D03*
X0321714Y0311197D03*
X0294352Y0311197D03*
X0266438Y0310921D03*
X0236596Y0310646D03*
X0328131Y0256669D03*
X0358131Y0256669D03*
X0357934Y0225843D03*
X0327934Y0225843D03*
D15*
X0014903Y0007890D02*
X0013919Y0008874D01*
X0014903Y0007890D02*
X0343643Y0007890D01*
X0375139Y0039386D01*
X0375139Y0081709D01*
X0334785Y0081709D01*
X0334155Y0082535D01*
X0334785Y0072850D02*
X0334155Y0072535D01*
X0334785Y0072850D02*
X0362344Y0072850D01*
X0362974Y0072732D01*
X0362974Y0062732D02*
X0362344Y0062024D01*
X0350533Y0062024D01*
X0350533Y0054150D01*
X0340690Y0044307D01*
X0335769Y0044307D01*
X0334785Y0043323D01*
X0334155Y0042535D01*
X0333800Y0052181D02*
X0334155Y0052535D01*
X0333800Y0052181D02*
X0304273Y0052181D01*
X0304155Y0052535D01*
X0304155Y0042535D02*
X0304273Y0042339D01*
X0306241Y0040370D01*
X0311163Y0040370D01*
X0321989Y0029543D01*
X0321989Y0014780D01*
X0341675Y0014780D01*
X0350533Y0023638D01*
X0350533Y0046276D01*
X0356438Y0052181D01*
X0362344Y0052181D01*
X0362974Y0052732D01*
X0321989Y0085646D02*
X0321989Y0099425D01*
X0325926Y0099425D01*
X0326911Y0100409D01*
X0375139Y0100409D01*
X0352501Y0111236D02*
X0368249Y0126984D01*
X0375139Y0126984D01*
X0375336Y0127929D01*
X0375139Y0137811D02*
X0375336Y0137929D01*
X0375139Y0137811D02*
X0327895Y0137811D01*
X0322974Y0130921D02*
X0324942Y0128953D01*
X0346596Y0128953D01*
X0336753Y0120094D02*
X0333800Y0123047D01*
X0280651Y0123047D01*
X0259982Y0143717D01*
X0259982Y0146669D01*
X0259745Y0146866D01*
X0252108Y0144701D02*
X0252108Y0143717D01*
X0278682Y0117142D01*
X0327895Y0117142D01*
X0333800Y0111236D01*
X0352501Y0111236D01*
X0322974Y0130921D02*
X0280651Y0130921D01*
X0280651Y0146669D01*
X0279745Y0146866D01*
X0269745Y0156866D02*
X0268840Y0157496D01*
X0268840Y0191945D01*
X0088722Y0191945D01*
X0086753Y0193913D01*
X0083800Y0185055D02*
X0064115Y0204740D01*
X0042462Y0204740D01*
X0041871Y0205449D01*
X0059194Y0213598D02*
X0063131Y0217535D01*
X0208800Y0217535D01*
X0213722Y0224425D02*
X0211753Y0226394D01*
X0091675Y0226394D01*
X0088722Y0223441D01*
X0054273Y0223441D01*
X0071989Y0208677D02*
X0072974Y0209661D01*
X0202895Y0209661D01*
X0203879Y0208677D01*
X0271793Y0208677D01*
X0280651Y0199819D01*
X0277698Y0190961D02*
X0299352Y0190961D01*
X0304273Y0195882D01*
X0311163Y0195882D01*
X0307226Y0187024D02*
X0321989Y0187024D01*
X0339706Y0204740D01*
X0353486Y0204740D01*
X0363328Y0194898D01*
X0363328Y0188008D01*
X0375139Y0188008D01*
X0375336Y0187339D01*
X0375336Y0197339D02*
X0375139Y0197850D01*
X0362344Y0210646D01*
X0296399Y0210646D01*
X0317068Y0224425D02*
X0213722Y0224425D01*
X0229470Y0233283D02*
X0086753Y0233283D01*
X0098564Y0242142D02*
X0039509Y0242142D01*
X0033604Y0236236D01*
X0033604Y0229346D01*
X0032698Y0229228D01*
X0029667Y0256906D02*
X0023761Y0256906D01*
X0022777Y0255921D01*
X0022737Y0255685D01*
X0029667Y0256906D02*
X0035572Y0262811D01*
X0035572Y0274622D01*
X0044430Y0286433D02*
X0023761Y0286433D01*
X0023013Y0285843D01*
X0044430Y0286433D02*
X0045730Y0286118D01*
X0054273Y0277575D01*
X0074942Y0277575D01*
X0082816Y0269701D01*
X0136950Y0269701D01*
X0138919Y0267732D01*
X0139745Y0267142D01*
X0147777Y0264780D02*
X0147777Y0257890D01*
X0063131Y0257890D01*
X0082816Y0290370D02*
X0078879Y0294307D01*
X0054273Y0294307D01*
X0054273Y0305134D02*
X0046399Y0313008D01*
X0046005Y0313008D01*
X0023013Y0313008D01*
X0023289Y0337693D02*
X0023761Y0338598D01*
X0043446Y0338598D01*
X0043800Y0337693D01*
X0035572Y0347457D02*
X0035572Y0367142D01*
X0030651Y0372063D01*
X0024745Y0372063D01*
X0023761Y0373047D01*
X0023564Y0373717D01*
X0043800Y0363717D02*
X0044430Y0364189D01*
X0056241Y0376000D01*
X0212737Y0376000D01*
X0215690Y0378953D01*
X0226517Y0370094D02*
X0227147Y0363323D01*
X0227501Y0364189D01*
X0227501Y0376000D01*
X0244234Y0376000D01*
X0245218Y0375016D01*
X0246202Y0376000D01*
X0270808Y0376000D01*
X0271793Y0375016D01*
X0272777Y0376000D01*
X0298367Y0376000D01*
X0299352Y0375016D01*
X0300336Y0376000D01*
X0324942Y0376000D01*
X0326911Y0374031D01*
X0327895Y0375016D01*
X0352501Y0375016D01*
X0364312Y0363205D01*
X0365178Y0362496D01*
X0374155Y0342535D02*
X0347580Y0342535D01*
X0347029Y0341472D01*
X0346596Y0341551D01*
X0321989Y0341551D01*
X0321714Y0341197D01*
X0321005Y0341551D01*
X0295415Y0341551D01*
X0294352Y0341197D01*
X0293446Y0340567D01*
X0266871Y0340567D01*
X0266438Y0340921D01*
X0265887Y0340567D01*
X0237344Y0340567D01*
X0236596Y0340646D01*
X0236360Y0340567D01*
X0207816Y0340567D01*
X0206989Y0340094D01*
X0206832Y0341551D01*
X0206832Y0346472D01*
X0200926Y0352378D01*
X0172383Y0352378D01*
X0171399Y0353362D01*
X0170415Y0352378D01*
X0094627Y0352378D01*
X0089706Y0347457D01*
X0035572Y0347457D01*
X0023761Y0347457D01*
X0023289Y0347693D01*
X0054273Y0305134D02*
X0075926Y0305134D01*
X0084785Y0296276D01*
X0147777Y0296276D01*
X0147777Y0279543D01*
X0149745Y0277575D01*
X0149745Y0277142D01*
X0149745Y0267142D02*
X0149745Y0266748D01*
X0147777Y0264780D01*
X0139745Y0277142D02*
X0138919Y0277575D01*
X0126123Y0290370D01*
X0082816Y0290370D01*
X0110021Y0314465D02*
X0109391Y0315961D01*
X0109391Y0323835D01*
X0107423Y0323835D01*
X0097580Y0333677D01*
X0097580Y0339583D01*
X0096989Y0340094D01*
X0096596Y0340567D01*
X0089706Y0347457D01*
X0106989Y0340094D02*
X0107423Y0339583D01*
X0107423Y0333677D01*
X0113328Y0327772D01*
X0195021Y0327772D01*
X0195021Y0337614D01*
X0196989Y0339583D01*
X0196989Y0340094D01*
X0171399Y0353362D02*
X0162344Y0362417D01*
X0137934Y0387811D02*
X0303289Y0387811D01*
X0299352Y0375016D02*
X0311163Y0363205D01*
X0311438Y0363047D01*
X0326911Y0374031D02*
X0337738Y0363205D01*
X0337974Y0362496D01*
X0374155Y0342535D02*
X0374942Y0342575D01*
X0367265Y0319898D02*
X0374155Y0313008D01*
X0374942Y0312575D01*
X0367265Y0319898D02*
X0234391Y0319898D01*
X0228486Y0313992D01*
X0228486Y0305134D01*
X0219627Y0296276D01*
X0215690Y0296276D01*
X0215690Y0261827D01*
X0224549Y0252969D01*
X0277698Y0252969D01*
X0277698Y0264780D01*
X0279667Y0266748D01*
X0279745Y0267142D01*
X0279745Y0277142D02*
X0280651Y0277575D01*
X0280651Y0290370D01*
X0294430Y0290370D01*
X0295415Y0291354D01*
X0319037Y0291354D01*
X0338722Y0311039D01*
X0346596Y0311039D01*
X0347029Y0311472D01*
X0357934Y0289346D02*
X0359391Y0289386D01*
X0375139Y0289386D01*
X0376084Y0290291D01*
X0376084Y0280291D02*
X0375139Y0279543D01*
X0349549Y0279543D01*
X0349549Y0277575D01*
X0338722Y0277575D01*
X0330848Y0281512D02*
X0337738Y0288402D01*
X0357423Y0288402D01*
X0357934Y0289346D01*
X0349549Y0277575D02*
X0349549Y0253953D01*
X0355454Y0248047D01*
X0374155Y0248047D01*
X0375139Y0247063D01*
X0375730Y0246827D01*
X0375730Y0256827D02*
X0375139Y0256906D01*
X0358407Y0256906D01*
X0358131Y0256669D01*
X0343643Y0259858D02*
X0343643Y0251984D01*
X0357423Y0238205D01*
X0357423Y0226394D01*
X0357934Y0225843D01*
X0359391Y0226394D01*
X0375139Y0226394D01*
X0375533Y0226276D01*
X0343643Y0259858D02*
X0328879Y0274622D01*
X0302304Y0274622D01*
X0300336Y0276591D01*
X0299745Y0277142D01*
X0296399Y0284465D02*
X0290493Y0284465D01*
X0290493Y0277575D01*
X0289745Y0277142D01*
X0296399Y0284465D02*
X0297383Y0285449D01*
X0321005Y0285449D01*
X0324942Y0281512D01*
X0330848Y0281512D01*
X0330848Y0264780D02*
X0336753Y0258874D01*
X0336753Y0247063D01*
X0328131Y0256669D02*
X0327895Y0256906D01*
X0300336Y0256906D01*
X0299745Y0257142D01*
X0302304Y0264780D02*
X0330848Y0264780D01*
X0302304Y0264780D02*
X0300336Y0266748D01*
X0299745Y0267142D01*
X0273761Y0291354D02*
X0282619Y0300213D01*
X0303289Y0300213D01*
X0273761Y0291354D02*
X0240297Y0291354D01*
X0240297Y0277575D01*
X0239745Y0277142D01*
X0231438Y0290370D02*
X0251123Y0310055D01*
X0265887Y0310055D01*
X0266438Y0310921D01*
X0231438Y0290370D02*
X0221596Y0290370D01*
X0221596Y0263795D01*
X0226517Y0258874D01*
X0258997Y0258874D01*
X0258997Y0266748D01*
X0259745Y0267142D01*
X0246202Y0247063D02*
X0221596Y0247063D01*
X0182226Y0286433D01*
X0178289Y0295291D02*
X0206832Y0295291D01*
X0216675Y0305134D02*
X0139903Y0305134D01*
X0120021Y0314465D02*
X0119234Y0314976D01*
X0110375Y0314976D01*
X0110021Y0314465D01*
X0157619Y0318913D02*
X0221596Y0318913D01*
X0178289Y0295291D02*
X0160572Y0277575D01*
X0159745Y0277142D01*
X0199942Y0200803D02*
X0202895Y0197850D01*
X0270808Y0197850D01*
X0277698Y0190961D01*
X0290493Y0176197D02*
X0330848Y0176197D01*
X0340690Y0186039D01*
X0346596Y0186039D01*
X0346675Y0186197D01*
X0345612Y0167339D02*
X0359391Y0167339D01*
X0369234Y0177181D01*
X0375139Y0177181D01*
X0375336Y0177339D01*
X0345612Y0167339D02*
X0317068Y0138795D01*
X0290493Y0138795D01*
X0290493Y0146669D01*
X0289745Y0146866D01*
X0289745Y0156866D02*
X0290493Y0157496D01*
X0290493Y0176197D01*
X0305257Y0185055D02*
X0307226Y0187024D01*
X0258997Y0185055D02*
X0258997Y0157496D01*
X0259745Y0156866D01*
X0249745Y0156866D02*
X0249155Y0157496D01*
X0249155Y0167339D01*
X0233407Y0167339D01*
X0229470Y0159465D02*
X0223564Y0165370D01*
X0223564Y0177181D01*
X0083800Y0177181D01*
X0049352Y0142732D01*
X0013919Y0142732D01*
X0022147Y0129189D02*
X0022777Y0128953D01*
X0022777Y0123047D01*
X0028682Y0117142D01*
X0045415Y0117142D01*
X0050336Y0122063D01*
X0091675Y0122063D01*
X0109391Y0139780D01*
X0109391Y0146669D01*
X0109745Y0146866D01*
X0117265Y0135843D02*
X0167462Y0135843D01*
X0167462Y0144701D01*
X0169430Y0146669D01*
X0169745Y0146866D01*
X0169745Y0156866D02*
X0169430Y0157496D01*
X0167462Y0159465D01*
X0167462Y0165370D01*
X0091675Y0165370D01*
X0072974Y0146669D01*
X0053289Y0138795D02*
X0053289Y0134858D01*
X0053289Y0138795D02*
X0085769Y0171276D01*
X0189115Y0171276D01*
X0189115Y0157496D01*
X0189745Y0156866D01*
X0189745Y0146866D02*
X0189115Y0146669D01*
X0189115Y0111236D01*
X0180257Y0102378D01*
X0180257Y0056118D01*
X0169430Y0056118D01*
X0168486Y0056079D01*
X0168486Y0046079D02*
X0168446Y0045291D01*
X0156635Y0045291D01*
X0156635Y0029543D01*
X0144824Y0017732D01*
X0050336Y0017732D01*
X0049352Y0018717D01*
X0051320Y0027575D02*
X0034588Y0027575D01*
X0032619Y0025606D01*
X0028682Y0025606D01*
X0027777Y0025528D01*
X0027777Y0035528D02*
X0028682Y0036433D01*
X0034588Y0036433D01*
X0037541Y0039386D01*
X0053289Y0039386D01*
X0054273Y0040370D01*
X0054863Y0041039D01*
X0053289Y0049228D02*
X0037541Y0049228D01*
X0034588Y0046276D01*
X0028682Y0046276D01*
X0027777Y0045528D01*
X0027777Y0055528D02*
X0028682Y0056118D01*
X0034588Y0056118D01*
X0037541Y0059071D01*
X0052304Y0059071D01*
X0054273Y0061039D01*
X0054863Y0061039D01*
X0054863Y0051039D02*
X0054273Y0050213D01*
X0053289Y0049228D01*
X0054863Y0031039D02*
X0054273Y0030528D01*
X0051320Y0027575D01*
X0038525Y0016748D02*
X0020808Y0016748D01*
X0014903Y0022654D01*
X0014903Y0076787D01*
X0024745Y0076787D01*
X0028682Y0068913D02*
X0043446Y0083677D01*
X0043446Y0100409D01*
X0054273Y0100409D01*
X0054863Y0101039D01*
X0067068Y0106315D02*
X0067068Y0031512D01*
X0084785Y0031512D01*
X0084863Y0031039D01*
X0084863Y0041039D02*
X0084785Y0041354D01*
X0072974Y0041354D01*
X0072974Y0104346D01*
X0078879Y0110252D01*
X0155651Y0110252D01*
X0158604Y0113205D01*
X0160572Y0104346D02*
X0088722Y0104346D01*
X0085769Y0101394D01*
X0084863Y0101039D01*
X0076911Y0116157D02*
X0067068Y0106315D01*
X0076911Y0116157D02*
X0146793Y0116157D01*
X0149745Y0119110D01*
X0160572Y0104346D02*
X0168446Y0096472D01*
X0168486Y0096079D01*
X0186163Y0100409D02*
X0186163Y0034465D01*
X0221596Y0034465D01*
X0221635Y0033874D01*
X0221635Y0043874D02*
X0221596Y0044307D01*
X0220612Y0045291D01*
X0207816Y0045291D01*
X0198958Y0054150D01*
X0198210Y0054307D01*
X0198210Y0064307D02*
X0198958Y0064976D01*
X0205848Y0071866D01*
X0219627Y0071866D01*
X0221635Y0073874D01*
X0231438Y0088598D02*
X0226517Y0093520D01*
X0222580Y0093520D01*
X0221635Y0093874D01*
X0227501Y0102378D02*
X0240297Y0089583D01*
X0240297Y0034465D01*
X0251123Y0034465D01*
X0251635Y0033874D01*
X0250139Y0025606D02*
X0241281Y0025606D01*
X0233407Y0033480D01*
X0233407Y0088598D01*
X0231438Y0088598D01*
X0227501Y0102378D02*
X0199942Y0102378D01*
X0196989Y0111236D02*
X0186163Y0100409D01*
X0196989Y0111236D02*
X0208800Y0111236D01*
X0208800Y0146669D01*
X0209745Y0146866D01*
X0217659Y0147654D02*
X0217659Y0167339D01*
X0208800Y0167339D01*
X0217659Y0147654D02*
X0226517Y0138795D01*
X0245218Y0138795D01*
X0249155Y0134858D01*
X0252108Y0144701D02*
X0250139Y0146669D01*
X0249745Y0146866D01*
X0229745Y0156866D02*
X0229470Y0157496D01*
X0229470Y0159465D01*
X0258997Y0185055D02*
X0083800Y0185055D01*
X0075926Y0181118D02*
X0042462Y0181118D01*
X0042147Y0180685D01*
X0028682Y0068913D02*
X0028682Y0065961D01*
X0027777Y0065528D01*
X0112698Y0056197D02*
X0113328Y0056118D01*
X0137934Y0056118D01*
X0138486Y0056079D01*
X0137934Y0046276D02*
X0138486Y0046079D01*
X0137934Y0046276D02*
X0113328Y0046276D01*
X0112698Y0046197D01*
X0113328Y0036433D02*
X0112698Y0036197D01*
X0113328Y0036433D02*
X0137934Y0036433D01*
X0138486Y0036079D01*
X0138486Y0026079D02*
X0137934Y0025606D01*
X0113328Y0025606D01*
X0112698Y0026197D01*
X0230454Y0111236D02*
X0316084Y0111236D01*
X0319037Y0108283D01*
X0304155Y0092535D02*
X0303289Y0092535D01*
X0302304Y0093520D01*
X0252108Y0093520D01*
X0251635Y0093874D01*
X0240297Y0102378D02*
X0284588Y0102378D01*
X0284588Y0073835D02*
X0284588Y0070882D01*
X0292462Y0063008D01*
X0292462Y0033480D01*
X0303289Y0033480D01*
X0304155Y0032535D01*
X0304155Y0022535D02*
X0297383Y0015764D01*
X0234391Y0015764D01*
X0233407Y0016748D01*
X0250139Y0025606D02*
X0251123Y0024622D01*
X0251635Y0023874D01*
X0251635Y0043874D02*
X0252108Y0044307D01*
X0253092Y0045291D01*
X0269824Y0045291D01*
X0276714Y0052181D01*
X0277108Y0052929D01*
X0277108Y0062929D02*
X0276714Y0063008D01*
X0267856Y0071866D01*
X0254076Y0071866D01*
X0252108Y0073835D01*
X0251635Y0073874D01*
X0304155Y0072535D02*
X0304273Y0072850D01*
X0306241Y0074819D01*
X0311163Y0074819D01*
X0321989Y0085646D01*
X0249155Y0244110D02*
X0246202Y0247063D01*
X0256163Y0363323D02*
X0256045Y0364189D01*
X0245218Y0375016D01*
X0226517Y0370094D02*
X0079863Y0370094D01*
X0073958Y0364189D01*
X0073800Y0363717D01*
X0271793Y0375016D02*
X0283604Y0363205D01*
X0284352Y0363047D01*
D16*
X0303289Y0387811D03*
X0221596Y0318913D03*
X0216675Y0305134D03*
X0206832Y0295291D03*
X0182226Y0286433D03*
X0157619Y0318913D03*
X0139903Y0305134D03*
X0098564Y0242142D03*
X0086753Y0233283D03*
X0071989Y0208677D03*
X0059194Y0213598D03*
X0054273Y0223441D03*
X0086753Y0193913D03*
X0075926Y0181118D03*
X0072974Y0146669D03*
X0053289Y0134858D03*
X0013919Y0142732D03*
X0024745Y0076787D03*
X0038525Y0016748D03*
X0049352Y0018717D03*
X0013919Y0008874D03*
X0117265Y0135843D03*
X0149745Y0119110D03*
X0158604Y0113205D03*
X0199942Y0102378D03*
X0230454Y0111236D03*
X0240297Y0102378D03*
X0249155Y0134858D03*
X0233407Y0167339D03*
X0208800Y0167339D03*
X0199942Y0200803D03*
X0208800Y0217535D03*
X0229470Y0233283D03*
X0249155Y0244110D03*
X0280651Y0199819D03*
X0296399Y0210646D03*
X0311163Y0195882D03*
X0305257Y0185055D03*
X0317068Y0224425D03*
X0336753Y0247063D03*
X0338722Y0277575D03*
X0303289Y0300213D03*
X0215690Y0378953D03*
X0137934Y0387811D03*
X0054273Y0294307D03*
X0035572Y0274622D03*
X0063131Y0257890D03*
X0284588Y0102378D03*
X0284588Y0073835D03*
X0319037Y0108283D03*
X0336753Y0120094D03*
X0346596Y0128953D03*
X0327895Y0137811D03*
X0375139Y0100409D03*
X0233407Y0016748D03*
M02*
