%
M48
M72
T01C0,02500
T02C0,03150
T03C0,03200
T04C0,04000
T05C0,11024
%
T01
X13919Y8874
X38525Y16748
X49352Y18717
X24745Y76787
X53289Y134858
X72974Y146669
X75926Y181118
X86753Y193913
X71989Y208677
X59194Y213598
X54273Y223441
X86753Y233283
X98564Y242142
X63131Y257890
X35572Y274622
X54273Y294307
X139903Y305134
X157619Y318913
X182226Y286433
X206832Y295291
X216675Y305134
X221596Y318913
X215690Y378953
X137934Y387811
X249155Y244110
X229470Y233283
X208800Y217535
X199942Y200803
X208800Y167339
X233407Y167339
X249155Y134858
X230454Y111236
X240297Y102378
X199942Y102378
X158604Y113205
X149745Y119110
X117265Y135843
X13919Y142732
X233407Y16748
X284588Y73835
X284588Y102378
X319037Y108283
X336753Y120094
X346596Y128953
X327895Y137811
X375139Y100409
X305257Y185055
X311163Y195882
X296399Y210646
X280651Y199819
X317068Y224425
X336753Y247063
X338722Y277575
X303289Y300213
X303289Y387811
T02
X299745Y277142
X289745Y277142
X289745Y267142
X299745Y267142
X299745Y257142
X289745Y257142
X279745Y267142
X269745Y267142
X269745Y277142
X279745Y277142
X259745Y277142
X249745Y277142
X239745Y277142
X239745Y267142
X249745Y267142
X259745Y267142
X229745Y267142
X229745Y277142
X159745Y277142
X149745Y277142
X149745Y267142
X139745Y267142
X139745Y277142
X119745Y156866
X109745Y156866
X99745Y156866
X99745Y146866
X109745Y146866
X119745Y146866
X159745Y146866
X159745Y156866
X169745Y156866
X169745Y146866
X179745Y146866
X179745Y156866
X189745Y156866
X189745Y146866
X199745Y146866
X199745Y156866
X209745Y156866
X209745Y146866
X229745Y146866
X229745Y156866
X239745Y156866
X239745Y146866
X249745Y146866
X249745Y156866
X259745Y156866
X259745Y146866
X269745Y146866
X269745Y156866
X279745Y156866
X279745Y146866
X289745Y146866
X289745Y156866
X299745Y156866
X299745Y146866
T03
X304155Y92535
X304155Y82535
X304155Y72535
X304155Y62535
X304155Y52535
X304155Y42535
X304155Y32535
X304155Y22535
X334155Y22535
X334155Y32535
X334155Y42535
X334155Y52535
X334155Y62535
X334155Y72535
X334155Y82535
X334155Y92535
X251635Y93874
X251635Y83874
X251635Y73874
X251635Y63874
X251635Y53874
X251635Y43874
X251635Y33874
X251635Y23874
X221635Y23874
X221635Y33874
X221635Y43874
X221635Y53874
X221635Y63874
X221635Y73874
X221635Y83874
X221635Y93874
X168486Y96079
X168486Y86079
X168486Y76079
X168486Y66079
X168486Y56079
X168486Y46079
X168486Y36079
X168486Y26079
X138486Y26079
X138486Y36079
X138486Y46079
X138486Y56079
X138486Y66079
X138486Y76079
X138486Y86079
X138486Y96079
X84863Y101039
X84863Y91039
X84863Y81039
X84863Y71039
X84863Y61039
X84863Y51039
X84863Y41039
X84863Y31039
X54863Y31039
X54863Y41039
X54863Y51039
X54863Y61039
X54863Y71039
X54863Y81039
X54863Y91039
X54863Y101039
X45454Y265685
X45730Y286118
X46005Y313008
X43800Y337693
X43800Y363717
X73800Y363717
X73800Y337693
X76005Y313008
X75730Y286118
X75454Y265685
X162344Y362417
X192344Y362417
X236596Y340646
X266438Y340921
X294352Y341197
X321714Y341197
X347029Y341472
X374942Y342575
X374942Y312575
X357934Y289346
X347029Y311472
X327934Y289346
X321714Y311197
X294352Y311197
X266438Y310921
X236596Y310646
X328131Y256669
X358131Y256669
X357934Y225843
X327934Y225843
T04
X346675Y196197
X346675Y186197
X346675Y176197
X375336Y177339
X375336Y167339
X375336Y147929
X375336Y137929
X375336Y127929
X375336Y117929
X362974Y72732
X362974Y62732
X362974Y52732
X362974Y42732
X277108Y52929
X277108Y62929
X198210Y64307
X198210Y54307
X112698Y56197
X112698Y66197
X112698Y46197
X112698Y36197
X112698Y26197
X27777Y25528
X27777Y35528
X27777Y45528
X27777Y55528
X27777Y65528
X32147Y129189
X22147Y129189
X42147Y129189
X42147Y155055
X32147Y155055
X22147Y155055
X22147Y180685
X32147Y180685
X42147Y180685
X41871Y205449
X31871Y205449
X21871Y205449
X22698Y229228
X32698Y229228
X42698Y229228
X22737Y255685
X22737Y265685
X23013Y285843
X23013Y295843
X23013Y313008
X23013Y323008
X23289Y337693
X23289Y347693
X23564Y363717
X23564Y373717
X96989Y340094
X106989Y340094
X116989Y340094
X126989Y340094
X136989Y340094
X146989Y340094
X156989Y340094
X166989Y340094
X176989Y340094
X186989Y340094
X196989Y340094
X206989Y340094
X227147Y363323
X237147Y363323
X256163Y363323
X266163Y363323
X284352Y363047
X294352Y363047
X311438Y363047
X321438Y363047
X337974Y362496
X347974Y362496
X365178Y362496
X375178Y362496
X376084Y290291
X376084Y280291
X375730Y256827
X375730Y246827
X375533Y226276
X375533Y216276
X375336Y197339
X375336Y187339
X130021Y314465
X120021Y314465
X110021Y314465
X100021Y314465
T05
X15139Y386551
X110769Y87535
X380021Y12850
X381123Y386000
M30
