G75*
%MOIN*%
%OFA0B0*%
%FSLAX25Y25*%
%IPPOS*%
%LPD*%
%AMOC8*
5,1,8,0,0,1.08239X$1,22.5*
%
%ADD10C,0,00000*%
%ADD11C,0,00600*%
%ADD12C,0,00500*%
%ADD13C,0,00400*%
%ADD14R,0,01500X0,02000*%
%ADD15R,0,02000X0,01500*%
D10*
X0006045Y0001000D02*
X0005769Y0395252D01*
X0392698Y0395252D01*
X0391596Y0001827D01*
X0006045Y0001000D01*
X0105257Y0087535D02*
X0105259Y0087683D01*
X0105265Y0087831D01*
X0105275Y0087979D01*
X0105289Y0088126D01*
X0105307Y0088273D01*
X0105328Y0088419D01*
X0105354Y0088565D01*
X0105384Y0088710D01*
X0105417Y0088854D01*
X0105455Y0088997D01*
X0105496Y0089139D01*
X0105541Y0089280D01*
X0105589Y0089420D01*
X0105642Y0089559D01*
X0105698Y0089696D01*
X0105758Y0089831D01*
X0105821Y0089965D01*
X0105888Y0090097D01*
X0105959Y0090227D01*
X0106033Y0090355D01*
X0106110Y0090481D01*
X0106191Y0090605D01*
X0106275Y0090727D01*
X0106362Y0090846D01*
X0106453Y0090963D01*
X0106547Y0091078D01*
X0106643Y0091190D01*
X0106743Y0091300D01*
X0106845Y0091406D01*
X0106951Y0091510D01*
X0107059Y0091611D01*
X0107170Y0091709D01*
X0107283Y0091805D01*
X0107399Y0091897D01*
X0107517Y0091986D01*
X0107638Y0092071D01*
X0107761Y0092154D01*
X0107886Y0092233D01*
X0108013Y0092309D01*
X0108142Y0092381D01*
X0108273Y0092450D01*
X0108406Y0092515D01*
X0108541Y0092576D01*
X0108677Y0092634D01*
X0108814Y0092689D01*
X0108953Y0092739D01*
X0109094Y0092786D01*
X0109235Y0092829D01*
X0109378Y0092869D01*
X0109522Y0092904D01*
X0109666Y0092936D01*
X0109812Y0092963D01*
X0109958Y0092987D01*
X0110105Y0093007D01*
X0110252Y0093023D01*
X0110399Y0093035D01*
X0110547Y0093043D01*
X0110695Y0093047D01*
X0110843Y0093047D01*
X0110991Y0093043D01*
X0111139Y0093035D01*
X0111286Y0093023D01*
X0111433Y0093007D01*
X0111580Y0092987D01*
X0111726Y0092963D01*
X0111872Y0092936D01*
X0112016Y0092904D01*
X0112160Y0092869D01*
X0112303Y0092829D01*
X0112444Y0092786D01*
X0112585Y0092739D01*
X0112724Y0092689D01*
X0112861Y0092634D01*
X0112997Y0092576D01*
X0113132Y0092515D01*
X0113265Y0092450D01*
X0113396Y0092381D01*
X0113525Y0092309D01*
X0113652Y0092233D01*
X0113777Y0092154D01*
X0113900Y0092071D01*
X0114021Y0091986D01*
X0114139Y0091897D01*
X0114255Y0091805D01*
X0114368Y0091709D01*
X0114479Y0091611D01*
X0114587Y0091510D01*
X0114693Y0091406D01*
X0114795Y0091300D01*
X0114895Y0091190D01*
X0114991Y0091078D01*
X0115085Y0090963D01*
X0115176Y0090846D01*
X0115263Y0090727D01*
X0115347Y0090605D01*
X0115428Y0090481D01*
X0115505Y0090355D01*
X0115579Y0090227D01*
X0115650Y0090097D01*
X0115717Y0089965D01*
X0115780Y0089831D01*
X0115840Y0089696D01*
X0115896Y0089559D01*
X0115949Y0089420D01*
X0115997Y0089280D01*
X0116042Y0089139D01*
X0116083Y0088997D01*
X0116121Y0088854D01*
X0116154Y0088710D01*
X0116184Y0088565D01*
X0116210Y0088419D01*
X0116231Y0088273D01*
X0116249Y0088126D01*
X0116263Y0087979D01*
X0116273Y0087831D01*
X0116279Y0087683D01*
X0116281Y0087535D01*
X0116279Y0087387D01*
X0116273Y0087239D01*
X0116263Y0087091D01*
X0116249Y0086944D01*
X0116231Y0086797D01*
X0116210Y0086651D01*
X0116184Y0086505D01*
X0116154Y0086360D01*
X0116121Y0086216D01*
X0116083Y0086073D01*
X0116042Y0085931D01*
X0115997Y0085790D01*
X0115949Y0085650D01*
X0115896Y0085511D01*
X0115840Y0085374D01*
X0115780Y0085239D01*
X0115717Y0085105D01*
X0115650Y0084973D01*
X0115579Y0084843D01*
X0115505Y0084715D01*
X0115428Y0084589D01*
X0115347Y0084465D01*
X0115263Y0084343D01*
X0115176Y0084224D01*
X0115085Y0084107D01*
X0114991Y0083992D01*
X0114895Y0083880D01*
X0114795Y0083770D01*
X0114693Y0083664D01*
X0114587Y0083560D01*
X0114479Y0083459D01*
X0114368Y0083361D01*
X0114255Y0083265D01*
X0114139Y0083173D01*
X0114021Y0083084D01*
X0113900Y0082999D01*
X0113777Y0082916D01*
X0113652Y0082837D01*
X0113525Y0082761D01*
X0113396Y0082689D01*
X0113265Y0082620D01*
X0113132Y0082555D01*
X0112997Y0082494D01*
X0112861Y0082436D01*
X0112724Y0082381D01*
X0112585Y0082331D01*
X0112444Y0082284D01*
X0112303Y0082241D01*
X0112160Y0082201D01*
X0112016Y0082166D01*
X0111872Y0082134D01*
X0111726Y0082107D01*
X0111580Y0082083D01*
X0111433Y0082063D01*
X0111286Y0082047D01*
X0111139Y0082035D01*
X0110991Y0082027D01*
X0110843Y0082023D01*
X0110695Y0082023D01*
X0110547Y0082027D01*
X0110399Y0082035D01*
X0110252Y0082047D01*
X0110105Y0082063D01*
X0109958Y0082083D01*
X0109812Y0082107D01*
X0109666Y0082134D01*
X0109522Y0082166D01*
X0109378Y0082201D01*
X0109235Y0082241D01*
X0109094Y0082284D01*
X0108953Y0082331D01*
X0108814Y0082381D01*
X0108677Y0082436D01*
X0108541Y0082494D01*
X0108406Y0082555D01*
X0108273Y0082620D01*
X0108142Y0082689D01*
X0108013Y0082761D01*
X0107886Y0082837D01*
X0107761Y0082916D01*
X0107638Y0082999D01*
X0107517Y0083084D01*
X0107399Y0083173D01*
X0107283Y0083265D01*
X0107170Y0083361D01*
X0107059Y0083459D01*
X0106951Y0083560D01*
X0106845Y0083664D01*
X0106743Y0083770D01*
X0106643Y0083880D01*
X0106547Y0083992D01*
X0106453Y0084107D01*
X0106362Y0084224D01*
X0106275Y0084343D01*
X0106191Y0084465D01*
X0106110Y0084589D01*
X0106033Y0084715D01*
X0105959Y0084843D01*
X0105888Y0084973D01*
X0105821Y0085105D01*
X0105758Y0085239D01*
X0105698Y0085374D01*
X0105642Y0085511D01*
X0105589Y0085650D01*
X0105541Y0085790D01*
X0105496Y0085931D01*
X0105455Y0086073D01*
X0105417Y0086216D01*
X0105384Y0086360D01*
X0105354Y0086505D01*
X0105328Y0086651D01*
X0105307Y0086797D01*
X0105289Y0086944D01*
X0105275Y0087091D01*
X0105265Y0087239D01*
X0105259Y0087387D01*
X0105257Y0087535D01*
X0374509Y0012850D02*
X0374511Y0012998D01*
X0374517Y0013146D01*
X0374527Y0013294D01*
X0374541Y0013441D01*
X0374559Y0013588D01*
X0374580Y0013734D01*
X0374606Y0013880D01*
X0374636Y0014025D01*
X0374669Y0014169D01*
X0374707Y0014312D01*
X0374748Y0014454D01*
X0374793Y0014595D01*
X0374841Y0014735D01*
X0374894Y0014874D01*
X0374950Y0015011D01*
X0375010Y0015146D01*
X0375073Y0015280D01*
X0375140Y0015412D01*
X0375211Y0015542D01*
X0375285Y0015670D01*
X0375362Y0015796D01*
X0375443Y0015920D01*
X0375527Y0016042D01*
X0375614Y0016161D01*
X0375705Y0016278D01*
X0375799Y0016393D01*
X0375895Y0016505D01*
X0375995Y0016615D01*
X0376097Y0016721D01*
X0376203Y0016825D01*
X0376311Y0016926D01*
X0376422Y0017024D01*
X0376535Y0017120D01*
X0376651Y0017212D01*
X0376769Y0017301D01*
X0376890Y0017386D01*
X0377013Y0017469D01*
X0377138Y0017548D01*
X0377265Y0017624D01*
X0377394Y0017696D01*
X0377525Y0017765D01*
X0377658Y0017830D01*
X0377793Y0017891D01*
X0377929Y0017949D01*
X0378066Y0018004D01*
X0378205Y0018054D01*
X0378346Y0018101D01*
X0378487Y0018144D01*
X0378630Y0018184D01*
X0378774Y0018219D01*
X0378918Y0018251D01*
X0379064Y0018278D01*
X0379210Y0018302D01*
X0379357Y0018322D01*
X0379504Y0018338D01*
X0379651Y0018350D01*
X0379799Y0018358D01*
X0379947Y0018362D01*
X0380095Y0018362D01*
X0380243Y0018358D01*
X0380391Y0018350D01*
X0380538Y0018338D01*
X0380685Y0018322D01*
X0380832Y0018302D01*
X0380978Y0018278D01*
X0381124Y0018251D01*
X0381268Y0018219D01*
X0381412Y0018184D01*
X0381555Y0018144D01*
X0381696Y0018101D01*
X0381837Y0018054D01*
X0381976Y0018004D01*
X0382113Y0017949D01*
X0382249Y0017891D01*
X0382384Y0017830D01*
X0382517Y0017765D01*
X0382648Y0017696D01*
X0382777Y0017624D01*
X0382904Y0017548D01*
X0383029Y0017469D01*
X0383152Y0017386D01*
X0383273Y0017301D01*
X0383391Y0017212D01*
X0383507Y0017120D01*
X0383620Y0017024D01*
X0383731Y0016926D01*
X0383839Y0016825D01*
X0383945Y0016721D01*
X0384047Y0016615D01*
X0384147Y0016505D01*
X0384243Y0016393D01*
X0384337Y0016278D01*
X0384428Y0016161D01*
X0384515Y0016042D01*
X0384599Y0015920D01*
X0384680Y0015796D01*
X0384757Y0015670D01*
X0384831Y0015542D01*
X0384902Y0015412D01*
X0384969Y0015280D01*
X0385032Y0015146D01*
X0385092Y0015011D01*
X0385148Y0014874D01*
X0385201Y0014735D01*
X0385249Y0014595D01*
X0385294Y0014454D01*
X0385335Y0014312D01*
X0385373Y0014169D01*
X0385406Y0014025D01*
X0385436Y0013880D01*
X0385462Y0013734D01*
X0385483Y0013588D01*
X0385501Y0013441D01*
X0385515Y0013294D01*
X0385525Y0013146D01*
X0385531Y0012998D01*
X0385533Y0012850D01*
X0385531Y0012702D01*
X0385525Y0012554D01*
X0385515Y0012406D01*
X0385501Y0012259D01*
X0385483Y0012112D01*
X0385462Y0011966D01*
X0385436Y0011820D01*
X0385406Y0011675D01*
X0385373Y0011531D01*
X0385335Y0011388D01*
X0385294Y0011246D01*
X0385249Y0011105D01*
X0385201Y0010965D01*
X0385148Y0010826D01*
X0385092Y0010689D01*
X0385032Y0010554D01*
X0384969Y0010420D01*
X0384902Y0010288D01*
X0384831Y0010158D01*
X0384757Y0010030D01*
X0384680Y0009904D01*
X0384599Y0009780D01*
X0384515Y0009658D01*
X0384428Y0009539D01*
X0384337Y0009422D01*
X0384243Y0009307D01*
X0384147Y0009195D01*
X0384047Y0009085D01*
X0383945Y0008979D01*
X0383839Y0008875D01*
X0383731Y0008774D01*
X0383620Y0008676D01*
X0383507Y0008580D01*
X0383391Y0008488D01*
X0383273Y0008399D01*
X0383152Y0008314D01*
X0383029Y0008231D01*
X0382904Y0008152D01*
X0382777Y0008076D01*
X0382648Y0008004D01*
X0382517Y0007935D01*
X0382384Y0007870D01*
X0382249Y0007809D01*
X0382113Y0007751D01*
X0381976Y0007696D01*
X0381837Y0007646D01*
X0381696Y0007599D01*
X0381555Y0007556D01*
X0381412Y0007516D01*
X0381268Y0007481D01*
X0381124Y0007449D01*
X0380978Y0007422D01*
X0380832Y0007398D01*
X0380685Y0007378D01*
X0380538Y0007362D01*
X0380391Y0007350D01*
X0380243Y0007342D01*
X0380095Y0007338D01*
X0379947Y0007338D01*
X0379799Y0007342D01*
X0379651Y0007350D01*
X0379504Y0007362D01*
X0379357Y0007378D01*
X0379210Y0007398D01*
X0379064Y0007422D01*
X0378918Y0007449D01*
X0378774Y0007481D01*
X0378630Y0007516D01*
X0378487Y0007556D01*
X0378346Y0007599D01*
X0378205Y0007646D01*
X0378066Y0007696D01*
X0377929Y0007751D01*
X0377793Y0007809D01*
X0377658Y0007870D01*
X0377525Y0007935D01*
X0377394Y0008004D01*
X0377265Y0008076D01*
X0377138Y0008152D01*
X0377013Y0008231D01*
X0376890Y0008314D01*
X0376769Y0008399D01*
X0376651Y0008488D01*
X0376535Y0008580D01*
X0376422Y0008676D01*
X0376311Y0008774D01*
X0376203Y0008875D01*
X0376097Y0008979D01*
X0375995Y0009085D01*
X0375895Y0009195D01*
X0375799Y0009307D01*
X0375705Y0009422D01*
X0375614Y0009539D01*
X0375527Y0009658D01*
X0375443Y0009780D01*
X0375362Y0009904D01*
X0375285Y0010030D01*
X0375211Y0010158D01*
X0375140Y0010288D01*
X0375073Y0010420D01*
X0375010Y0010554D01*
X0374950Y0010689D01*
X0374894Y0010826D01*
X0374841Y0010965D01*
X0374793Y0011105D01*
X0374748Y0011246D01*
X0374707Y0011388D01*
X0374669Y0011531D01*
X0374636Y0011675D01*
X0374606Y0011820D01*
X0374580Y0011966D01*
X0374559Y0012112D01*
X0374541Y0012259D01*
X0374527Y0012406D01*
X0374517Y0012554D01*
X0374511Y0012702D01*
X0374509Y0012850D01*
X0375611Y0386000D02*
X0375613Y0386148D01*
X0375619Y0386296D01*
X0375629Y0386444D01*
X0375643Y0386591D01*
X0375661Y0386738D01*
X0375682Y0386884D01*
X0375708Y0387030D01*
X0375738Y0387175D01*
X0375771Y0387319D01*
X0375809Y0387462D01*
X0375850Y0387604D01*
X0375895Y0387745D01*
X0375943Y0387885D01*
X0375996Y0388024D01*
X0376052Y0388161D01*
X0376112Y0388296D01*
X0376175Y0388430D01*
X0376242Y0388562D01*
X0376313Y0388692D01*
X0376387Y0388820D01*
X0376464Y0388946D01*
X0376545Y0389070D01*
X0376629Y0389192D01*
X0376716Y0389311D01*
X0376807Y0389428D01*
X0376901Y0389543D01*
X0376997Y0389655D01*
X0377097Y0389765D01*
X0377199Y0389871D01*
X0377305Y0389975D01*
X0377413Y0390076D01*
X0377524Y0390174D01*
X0377637Y0390270D01*
X0377753Y0390362D01*
X0377871Y0390451D01*
X0377992Y0390536D01*
X0378115Y0390619D01*
X0378240Y0390698D01*
X0378367Y0390774D01*
X0378496Y0390846D01*
X0378627Y0390915D01*
X0378760Y0390980D01*
X0378895Y0391041D01*
X0379031Y0391099D01*
X0379168Y0391154D01*
X0379307Y0391204D01*
X0379448Y0391251D01*
X0379589Y0391294D01*
X0379732Y0391334D01*
X0379876Y0391369D01*
X0380020Y0391401D01*
X0380166Y0391428D01*
X0380312Y0391452D01*
X0380459Y0391472D01*
X0380606Y0391488D01*
X0380753Y0391500D01*
X0380901Y0391508D01*
X0381049Y0391512D01*
X0381197Y0391512D01*
X0381345Y0391508D01*
X0381493Y0391500D01*
X0381640Y0391488D01*
X0381787Y0391472D01*
X0381934Y0391452D01*
X0382080Y0391428D01*
X0382226Y0391401D01*
X0382370Y0391369D01*
X0382514Y0391334D01*
X0382657Y0391294D01*
X0382798Y0391251D01*
X0382939Y0391204D01*
X0383078Y0391154D01*
X0383215Y0391099D01*
X0383351Y0391041D01*
X0383486Y0390980D01*
X0383619Y0390915D01*
X0383750Y0390846D01*
X0383879Y0390774D01*
X0384006Y0390698D01*
X0384131Y0390619D01*
X0384254Y0390536D01*
X0384375Y0390451D01*
X0384493Y0390362D01*
X0384609Y0390270D01*
X0384722Y0390174D01*
X0384833Y0390076D01*
X0384941Y0389975D01*
X0385047Y0389871D01*
X0385149Y0389765D01*
X0385249Y0389655D01*
X0385345Y0389543D01*
X0385439Y0389428D01*
X0385530Y0389311D01*
X0385617Y0389192D01*
X0385701Y0389070D01*
X0385782Y0388946D01*
X0385859Y0388820D01*
X0385933Y0388692D01*
X0386004Y0388562D01*
X0386071Y0388430D01*
X0386134Y0388296D01*
X0386194Y0388161D01*
X0386250Y0388024D01*
X0386303Y0387885D01*
X0386351Y0387745D01*
X0386396Y0387604D01*
X0386437Y0387462D01*
X0386475Y0387319D01*
X0386508Y0387175D01*
X0386538Y0387030D01*
X0386564Y0386884D01*
X0386585Y0386738D01*
X0386603Y0386591D01*
X0386617Y0386444D01*
X0386627Y0386296D01*
X0386633Y0386148D01*
X0386635Y0386000D01*
X0386633Y0385852D01*
X0386627Y0385704D01*
X0386617Y0385556D01*
X0386603Y0385409D01*
X0386585Y0385262D01*
X0386564Y0385116D01*
X0386538Y0384970D01*
X0386508Y0384825D01*
X0386475Y0384681D01*
X0386437Y0384538D01*
X0386396Y0384396D01*
X0386351Y0384255D01*
X0386303Y0384115D01*
X0386250Y0383976D01*
X0386194Y0383839D01*
X0386134Y0383704D01*
X0386071Y0383570D01*
X0386004Y0383438D01*
X0385933Y0383308D01*
X0385859Y0383180D01*
X0385782Y0383054D01*
X0385701Y0382930D01*
X0385617Y0382808D01*
X0385530Y0382689D01*
X0385439Y0382572D01*
X0385345Y0382457D01*
X0385249Y0382345D01*
X0385149Y0382235D01*
X0385047Y0382129D01*
X0384941Y0382025D01*
X0384833Y0381924D01*
X0384722Y0381826D01*
X0384609Y0381730D01*
X0384493Y0381638D01*
X0384375Y0381549D01*
X0384254Y0381464D01*
X0384131Y0381381D01*
X0384006Y0381302D01*
X0383879Y0381226D01*
X0383750Y0381154D01*
X0383619Y0381085D01*
X0383486Y0381020D01*
X0383351Y0380959D01*
X0383215Y0380901D01*
X0383078Y0380846D01*
X0382939Y0380796D01*
X0382798Y0380749D01*
X0382657Y0380706D01*
X0382514Y0380666D01*
X0382370Y0380631D01*
X0382226Y0380599D01*
X0382080Y0380572D01*
X0381934Y0380548D01*
X0381787Y0380528D01*
X0381640Y0380512D01*
X0381493Y0380500D01*
X0381345Y0380492D01*
X0381197Y0380488D01*
X0381049Y0380488D01*
X0380901Y0380492D01*
X0380753Y0380500D01*
X0380606Y0380512D01*
X0380459Y0380528D01*
X0380312Y0380548D01*
X0380166Y0380572D01*
X0380020Y0380599D01*
X0379876Y0380631D01*
X0379732Y0380666D01*
X0379589Y0380706D01*
X0379448Y0380749D01*
X0379307Y0380796D01*
X0379168Y0380846D01*
X0379031Y0380901D01*
X0378895Y0380959D01*
X0378760Y0381020D01*
X0378627Y0381085D01*
X0378496Y0381154D01*
X0378367Y0381226D01*
X0378240Y0381302D01*
X0378115Y0381381D01*
X0377992Y0381464D01*
X0377871Y0381549D01*
X0377753Y0381638D01*
X0377637Y0381730D01*
X0377524Y0381826D01*
X0377413Y0381924D01*
X0377305Y0382025D01*
X0377199Y0382129D01*
X0377097Y0382235D01*
X0376997Y0382345D01*
X0376901Y0382457D01*
X0376807Y0382572D01*
X0376716Y0382689D01*
X0376629Y0382808D01*
X0376545Y0382930D01*
X0376464Y0383054D01*
X0376387Y0383180D01*
X0376313Y0383308D01*
X0376242Y0383438D01*
X0376175Y0383570D01*
X0376112Y0383704D01*
X0376052Y0383839D01*
X0375996Y0383976D01*
X0375943Y0384115D01*
X0375895Y0384255D01*
X0375850Y0384396D01*
X0375809Y0384538D01*
X0375771Y0384681D01*
X0375738Y0384825D01*
X0375708Y0384970D01*
X0375682Y0385116D01*
X0375661Y0385262D01*
X0375643Y0385409D01*
X0375629Y0385556D01*
X0375619Y0385704D01*
X0375613Y0385852D01*
X0375611Y0386000D01*
X0009627Y0386551D02*
X0009629Y0386699D01*
X0009635Y0386847D01*
X0009645Y0386995D01*
X0009659Y0387142D01*
X0009677Y0387289D01*
X0009698Y0387435D01*
X0009724Y0387581D01*
X0009754Y0387726D01*
X0009787Y0387870D01*
X0009825Y0388013D01*
X0009866Y0388155D01*
X0009911Y0388296D01*
X0009959Y0388436D01*
X0010012Y0388575D01*
X0010068Y0388712D01*
X0010128Y0388847D01*
X0010191Y0388981D01*
X0010258Y0389113D01*
X0010329Y0389243D01*
X0010403Y0389371D01*
X0010480Y0389497D01*
X0010561Y0389621D01*
X0010645Y0389743D01*
X0010732Y0389862D01*
X0010823Y0389979D01*
X0010917Y0390094D01*
X0011013Y0390206D01*
X0011113Y0390316D01*
X0011215Y0390422D01*
X0011321Y0390526D01*
X0011429Y0390627D01*
X0011540Y0390725D01*
X0011653Y0390821D01*
X0011769Y0390913D01*
X0011887Y0391002D01*
X0012008Y0391087D01*
X0012131Y0391170D01*
X0012256Y0391249D01*
X0012383Y0391325D01*
X0012512Y0391397D01*
X0012643Y0391466D01*
X0012776Y0391531D01*
X0012911Y0391592D01*
X0013047Y0391650D01*
X0013184Y0391705D01*
X0013323Y0391755D01*
X0013464Y0391802D01*
X0013605Y0391845D01*
X0013748Y0391885D01*
X0013892Y0391920D01*
X0014036Y0391952D01*
X0014182Y0391979D01*
X0014328Y0392003D01*
X0014475Y0392023D01*
X0014622Y0392039D01*
X0014769Y0392051D01*
X0014917Y0392059D01*
X0015065Y0392063D01*
X0015213Y0392063D01*
X0015361Y0392059D01*
X0015509Y0392051D01*
X0015656Y0392039D01*
X0015803Y0392023D01*
X0015950Y0392003D01*
X0016096Y0391979D01*
X0016242Y0391952D01*
X0016386Y0391920D01*
X0016530Y0391885D01*
X0016673Y0391845D01*
X0016814Y0391802D01*
X0016955Y0391755D01*
X0017094Y0391705D01*
X0017231Y0391650D01*
X0017367Y0391592D01*
X0017502Y0391531D01*
X0017635Y0391466D01*
X0017766Y0391397D01*
X0017895Y0391325D01*
X0018022Y0391249D01*
X0018147Y0391170D01*
X0018270Y0391087D01*
X0018391Y0391002D01*
X0018509Y0390913D01*
X0018625Y0390821D01*
X0018738Y0390725D01*
X0018849Y0390627D01*
X0018957Y0390526D01*
X0019063Y0390422D01*
X0019165Y0390316D01*
X0019265Y0390206D01*
X0019361Y0390094D01*
X0019455Y0389979D01*
X0019546Y0389862D01*
X0019633Y0389743D01*
X0019717Y0389621D01*
X0019798Y0389497D01*
X0019875Y0389371D01*
X0019949Y0389243D01*
X0020020Y0389113D01*
X0020087Y0388981D01*
X0020150Y0388847D01*
X0020210Y0388712D01*
X0020266Y0388575D01*
X0020319Y0388436D01*
X0020367Y0388296D01*
X0020412Y0388155D01*
X0020453Y0388013D01*
X0020491Y0387870D01*
X0020524Y0387726D01*
X0020554Y0387581D01*
X0020580Y0387435D01*
X0020601Y0387289D01*
X0020619Y0387142D01*
X0020633Y0386995D01*
X0020643Y0386847D01*
X0020649Y0386699D01*
X0020651Y0386551D01*
X0020649Y0386403D01*
X0020643Y0386255D01*
X0020633Y0386107D01*
X0020619Y0385960D01*
X0020601Y0385813D01*
X0020580Y0385667D01*
X0020554Y0385521D01*
X0020524Y0385376D01*
X0020491Y0385232D01*
X0020453Y0385089D01*
X0020412Y0384947D01*
X0020367Y0384806D01*
X0020319Y0384666D01*
X0020266Y0384527D01*
X0020210Y0384390D01*
X0020150Y0384255D01*
X0020087Y0384121D01*
X0020020Y0383989D01*
X0019949Y0383859D01*
X0019875Y0383731D01*
X0019798Y0383605D01*
X0019717Y0383481D01*
X0019633Y0383359D01*
X0019546Y0383240D01*
X0019455Y0383123D01*
X0019361Y0383008D01*
X0019265Y0382896D01*
X0019165Y0382786D01*
X0019063Y0382680D01*
X0018957Y0382576D01*
X0018849Y0382475D01*
X0018738Y0382377D01*
X0018625Y0382281D01*
X0018509Y0382189D01*
X0018391Y0382100D01*
X0018270Y0382015D01*
X0018147Y0381932D01*
X0018022Y0381853D01*
X0017895Y0381777D01*
X0017766Y0381705D01*
X0017635Y0381636D01*
X0017502Y0381571D01*
X0017367Y0381510D01*
X0017231Y0381452D01*
X0017094Y0381397D01*
X0016955Y0381347D01*
X0016814Y0381300D01*
X0016673Y0381257D01*
X0016530Y0381217D01*
X0016386Y0381182D01*
X0016242Y0381150D01*
X0016096Y0381123D01*
X0015950Y0381099D01*
X0015803Y0381079D01*
X0015656Y0381063D01*
X0015509Y0381051D01*
X0015361Y0381043D01*
X0015213Y0381039D01*
X0015065Y0381039D01*
X0014917Y0381043D01*
X0014769Y0381051D01*
X0014622Y0381063D01*
X0014475Y0381079D01*
X0014328Y0381099D01*
X0014182Y0381123D01*
X0014036Y0381150D01*
X0013892Y0381182D01*
X0013748Y0381217D01*
X0013605Y0381257D01*
X0013464Y0381300D01*
X0013323Y0381347D01*
X0013184Y0381397D01*
X0013047Y0381452D01*
X0012911Y0381510D01*
X0012776Y0381571D01*
X0012643Y0381636D01*
X0012512Y0381705D01*
X0012383Y0381777D01*
X0012256Y0381853D01*
X0012131Y0381932D01*
X0012008Y0382015D01*
X0011887Y0382100D01*
X0011769Y0382189D01*
X0011653Y0382281D01*
X0011540Y0382377D01*
X0011429Y0382475D01*
X0011321Y0382576D01*
X0011215Y0382680D01*
X0011113Y0382786D01*
X0011013Y0382896D01*
X0010917Y0383008D01*
X0010823Y0383123D01*
X0010732Y0383240D01*
X0010645Y0383359D01*
X0010561Y0383481D01*
X0010480Y0383605D01*
X0010403Y0383731D01*
X0010329Y0383859D01*
X0010258Y0383989D01*
X0010191Y0384121D01*
X0010128Y0384255D01*
X0010068Y0384390D01*
X0010012Y0384527D01*
X0009959Y0384666D01*
X0009911Y0384806D01*
X0009866Y0384947D01*
X0009825Y0385089D01*
X0009787Y0385232D01*
X0009754Y0385376D01*
X0009724Y0385521D01*
X0009698Y0385667D01*
X0009677Y0385813D01*
X0009659Y0385960D01*
X0009645Y0386107D01*
X0009635Y0386255D01*
X0009629Y0386403D01*
X0009627Y0386551D01*
D11*
X0018564Y0376217D02*
X0018564Y0371217D01*
X0021064Y0368717D01*
X0018564Y0366217D01*
X0018564Y0361217D01*
X0021064Y0358717D01*
X0026064Y0358717D01*
X0028564Y0361217D01*
X0028564Y0366217D01*
X0026064Y0368717D01*
X0021064Y0368717D01*
X0026064Y0368717D02*
X0028564Y0371217D01*
X0028564Y0376217D01*
X0026064Y0378717D01*
X0021064Y0378717D01*
X0018564Y0376217D01*
X0020789Y0352693D02*
X0018289Y0350193D01*
X0018289Y0345193D01*
X0020789Y0342693D01*
X0018289Y0340193D01*
X0018289Y0335193D01*
X0020789Y0332693D01*
X0025789Y0332693D01*
X0028289Y0335193D01*
X0028289Y0340193D01*
X0025789Y0342693D01*
X0020789Y0342693D01*
X0025789Y0342693D02*
X0028289Y0345193D01*
X0028289Y0350193D01*
X0025789Y0352693D01*
X0020789Y0352693D01*
X0048800Y0360717D02*
X0048800Y0366717D01*
X0048802Y0366777D01*
X0048807Y0366838D01*
X0048816Y0366897D01*
X0048829Y0366956D01*
X0048845Y0367015D01*
X0048865Y0367072D01*
X0048888Y0367127D01*
X0048915Y0367182D01*
X0048944Y0367234D01*
X0048977Y0367285D01*
X0049013Y0367334D01*
X0049051Y0367380D01*
X0049093Y0367424D01*
X0049137Y0367466D01*
X0049183Y0367504D01*
X0049232Y0367540D01*
X0049283Y0367573D01*
X0049335Y0367602D01*
X0049390Y0367629D01*
X0049445Y0367652D01*
X0049502Y0367672D01*
X0049561Y0367688D01*
X0049620Y0367701D01*
X0049679Y0367710D01*
X0049740Y0367715D01*
X0049800Y0367717D01*
X0051300Y0367717D01*
X0051800Y0367217D01*
X0065800Y0367217D01*
X0066300Y0367717D01*
X0067800Y0367717D01*
X0067860Y0367715D01*
X0067921Y0367710D01*
X0067980Y0367701D01*
X0068039Y0367688D01*
X0068098Y0367672D01*
X0068155Y0367652D01*
X0068210Y0367629D01*
X0068265Y0367602D01*
X0068317Y0367573D01*
X0068368Y0367540D01*
X0068417Y0367504D01*
X0068463Y0367466D01*
X0068507Y0367424D01*
X0068549Y0367380D01*
X0068587Y0367334D01*
X0068623Y0367285D01*
X0068656Y0367234D01*
X0068685Y0367182D01*
X0068712Y0367127D01*
X0068735Y0367072D01*
X0068755Y0367015D01*
X0068771Y0366956D01*
X0068784Y0366897D01*
X0068793Y0366838D01*
X0068798Y0366777D01*
X0068800Y0366717D01*
X0068800Y0360717D01*
X0068798Y0360657D01*
X0068793Y0360596D01*
X0068784Y0360537D01*
X0068771Y0360478D01*
X0068755Y0360419D01*
X0068735Y0360362D01*
X0068712Y0360307D01*
X0068685Y0360252D01*
X0068656Y0360200D01*
X0068623Y0360149D01*
X0068587Y0360100D01*
X0068549Y0360054D01*
X0068507Y0360010D01*
X0068463Y0359968D01*
X0068417Y0359930D01*
X0068368Y0359894D01*
X0068317Y0359861D01*
X0068265Y0359832D01*
X0068210Y0359805D01*
X0068155Y0359782D01*
X0068098Y0359762D01*
X0068039Y0359746D01*
X0067980Y0359733D01*
X0067921Y0359724D01*
X0067860Y0359719D01*
X0067800Y0359717D01*
X0066300Y0359717D01*
X0065800Y0360217D01*
X0051800Y0360217D01*
X0051300Y0359717D01*
X0049800Y0359717D01*
X0049740Y0359719D01*
X0049679Y0359724D01*
X0049620Y0359733D01*
X0049561Y0359746D01*
X0049502Y0359762D01*
X0049445Y0359782D01*
X0049390Y0359805D01*
X0049335Y0359832D01*
X0049283Y0359861D01*
X0049232Y0359894D01*
X0049183Y0359930D01*
X0049137Y0359968D01*
X0049093Y0360010D01*
X0049051Y0360054D01*
X0049013Y0360100D01*
X0048977Y0360149D01*
X0048944Y0360200D01*
X0048915Y0360252D01*
X0048888Y0360307D01*
X0048865Y0360362D01*
X0048845Y0360419D01*
X0048829Y0360478D01*
X0048816Y0360537D01*
X0048807Y0360596D01*
X0048802Y0360657D01*
X0048800Y0360717D01*
X0049800Y0341693D02*
X0051300Y0341693D01*
X0051800Y0341193D01*
X0065800Y0341193D01*
X0066300Y0341693D01*
X0067800Y0341693D01*
X0067860Y0341691D01*
X0067921Y0341686D01*
X0067980Y0341677D01*
X0068039Y0341664D01*
X0068098Y0341648D01*
X0068155Y0341628D01*
X0068210Y0341605D01*
X0068265Y0341578D01*
X0068317Y0341549D01*
X0068368Y0341516D01*
X0068417Y0341480D01*
X0068463Y0341442D01*
X0068507Y0341400D01*
X0068549Y0341356D01*
X0068587Y0341310D01*
X0068623Y0341261D01*
X0068656Y0341210D01*
X0068685Y0341158D01*
X0068712Y0341103D01*
X0068735Y0341048D01*
X0068755Y0340991D01*
X0068771Y0340932D01*
X0068784Y0340873D01*
X0068793Y0340814D01*
X0068798Y0340753D01*
X0068800Y0340693D01*
X0068800Y0334693D01*
X0068798Y0334633D01*
X0068793Y0334572D01*
X0068784Y0334513D01*
X0068771Y0334454D01*
X0068755Y0334395D01*
X0068735Y0334338D01*
X0068712Y0334283D01*
X0068685Y0334228D01*
X0068656Y0334176D01*
X0068623Y0334125D01*
X0068587Y0334076D01*
X0068549Y0334030D01*
X0068507Y0333986D01*
X0068463Y0333944D01*
X0068417Y0333906D01*
X0068368Y0333870D01*
X0068317Y0333837D01*
X0068265Y0333808D01*
X0068210Y0333781D01*
X0068155Y0333758D01*
X0068098Y0333738D01*
X0068039Y0333722D01*
X0067980Y0333709D01*
X0067921Y0333700D01*
X0067860Y0333695D01*
X0067800Y0333693D01*
X0066300Y0333693D01*
X0065800Y0334193D01*
X0051800Y0334193D01*
X0051300Y0333693D01*
X0049800Y0333693D01*
X0049740Y0333695D01*
X0049679Y0333700D01*
X0049620Y0333709D01*
X0049561Y0333722D01*
X0049502Y0333738D01*
X0049445Y0333758D01*
X0049390Y0333781D01*
X0049335Y0333808D01*
X0049283Y0333837D01*
X0049232Y0333870D01*
X0049183Y0333906D01*
X0049137Y0333944D01*
X0049093Y0333986D01*
X0049051Y0334030D01*
X0049013Y0334076D01*
X0048977Y0334125D01*
X0048944Y0334176D01*
X0048915Y0334228D01*
X0048888Y0334283D01*
X0048865Y0334338D01*
X0048845Y0334395D01*
X0048829Y0334454D01*
X0048816Y0334513D01*
X0048807Y0334572D01*
X0048802Y0334633D01*
X0048800Y0334693D01*
X0048800Y0340693D01*
X0048802Y0340753D01*
X0048807Y0340814D01*
X0048816Y0340873D01*
X0048829Y0340932D01*
X0048845Y0340991D01*
X0048865Y0341048D01*
X0048888Y0341103D01*
X0048915Y0341158D01*
X0048944Y0341210D01*
X0048977Y0341261D01*
X0049013Y0341310D01*
X0049051Y0341356D01*
X0049093Y0341400D01*
X0049137Y0341442D01*
X0049183Y0341480D01*
X0049232Y0341516D01*
X0049283Y0341549D01*
X0049335Y0341578D01*
X0049390Y0341605D01*
X0049445Y0341628D01*
X0049502Y0341648D01*
X0049561Y0341664D01*
X0049620Y0341677D01*
X0049679Y0341686D01*
X0049740Y0341691D01*
X0049800Y0341693D01*
X0052005Y0317008D02*
X0053505Y0317008D01*
X0054005Y0316508D01*
X0068005Y0316508D01*
X0068505Y0317008D01*
X0070005Y0317008D01*
X0070065Y0317006D01*
X0070126Y0317001D01*
X0070185Y0316992D01*
X0070244Y0316979D01*
X0070303Y0316963D01*
X0070360Y0316943D01*
X0070415Y0316920D01*
X0070470Y0316893D01*
X0070522Y0316864D01*
X0070573Y0316831D01*
X0070622Y0316795D01*
X0070668Y0316757D01*
X0070712Y0316715D01*
X0070754Y0316671D01*
X0070792Y0316625D01*
X0070828Y0316576D01*
X0070861Y0316525D01*
X0070890Y0316473D01*
X0070917Y0316418D01*
X0070940Y0316363D01*
X0070960Y0316306D01*
X0070976Y0316247D01*
X0070989Y0316188D01*
X0070998Y0316129D01*
X0071003Y0316068D01*
X0071005Y0316008D01*
X0071005Y0310008D01*
X0071003Y0309948D01*
X0070998Y0309887D01*
X0070989Y0309828D01*
X0070976Y0309769D01*
X0070960Y0309710D01*
X0070940Y0309653D01*
X0070917Y0309598D01*
X0070890Y0309543D01*
X0070861Y0309491D01*
X0070828Y0309440D01*
X0070792Y0309391D01*
X0070754Y0309345D01*
X0070712Y0309301D01*
X0070668Y0309259D01*
X0070622Y0309221D01*
X0070573Y0309185D01*
X0070522Y0309152D01*
X0070470Y0309123D01*
X0070415Y0309096D01*
X0070360Y0309073D01*
X0070303Y0309053D01*
X0070244Y0309037D01*
X0070185Y0309024D01*
X0070126Y0309015D01*
X0070065Y0309010D01*
X0070005Y0309008D01*
X0068505Y0309008D01*
X0068005Y0309508D01*
X0054005Y0309508D01*
X0053505Y0309008D01*
X0052005Y0309008D01*
X0051945Y0309010D01*
X0051884Y0309015D01*
X0051825Y0309024D01*
X0051766Y0309037D01*
X0051707Y0309053D01*
X0051650Y0309073D01*
X0051595Y0309096D01*
X0051540Y0309123D01*
X0051488Y0309152D01*
X0051437Y0309185D01*
X0051388Y0309221D01*
X0051342Y0309259D01*
X0051298Y0309301D01*
X0051256Y0309345D01*
X0051218Y0309391D01*
X0051182Y0309440D01*
X0051149Y0309491D01*
X0051120Y0309543D01*
X0051093Y0309598D01*
X0051070Y0309653D01*
X0051050Y0309710D01*
X0051034Y0309769D01*
X0051021Y0309828D01*
X0051012Y0309887D01*
X0051007Y0309948D01*
X0051005Y0310008D01*
X0051005Y0316008D01*
X0051007Y0316068D01*
X0051012Y0316129D01*
X0051021Y0316188D01*
X0051034Y0316247D01*
X0051050Y0316306D01*
X0051070Y0316363D01*
X0051093Y0316418D01*
X0051120Y0316473D01*
X0051149Y0316525D01*
X0051182Y0316576D01*
X0051218Y0316625D01*
X0051256Y0316671D01*
X0051298Y0316715D01*
X0051342Y0316757D01*
X0051388Y0316795D01*
X0051437Y0316831D01*
X0051488Y0316864D01*
X0051540Y0316893D01*
X0051595Y0316920D01*
X0051650Y0316943D01*
X0051707Y0316963D01*
X0051766Y0316979D01*
X0051825Y0316992D01*
X0051884Y0317001D01*
X0051945Y0317006D01*
X0052005Y0317008D01*
X0028013Y0315508D02*
X0028013Y0310508D01*
X0025513Y0308008D01*
X0020513Y0308008D01*
X0018013Y0310508D01*
X0018013Y0315508D01*
X0020513Y0318008D01*
X0018013Y0320508D01*
X0018013Y0325508D01*
X0020513Y0328008D01*
X0025513Y0328008D01*
X0028013Y0325508D01*
X0028013Y0320508D01*
X0025513Y0318008D01*
X0028013Y0315508D01*
X0025513Y0318008D02*
X0020513Y0318008D01*
X0020513Y0300843D02*
X0018013Y0298343D01*
X0018013Y0293343D01*
X0020513Y0290843D01*
X0018013Y0288343D01*
X0018013Y0283343D01*
X0020513Y0280843D01*
X0025513Y0280843D01*
X0028013Y0283343D01*
X0028013Y0288343D01*
X0025513Y0290843D01*
X0020513Y0290843D01*
X0025513Y0290843D02*
X0028013Y0293343D01*
X0028013Y0298343D01*
X0025513Y0300843D01*
X0020513Y0300843D01*
X0020238Y0270685D02*
X0017738Y0268185D01*
X0017738Y0263185D01*
X0020238Y0260685D01*
X0017738Y0258185D01*
X0017738Y0253185D01*
X0020238Y0250685D01*
X0025237Y0250685D01*
X0027737Y0253185D01*
X0027737Y0258185D01*
X0025237Y0260685D01*
X0020238Y0260685D01*
X0025237Y0260685D02*
X0027737Y0263185D01*
X0027737Y0268185D01*
X0025237Y0270685D01*
X0020238Y0270685D01*
X0050454Y0268685D02*
X0050454Y0262685D01*
X0050456Y0262625D01*
X0050461Y0262564D01*
X0050470Y0262505D01*
X0050483Y0262446D01*
X0050499Y0262387D01*
X0050519Y0262330D01*
X0050542Y0262275D01*
X0050569Y0262220D01*
X0050598Y0262168D01*
X0050631Y0262117D01*
X0050667Y0262068D01*
X0050705Y0262022D01*
X0050747Y0261978D01*
X0050791Y0261936D01*
X0050837Y0261898D01*
X0050886Y0261862D01*
X0050937Y0261829D01*
X0050989Y0261800D01*
X0051044Y0261773D01*
X0051099Y0261750D01*
X0051156Y0261730D01*
X0051215Y0261714D01*
X0051274Y0261701D01*
X0051333Y0261692D01*
X0051394Y0261687D01*
X0051454Y0261685D01*
X0052954Y0261685D01*
X0053454Y0262185D01*
X0067454Y0262185D01*
X0067954Y0261685D01*
X0069454Y0261685D01*
X0069514Y0261687D01*
X0069575Y0261692D01*
X0069634Y0261701D01*
X0069693Y0261714D01*
X0069752Y0261730D01*
X0069809Y0261750D01*
X0069864Y0261773D01*
X0069919Y0261800D01*
X0069971Y0261829D01*
X0070022Y0261862D01*
X0070071Y0261898D01*
X0070117Y0261936D01*
X0070161Y0261978D01*
X0070203Y0262022D01*
X0070241Y0262068D01*
X0070277Y0262117D01*
X0070310Y0262168D01*
X0070339Y0262220D01*
X0070366Y0262275D01*
X0070389Y0262330D01*
X0070409Y0262387D01*
X0070425Y0262446D01*
X0070438Y0262505D01*
X0070447Y0262564D01*
X0070452Y0262625D01*
X0070454Y0262685D01*
X0070454Y0268685D01*
X0070452Y0268745D01*
X0070447Y0268806D01*
X0070438Y0268865D01*
X0070425Y0268924D01*
X0070409Y0268983D01*
X0070389Y0269040D01*
X0070366Y0269095D01*
X0070339Y0269150D01*
X0070310Y0269202D01*
X0070277Y0269253D01*
X0070241Y0269302D01*
X0070203Y0269348D01*
X0070161Y0269392D01*
X0070117Y0269434D01*
X0070071Y0269472D01*
X0070022Y0269508D01*
X0069971Y0269541D01*
X0069919Y0269570D01*
X0069864Y0269597D01*
X0069809Y0269620D01*
X0069752Y0269640D01*
X0069693Y0269656D01*
X0069634Y0269669D01*
X0069575Y0269678D01*
X0069514Y0269683D01*
X0069454Y0269685D01*
X0067954Y0269685D01*
X0067454Y0269185D01*
X0053454Y0269185D01*
X0052954Y0269685D01*
X0051454Y0269685D01*
X0051394Y0269683D01*
X0051333Y0269678D01*
X0051274Y0269669D01*
X0051215Y0269656D01*
X0051156Y0269640D01*
X0051099Y0269620D01*
X0051044Y0269597D01*
X0050989Y0269570D01*
X0050937Y0269541D01*
X0050886Y0269508D01*
X0050837Y0269472D01*
X0050791Y0269434D01*
X0050747Y0269392D01*
X0050705Y0269348D01*
X0050667Y0269302D01*
X0050631Y0269253D01*
X0050598Y0269202D01*
X0050569Y0269150D01*
X0050542Y0269095D01*
X0050519Y0269040D01*
X0050499Y0268983D01*
X0050483Y0268924D01*
X0050470Y0268865D01*
X0050461Y0268806D01*
X0050456Y0268745D01*
X0050454Y0268685D01*
X0051730Y0282118D02*
X0053230Y0282118D01*
X0053730Y0282618D01*
X0067730Y0282618D01*
X0068230Y0282118D01*
X0069730Y0282118D01*
X0069790Y0282120D01*
X0069851Y0282125D01*
X0069910Y0282134D01*
X0069969Y0282147D01*
X0070028Y0282163D01*
X0070085Y0282183D01*
X0070140Y0282206D01*
X0070195Y0282233D01*
X0070247Y0282262D01*
X0070298Y0282295D01*
X0070347Y0282331D01*
X0070393Y0282369D01*
X0070437Y0282411D01*
X0070479Y0282455D01*
X0070517Y0282501D01*
X0070553Y0282550D01*
X0070586Y0282601D01*
X0070615Y0282653D01*
X0070642Y0282708D01*
X0070665Y0282763D01*
X0070685Y0282820D01*
X0070701Y0282879D01*
X0070714Y0282938D01*
X0070723Y0282997D01*
X0070728Y0283058D01*
X0070730Y0283118D01*
X0070730Y0289118D01*
X0070728Y0289178D01*
X0070723Y0289239D01*
X0070714Y0289298D01*
X0070701Y0289357D01*
X0070685Y0289416D01*
X0070665Y0289473D01*
X0070642Y0289528D01*
X0070615Y0289583D01*
X0070586Y0289635D01*
X0070553Y0289686D01*
X0070517Y0289735D01*
X0070479Y0289781D01*
X0070437Y0289825D01*
X0070393Y0289867D01*
X0070347Y0289905D01*
X0070298Y0289941D01*
X0070247Y0289974D01*
X0070195Y0290003D01*
X0070140Y0290030D01*
X0070085Y0290053D01*
X0070028Y0290073D01*
X0069969Y0290089D01*
X0069910Y0290102D01*
X0069851Y0290111D01*
X0069790Y0290116D01*
X0069730Y0290118D01*
X0068230Y0290118D01*
X0067730Y0289618D01*
X0053730Y0289618D01*
X0053230Y0290118D01*
X0051730Y0290118D01*
X0051670Y0290116D01*
X0051609Y0290111D01*
X0051550Y0290102D01*
X0051491Y0290089D01*
X0051432Y0290073D01*
X0051375Y0290053D01*
X0051320Y0290030D01*
X0051265Y0290003D01*
X0051213Y0289974D01*
X0051162Y0289941D01*
X0051113Y0289905D01*
X0051067Y0289867D01*
X0051023Y0289825D01*
X0050981Y0289781D01*
X0050943Y0289735D01*
X0050907Y0289686D01*
X0050874Y0289635D01*
X0050845Y0289583D01*
X0050818Y0289528D01*
X0050795Y0289473D01*
X0050775Y0289416D01*
X0050759Y0289357D01*
X0050746Y0289298D01*
X0050737Y0289239D01*
X0050732Y0289178D01*
X0050730Y0289118D01*
X0050730Y0283118D01*
X0050732Y0283058D01*
X0050737Y0282997D01*
X0050746Y0282938D01*
X0050759Y0282879D01*
X0050775Y0282820D01*
X0050795Y0282763D01*
X0050818Y0282708D01*
X0050845Y0282653D01*
X0050874Y0282601D01*
X0050907Y0282550D01*
X0050943Y0282501D01*
X0050981Y0282455D01*
X0051023Y0282411D01*
X0051067Y0282369D01*
X0051113Y0282331D01*
X0051162Y0282295D01*
X0051213Y0282262D01*
X0051265Y0282233D01*
X0051320Y0282206D01*
X0051375Y0282183D01*
X0051432Y0282163D01*
X0051491Y0282147D01*
X0051550Y0282134D01*
X0051609Y0282125D01*
X0051670Y0282120D01*
X0051730Y0282118D01*
X0095021Y0311965D02*
X0095021Y0316965D01*
X0097521Y0319465D01*
X0102521Y0319465D01*
X0105021Y0316965D01*
X0107521Y0319465D01*
X0112521Y0319465D01*
X0115021Y0316965D01*
X0117521Y0319465D01*
X0122521Y0319465D01*
X0125021Y0316965D01*
X0127521Y0319465D01*
X0132521Y0319465D01*
X0135021Y0316965D01*
X0135021Y0311965D01*
X0132521Y0309465D01*
X0127521Y0309465D01*
X0125021Y0311965D01*
X0122521Y0309465D01*
X0117521Y0309465D01*
X0115021Y0311965D01*
X0115021Y0316965D01*
X0115021Y0311965D02*
X0112521Y0309465D01*
X0107521Y0309465D01*
X0105021Y0311965D01*
X0102521Y0309465D01*
X0097521Y0309465D01*
X0095021Y0311965D01*
X0105021Y0311965D02*
X0105021Y0316965D01*
X0104489Y0335094D02*
X0101989Y0337594D01*
X0099489Y0335094D01*
X0094489Y0335094D01*
X0091989Y0337594D01*
X0091989Y0342594D01*
X0094489Y0345094D01*
X0099489Y0345094D01*
X0101989Y0342594D01*
X0104489Y0345094D01*
X0109489Y0345094D01*
X0111989Y0342594D01*
X0114489Y0345094D01*
X0119489Y0345094D01*
X0121989Y0342594D01*
X0124489Y0345094D01*
X0129489Y0345094D01*
X0131989Y0342594D01*
X0134489Y0345094D01*
X0139489Y0345094D01*
X0141989Y0342594D01*
X0144489Y0345094D01*
X0149489Y0345094D01*
X0151989Y0342594D01*
X0154489Y0345094D01*
X0159489Y0345094D01*
X0161989Y0342594D01*
X0164489Y0345094D01*
X0169489Y0345094D01*
X0171989Y0342594D01*
X0174489Y0345094D01*
X0179489Y0345094D01*
X0181989Y0342594D01*
X0184489Y0345094D01*
X0189489Y0345094D01*
X0191989Y0342594D01*
X0194489Y0345094D01*
X0199489Y0345094D01*
X0201989Y0342594D01*
X0204489Y0345094D01*
X0209489Y0345094D01*
X0211989Y0342594D01*
X0211989Y0337594D01*
X0209489Y0335094D01*
X0204489Y0335094D01*
X0201989Y0337594D01*
X0199489Y0335094D01*
X0194489Y0335094D01*
X0191989Y0337594D01*
X0191989Y0342594D01*
X0191989Y0337594D02*
X0189489Y0335094D01*
X0184489Y0335094D01*
X0181989Y0337594D01*
X0179489Y0335094D01*
X0174489Y0335094D01*
X0171989Y0337594D01*
X0169489Y0335094D01*
X0164489Y0335094D01*
X0161989Y0337594D01*
X0161989Y0342594D01*
X0161989Y0337594D02*
X0159489Y0335094D01*
X0154489Y0335094D01*
X0151989Y0337594D01*
X0149489Y0335094D01*
X0144489Y0335094D01*
X0141989Y0337594D01*
X0139489Y0335094D01*
X0134489Y0335094D01*
X0131989Y0337594D01*
X0131989Y0342594D01*
X0131989Y0337594D02*
X0129489Y0335094D01*
X0124489Y0335094D01*
X0121989Y0337594D01*
X0119489Y0335094D01*
X0114489Y0335094D01*
X0111989Y0337594D01*
X0109489Y0335094D01*
X0104489Y0335094D01*
X0101989Y0337594D02*
X0101989Y0342594D01*
X0111989Y0342594D02*
X0111989Y0337594D01*
X0121989Y0337594D02*
X0121989Y0342594D01*
X0141989Y0342594D02*
X0141989Y0337594D01*
X0151989Y0337594D02*
X0151989Y0342594D01*
X0168344Y0358417D02*
X0169844Y0358417D01*
X0170344Y0358917D01*
X0184344Y0358917D01*
X0184844Y0358417D01*
X0186344Y0358417D01*
X0186404Y0358419D01*
X0186465Y0358424D01*
X0186524Y0358433D01*
X0186583Y0358446D01*
X0186642Y0358462D01*
X0186699Y0358482D01*
X0186754Y0358505D01*
X0186809Y0358532D01*
X0186861Y0358561D01*
X0186912Y0358594D01*
X0186961Y0358630D01*
X0187007Y0358668D01*
X0187051Y0358710D01*
X0187093Y0358754D01*
X0187131Y0358800D01*
X0187167Y0358849D01*
X0187200Y0358900D01*
X0187229Y0358952D01*
X0187256Y0359007D01*
X0187279Y0359062D01*
X0187299Y0359119D01*
X0187315Y0359178D01*
X0187328Y0359237D01*
X0187337Y0359296D01*
X0187342Y0359357D01*
X0187344Y0359417D01*
X0187344Y0365417D01*
X0187342Y0365477D01*
X0187337Y0365538D01*
X0187328Y0365597D01*
X0187315Y0365656D01*
X0187299Y0365715D01*
X0187279Y0365772D01*
X0187256Y0365827D01*
X0187229Y0365882D01*
X0187200Y0365934D01*
X0187167Y0365985D01*
X0187131Y0366034D01*
X0187093Y0366080D01*
X0187051Y0366124D01*
X0187007Y0366166D01*
X0186961Y0366204D01*
X0186912Y0366240D01*
X0186861Y0366273D01*
X0186809Y0366302D01*
X0186754Y0366329D01*
X0186699Y0366352D01*
X0186642Y0366372D01*
X0186583Y0366388D01*
X0186524Y0366401D01*
X0186465Y0366410D01*
X0186404Y0366415D01*
X0186344Y0366417D01*
X0184844Y0366417D01*
X0184344Y0365917D01*
X0170344Y0365917D01*
X0169844Y0366417D01*
X0168344Y0366417D01*
X0168284Y0366415D01*
X0168223Y0366410D01*
X0168164Y0366401D01*
X0168105Y0366388D01*
X0168046Y0366372D01*
X0167989Y0366352D01*
X0167934Y0366329D01*
X0167879Y0366302D01*
X0167827Y0366273D01*
X0167776Y0366240D01*
X0167727Y0366204D01*
X0167681Y0366166D01*
X0167637Y0366124D01*
X0167595Y0366080D01*
X0167557Y0366034D01*
X0167521Y0365985D01*
X0167488Y0365934D01*
X0167459Y0365882D01*
X0167432Y0365827D01*
X0167409Y0365772D01*
X0167389Y0365715D01*
X0167373Y0365656D01*
X0167360Y0365597D01*
X0167351Y0365538D01*
X0167346Y0365477D01*
X0167344Y0365417D01*
X0167344Y0359417D01*
X0167346Y0359357D01*
X0167351Y0359296D01*
X0167360Y0359237D01*
X0167373Y0359178D01*
X0167389Y0359119D01*
X0167409Y0359062D01*
X0167432Y0359007D01*
X0167459Y0358952D01*
X0167488Y0358900D01*
X0167521Y0358849D01*
X0167557Y0358800D01*
X0167595Y0358754D01*
X0167637Y0358710D01*
X0167681Y0358668D01*
X0167727Y0358630D01*
X0167776Y0358594D01*
X0167827Y0358561D01*
X0167879Y0358532D01*
X0167934Y0358505D01*
X0167989Y0358482D01*
X0168046Y0358462D01*
X0168105Y0358446D01*
X0168164Y0358433D01*
X0168223Y0358424D01*
X0168284Y0358419D01*
X0168344Y0358417D01*
X0171989Y0342594D02*
X0171989Y0337594D01*
X0181989Y0337594D02*
X0181989Y0342594D01*
X0201989Y0342594D02*
X0201989Y0337594D01*
X0224647Y0358323D02*
X0222147Y0360823D01*
X0222147Y0365823D01*
X0224647Y0368323D01*
X0229647Y0368323D01*
X0232147Y0365823D01*
X0234647Y0368323D01*
X0239647Y0368323D01*
X0242147Y0365823D01*
X0242147Y0360823D01*
X0239647Y0358323D01*
X0234647Y0358323D01*
X0232147Y0360823D01*
X0229647Y0358323D01*
X0224647Y0358323D01*
X0232147Y0360823D02*
X0232147Y0365823D01*
X0251163Y0365823D02*
X0251163Y0360823D01*
X0253663Y0358323D01*
X0258663Y0358323D01*
X0261163Y0360823D01*
X0263663Y0358323D01*
X0268663Y0358323D01*
X0271163Y0360823D01*
X0271163Y0365823D01*
X0268663Y0368323D01*
X0263663Y0368323D01*
X0261163Y0365823D01*
X0261163Y0360823D01*
X0261163Y0365823D02*
X0258663Y0368323D01*
X0253663Y0368323D01*
X0251163Y0365823D01*
X0279352Y0365547D02*
X0279352Y0360547D01*
X0281852Y0358047D01*
X0286852Y0358047D01*
X0289352Y0360547D01*
X0291852Y0358047D01*
X0296852Y0358047D01*
X0299352Y0360547D01*
X0299352Y0365547D01*
X0296852Y0368047D01*
X0291852Y0368047D01*
X0289352Y0365547D01*
X0289352Y0360547D01*
X0289352Y0365547D02*
X0286852Y0368047D01*
X0281852Y0368047D01*
X0279352Y0365547D01*
X0306438Y0365547D02*
X0306438Y0360547D01*
X0308938Y0358047D01*
X0313938Y0358047D01*
X0316438Y0360547D01*
X0318938Y0358047D01*
X0323938Y0358047D01*
X0326438Y0360547D01*
X0326438Y0365547D01*
X0323938Y0368047D01*
X0318938Y0368047D01*
X0316438Y0365547D01*
X0316438Y0360547D01*
X0316438Y0365547D02*
X0313938Y0368047D01*
X0308938Y0368047D01*
X0306438Y0365547D01*
X0332974Y0364996D02*
X0332974Y0359996D01*
X0335474Y0357496D01*
X0340474Y0357496D01*
X0342974Y0359996D01*
X0345474Y0357496D01*
X0350474Y0357496D01*
X0352974Y0359996D01*
X0352974Y0364996D01*
X0350474Y0367496D01*
X0345474Y0367496D01*
X0342974Y0364996D01*
X0342974Y0359996D01*
X0342974Y0364996D02*
X0340474Y0367496D01*
X0335474Y0367496D01*
X0332974Y0364996D01*
X0360178Y0364996D02*
X0360178Y0359996D01*
X0362678Y0357496D01*
X0367678Y0357496D01*
X0370178Y0359996D01*
X0372678Y0357496D01*
X0377678Y0357496D01*
X0380178Y0359996D01*
X0380178Y0364996D01*
X0377678Y0367496D01*
X0372678Y0367496D01*
X0370178Y0364996D01*
X0370178Y0359996D01*
X0370178Y0364996D02*
X0367678Y0367496D01*
X0362678Y0367496D01*
X0360178Y0364996D01*
X0371942Y0337575D02*
X0377942Y0337575D01*
X0378002Y0337573D01*
X0378063Y0337568D01*
X0378122Y0337559D01*
X0378181Y0337546D01*
X0378240Y0337530D01*
X0378297Y0337510D01*
X0378352Y0337487D01*
X0378407Y0337460D01*
X0378459Y0337431D01*
X0378510Y0337398D01*
X0378559Y0337362D01*
X0378605Y0337324D01*
X0378649Y0337282D01*
X0378691Y0337238D01*
X0378729Y0337192D01*
X0378765Y0337143D01*
X0378798Y0337092D01*
X0378827Y0337040D01*
X0378854Y0336985D01*
X0378877Y0336930D01*
X0378897Y0336873D01*
X0378913Y0336814D01*
X0378926Y0336755D01*
X0378935Y0336696D01*
X0378940Y0336635D01*
X0378942Y0336575D01*
X0378942Y0335075D01*
X0378442Y0334575D01*
X0378442Y0320575D01*
X0378942Y0320075D01*
X0378942Y0318575D01*
X0378940Y0318515D01*
X0378935Y0318454D01*
X0378926Y0318395D01*
X0378913Y0318336D01*
X0378897Y0318277D01*
X0378877Y0318220D01*
X0378854Y0318165D01*
X0378827Y0318110D01*
X0378798Y0318058D01*
X0378765Y0318007D01*
X0378729Y0317958D01*
X0378691Y0317912D01*
X0378649Y0317868D01*
X0378605Y0317826D01*
X0378559Y0317788D01*
X0378510Y0317752D01*
X0378459Y0317719D01*
X0378407Y0317690D01*
X0378352Y0317663D01*
X0378297Y0317640D01*
X0378240Y0317620D01*
X0378181Y0317604D01*
X0378122Y0317591D01*
X0378063Y0317582D01*
X0378002Y0317577D01*
X0377942Y0317575D01*
X0371942Y0317575D01*
X0371882Y0317577D01*
X0371821Y0317582D01*
X0371762Y0317591D01*
X0371703Y0317604D01*
X0371644Y0317620D01*
X0371587Y0317640D01*
X0371532Y0317663D01*
X0371477Y0317690D01*
X0371425Y0317719D01*
X0371374Y0317752D01*
X0371325Y0317788D01*
X0371279Y0317826D01*
X0371235Y0317868D01*
X0371193Y0317912D01*
X0371155Y0317958D01*
X0371119Y0318007D01*
X0371086Y0318058D01*
X0371057Y0318110D01*
X0371030Y0318165D01*
X0371007Y0318220D01*
X0370987Y0318277D01*
X0370971Y0318336D01*
X0370958Y0318395D01*
X0370949Y0318454D01*
X0370944Y0318515D01*
X0370942Y0318575D01*
X0370942Y0320075D01*
X0371442Y0320575D01*
X0371442Y0334575D01*
X0370942Y0335075D01*
X0370942Y0336575D01*
X0370944Y0336635D01*
X0370949Y0336696D01*
X0370958Y0336755D01*
X0370971Y0336814D01*
X0370987Y0336873D01*
X0371007Y0336930D01*
X0371030Y0336985D01*
X0371057Y0337040D01*
X0371086Y0337092D01*
X0371119Y0337143D01*
X0371155Y0337192D01*
X0371193Y0337238D01*
X0371235Y0337282D01*
X0371279Y0337324D01*
X0371325Y0337362D01*
X0371374Y0337398D01*
X0371425Y0337431D01*
X0371477Y0337460D01*
X0371532Y0337487D01*
X0371587Y0337510D01*
X0371644Y0337530D01*
X0371703Y0337546D01*
X0371762Y0337559D01*
X0371821Y0337568D01*
X0371882Y0337573D01*
X0371942Y0337575D01*
X0351029Y0335472D02*
X0351029Y0333972D01*
X0350529Y0333472D01*
X0350529Y0319472D01*
X0351029Y0318972D01*
X0351029Y0317472D01*
X0351027Y0317412D01*
X0351022Y0317351D01*
X0351013Y0317292D01*
X0351000Y0317233D01*
X0350984Y0317174D01*
X0350964Y0317117D01*
X0350941Y0317062D01*
X0350914Y0317007D01*
X0350885Y0316955D01*
X0350852Y0316904D01*
X0350816Y0316855D01*
X0350778Y0316809D01*
X0350736Y0316765D01*
X0350692Y0316723D01*
X0350646Y0316685D01*
X0350597Y0316649D01*
X0350546Y0316616D01*
X0350494Y0316587D01*
X0350439Y0316560D01*
X0350384Y0316537D01*
X0350327Y0316517D01*
X0350268Y0316501D01*
X0350209Y0316488D01*
X0350150Y0316479D01*
X0350089Y0316474D01*
X0350029Y0316472D01*
X0344029Y0316472D01*
X0343969Y0316474D01*
X0343908Y0316479D01*
X0343849Y0316488D01*
X0343790Y0316501D01*
X0343731Y0316517D01*
X0343674Y0316537D01*
X0343619Y0316560D01*
X0343564Y0316587D01*
X0343512Y0316616D01*
X0343461Y0316649D01*
X0343412Y0316685D01*
X0343366Y0316723D01*
X0343322Y0316765D01*
X0343280Y0316809D01*
X0343242Y0316855D01*
X0343206Y0316904D01*
X0343173Y0316955D01*
X0343144Y0317007D01*
X0343117Y0317062D01*
X0343094Y0317117D01*
X0343074Y0317174D01*
X0343058Y0317233D01*
X0343045Y0317292D01*
X0343036Y0317351D01*
X0343031Y0317412D01*
X0343029Y0317472D01*
X0343029Y0318972D01*
X0343529Y0319472D01*
X0343529Y0333472D01*
X0343029Y0333972D01*
X0343029Y0335472D01*
X0343031Y0335532D01*
X0343036Y0335593D01*
X0343045Y0335652D01*
X0343058Y0335711D01*
X0343074Y0335770D01*
X0343094Y0335827D01*
X0343117Y0335882D01*
X0343144Y0335937D01*
X0343173Y0335989D01*
X0343206Y0336040D01*
X0343242Y0336089D01*
X0343280Y0336135D01*
X0343322Y0336179D01*
X0343366Y0336221D01*
X0343412Y0336259D01*
X0343461Y0336295D01*
X0343512Y0336328D01*
X0343564Y0336357D01*
X0343619Y0336384D01*
X0343674Y0336407D01*
X0343731Y0336427D01*
X0343790Y0336443D01*
X0343849Y0336456D01*
X0343908Y0336465D01*
X0343969Y0336470D01*
X0344029Y0336472D01*
X0350029Y0336472D01*
X0350089Y0336470D01*
X0350150Y0336465D01*
X0350209Y0336456D01*
X0350268Y0336443D01*
X0350327Y0336427D01*
X0350384Y0336407D01*
X0350439Y0336384D01*
X0350494Y0336357D01*
X0350546Y0336328D01*
X0350597Y0336295D01*
X0350646Y0336259D01*
X0350692Y0336221D01*
X0350736Y0336179D01*
X0350778Y0336135D01*
X0350816Y0336089D01*
X0350852Y0336040D01*
X0350885Y0335989D01*
X0350914Y0335937D01*
X0350941Y0335882D01*
X0350964Y0335827D01*
X0350984Y0335770D01*
X0351000Y0335711D01*
X0351013Y0335652D01*
X0351022Y0335593D01*
X0351027Y0335532D01*
X0351029Y0335472D01*
X0325714Y0335197D02*
X0325714Y0333697D01*
X0325214Y0333197D01*
X0325214Y0319197D01*
X0325714Y0318697D01*
X0325714Y0317197D01*
X0325712Y0317137D01*
X0325707Y0317076D01*
X0325698Y0317017D01*
X0325685Y0316958D01*
X0325669Y0316899D01*
X0325649Y0316842D01*
X0325626Y0316787D01*
X0325599Y0316732D01*
X0325570Y0316680D01*
X0325537Y0316629D01*
X0325501Y0316580D01*
X0325463Y0316534D01*
X0325421Y0316490D01*
X0325377Y0316448D01*
X0325331Y0316410D01*
X0325282Y0316374D01*
X0325231Y0316341D01*
X0325179Y0316312D01*
X0325124Y0316285D01*
X0325069Y0316262D01*
X0325012Y0316242D01*
X0324953Y0316226D01*
X0324894Y0316213D01*
X0324835Y0316204D01*
X0324774Y0316199D01*
X0324714Y0316197D01*
X0318714Y0316197D01*
X0318654Y0316199D01*
X0318593Y0316204D01*
X0318534Y0316213D01*
X0318475Y0316226D01*
X0318416Y0316242D01*
X0318359Y0316262D01*
X0318304Y0316285D01*
X0318249Y0316312D01*
X0318197Y0316341D01*
X0318146Y0316374D01*
X0318097Y0316410D01*
X0318051Y0316448D01*
X0318007Y0316490D01*
X0317965Y0316534D01*
X0317927Y0316580D01*
X0317891Y0316629D01*
X0317858Y0316680D01*
X0317829Y0316732D01*
X0317802Y0316787D01*
X0317779Y0316842D01*
X0317759Y0316899D01*
X0317743Y0316958D01*
X0317730Y0317017D01*
X0317721Y0317076D01*
X0317716Y0317137D01*
X0317714Y0317197D01*
X0317714Y0318697D01*
X0318214Y0319197D01*
X0318214Y0333197D01*
X0317714Y0333697D01*
X0317714Y0335197D01*
X0317716Y0335257D01*
X0317721Y0335318D01*
X0317730Y0335377D01*
X0317743Y0335436D01*
X0317759Y0335495D01*
X0317779Y0335552D01*
X0317802Y0335607D01*
X0317829Y0335662D01*
X0317858Y0335714D01*
X0317891Y0335765D01*
X0317927Y0335814D01*
X0317965Y0335860D01*
X0318007Y0335904D01*
X0318051Y0335946D01*
X0318097Y0335984D01*
X0318146Y0336020D01*
X0318197Y0336053D01*
X0318249Y0336082D01*
X0318304Y0336109D01*
X0318359Y0336132D01*
X0318416Y0336152D01*
X0318475Y0336168D01*
X0318534Y0336181D01*
X0318593Y0336190D01*
X0318654Y0336195D01*
X0318714Y0336197D01*
X0324714Y0336197D01*
X0324774Y0336195D01*
X0324835Y0336190D01*
X0324894Y0336181D01*
X0324953Y0336168D01*
X0325012Y0336152D01*
X0325069Y0336132D01*
X0325124Y0336109D01*
X0325179Y0336082D01*
X0325231Y0336053D01*
X0325282Y0336020D01*
X0325331Y0335984D01*
X0325377Y0335946D01*
X0325421Y0335904D01*
X0325463Y0335860D01*
X0325501Y0335814D01*
X0325537Y0335765D01*
X0325570Y0335714D01*
X0325599Y0335662D01*
X0325626Y0335607D01*
X0325649Y0335552D01*
X0325669Y0335495D01*
X0325685Y0335436D01*
X0325698Y0335377D01*
X0325707Y0335318D01*
X0325712Y0335257D01*
X0325714Y0335197D01*
X0298352Y0335197D02*
X0298352Y0333697D01*
X0297852Y0333197D01*
X0297852Y0319197D01*
X0298352Y0318697D01*
X0298352Y0317197D01*
X0298350Y0317137D01*
X0298345Y0317076D01*
X0298336Y0317017D01*
X0298323Y0316958D01*
X0298307Y0316899D01*
X0298287Y0316842D01*
X0298264Y0316787D01*
X0298237Y0316732D01*
X0298208Y0316680D01*
X0298175Y0316629D01*
X0298139Y0316580D01*
X0298101Y0316534D01*
X0298059Y0316490D01*
X0298015Y0316448D01*
X0297969Y0316410D01*
X0297920Y0316374D01*
X0297869Y0316341D01*
X0297817Y0316312D01*
X0297762Y0316285D01*
X0297707Y0316262D01*
X0297650Y0316242D01*
X0297591Y0316226D01*
X0297532Y0316213D01*
X0297473Y0316204D01*
X0297412Y0316199D01*
X0297352Y0316197D01*
X0291352Y0316197D01*
X0291292Y0316199D01*
X0291231Y0316204D01*
X0291172Y0316213D01*
X0291113Y0316226D01*
X0291054Y0316242D01*
X0290997Y0316262D01*
X0290942Y0316285D01*
X0290887Y0316312D01*
X0290835Y0316341D01*
X0290784Y0316374D01*
X0290735Y0316410D01*
X0290689Y0316448D01*
X0290645Y0316490D01*
X0290603Y0316534D01*
X0290565Y0316580D01*
X0290529Y0316629D01*
X0290496Y0316680D01*
X0290467Y0316732D01*
X0290440Y0316787D01*
X0290417Y0316842D01*
X0290397Y0316899D01*
X0290381Y0316958D01*
X0290368Y0317017D01*
X0290359Y0317076D01*
X0290354Y0317137D01*
X0290352Y0317197D01*
X0290352Y0318697D01*
X0290852Y0319197D01*
X0290852Y0333197D01*
X0290352Y0333697D01*
X0290352Y0335197D01*
X0290354Y0335257D01*
X0290359Y0335318D01*
X0290368Y0335377D01*
X0290381Y0335436D01*
X0290397Y0335495D01*
X0290417Y0335552D01*
X0290440Y0335607D01*
X0290467Y0335662D01*
X0290496Y0335714D01*
X0290529Y0335765D01*
X0290565Y0335814D01*
X0290603Y0335860D01*
X0290645Y0335904D01*
X0290689Y0335946D01*
X0290735Y0335984D01*
X0290784Y0336020D01*
X0290835Y0336053D01*
X0290887Y0336082D01*
X0290942Y0336109D01*
X0290997Y0336132D01*
X0291054Y0336152D01*
X0291113Y0336168D01*
X0291172Y0336181D01*
X0291231Y0336190D01*
X0291292Y0336195D01*
X0291352Y0336197D01*
X0297352Y0336197D01*
X0297412Y0336195D01*
X0297473Y0336190D01*
X0297532Y0336181D01*
X0297591Y0336168D01*
X0297650Y0336152D01*
X0297707Y0336132D01*
X0297762Y0336109D01*
X0297817Y0336082D01*
X0297869Y0336053D01*
X0297920Y0336020D01*
X0297969Y0335984D01*
X0298015Y0335946D01*
X0298059Y0335904D01*
X0298101Y0335860D01*
X0298139Y0335814D01*
X0298175Y0335765D01*
X0298208Y0335714D01*
X0298237Y0335662D01*
X0298264Y0335607D01*
X0298287Y0335552D01*
X0298307Y0335495D01*
X0298323Y0335436D01*
X0298336Y0335377D01*
X0298345Y0335318D01*
X0298350Y0335257D01*
X0298352Y0335197D01*
X0270438Y0334921D02*
X0270438Y0333421D01*
X0269938Y0332921D01*
X0269938Y0318921D01*
X0270438Y0318421D01*
X0270438Y0316921D01*
X0270436Y0316861D01*
X0270431Y0316800D01*
X0270422Y0316741D01*
X0270409Y0316682D01*
X0270393Y0316623D01*
X0270373Y0316566D01*
X0270350Y0316511D01*
X0270323Y0316456D01*
X0270294Y0316404D01*
X0270261Y0316353D01*
X0270225Y0316304D01*
X0270187Y0316258D01*
X0270145Y0316214D01*
X0270101Y0316172D01*
X0270055Y0316134D01*
X0270006Y0316098D01*
X0269955Y0316065D01*
X0269903Y0316036D01*
X0269848Y0316009D01*
X0269793Y0315986D01*
X0269736Y0315966D01*
X0269677Y0315950D01*
X0269618Y0315937D01*
X0269559Y0315928D01*
X0269498Y0315923D01*
X0269438Y0315921D01*
X0263438Y0315921D01*
X0263378Y0315923D01*
X0263317Y0315928D01*
X0263258Y0315937D01*
X0263199Y0315950D01*
X0263140Y0315966D01*
X0263083Y0315986D01*
X0263028Y0316009D01*
X0262973Y0316036D01*
X0262921Y0316065D01*
X0262870Y0316098D01*
X0262821Y0316134D01*
X0262775Y0316172D01*
X0262731Y0316214D01*
X0262689Y0316258D01*
X0262651Y0316304D01*
X0262615Y0316353D01*
X0262582Y0316404D01*
X0262553Y0316456D01*
X0262526Y0316511D01*
X0262503Y0316566D01*
X0262483Y0316623D01*
X0262467Y0316682D01*
X0262454Y0316741D01*
X0262445Y0316800D01*
X0262440Y0316861D01*
X0262438Y0316921D01*
X0262438Y0318421D01*
X0262938Y0318921D01*
X0262938Y0332921D01*
X0262438Y0333421D01*
X0262438Y0334921D01*
X0262440Y0334981D01*
X0262445Y0335042D01*
X0262454Y0335101D01*
X0262467Y0335160D01*
X0262483Y0335219D01*
X0262503Y0335276D01*
X0262526Y0335331D01*
X0262553Y0335386D01*
X0262582Y0335438D01*
X0262615Y0335489D01*
X0262651Y0335538D01*
X0262689Y0335584D01*
X0262731Y0335628D01*
X0262775Y0335670D01*
X0262821Y0335708D01*
X0262870Y0335744D01*
X0262921Y0335777D01*
X0262973Y0335806D01*
X0263028Y0335833D01*
X0263083Y0335856D01*
X0263140Y0335876D01*
X0263199Y0335892D01*
X0263258Y0335905D01*
X0263317Y0335914D01*
X0263378Y0335919D01*
X0263438Y0335921D01*
X0269438Y0335921D01*
X0269498Y0335919D01*
X0269559Y0335914D01*
X0269618Y0335905D01*
X0269677Y0335892D01*
X0269736Y0335876D01*
X0269793Y0335856D01*
X0269848Y0335833D01*
X0269903Y0335806D01*
X0269955Y0335777D01*
X0270006Y0335744D01*
X0270055Y0335708D01*
X0270101Y0335670D01*
X0270145Y0335628D01*
X0270187Y0335584D01*
X0270225Y0335538D01*
X0270261Y0335489D01*
X0270294Y0335438D01*
X0270323Y0335386D01*
X0270350Y0335331D01*
X0270373Y0335276D01*
X0270393Y0335219D01*
X0270409Y0335160D01*
X0270422Y0335101D01*
X0270431Y0335042D01*
X0270436Y0334981D01*
X0270438Y0334921D01*
X0240596Y0334646D02*
X0240596Y0333146D01*
X0240096Y0332646D01*
X0240096Y0318646D01*
X0240596Y0318146D01*
X0240596Y0316646D01*
X0240594Y0316586D01*
X0240589Y0316525D01*
X0240580Y0316466D01*
X0240567Y0316407D01*
X0240551Y0316348D01*
X0240531Y0316291D01*
X0240508Y0316236D01*
X0240481Y0316181D01*
X0240452Y0316129D01*
X0240419Y0316078D01*
X0240383Y0316029D01*
X0240345Y0315983D01*
X0240303Y0315939D01*
X0240259Y0315897D01*
X0240213Y0315859D01*
X0240164Y0315823D01*
X0240113Y0315790D01*
X0240061Y0315761D01*
X0240006Y0315734D01*
X0239951Y0315711D01*
X0239894Y0315691D01*
X0239835Y0315675D01*
X0239776Y0315662D01*
X0239717Y0315653D01*
X0239656Y0315648D01*
X0239596Y0315646D01*
X0233596Y0315646D01*
X0233536Y0315648D01*
X0233475Y0315653D01*
X0233416Y0315662D01*
X0233357Y0315675D01*
X0233298Y0315691D01*
X0233241Y0315711D01*
X0233186Y0315734D01*
X0233131Y0315761D01*
X0233079Y0315790D01*
X0233028Y0315823D01*
X0232979Y0315859D01*
X0232933Y0315897D01*
X0232889Y0315939D01*
X0232847Y0315983D01*
X0232809Y0316029D01*
X0232773Y0316078D01*
X0232740Y0316129D01*
X0232711Y0316181D01*
X0232684Y0316236D01*
X0232661Y0316291D01*
X0232641Y0316348D01*
X0232625Y0316407D01*
X0232612Y0316466D01*
X0232603Y0316525D01*
X0232598Y0316586D01*
X0232596Y0316646D01*
X0232596Y0318146D01*
X0233096Y0318646D01*
X0233096Y0332646D01*
X0232596Y0333146D01*
X0232596Y0334646D01*
X0232598Y0334706D01*
X0232603Y0334767D01*
X0232612Y0334826D01*
X0232625Y0334885D01*
X0232641Y0334944D01*
X0232661Y0335001D01*
X0232684Y0335056D01*
X0232711Y0335111D01*
X0232740Y0335163D01*
X0232773Y0335214D01*
X0232809Y0335263D01*
X0232847Y0335309D01*
X0232889Y0335353D01*
X0232933Y0335395D01*
X0232979Y0335433D01*
X0233028Y0335469D01*
X0233079Y0335502D01*
X0233131Y0335531D01*
X0233186Y0335558D01*
X0233241Y0335581D01*
X0233298Y0335601D01*
X0233357Y0335617D01*
X0233416Y0335630D01*
X0233475Y0335639D01*
X0233536Y0335644D01*
X0233596Y0335646D01*
X0239596Y0335646D01*
X0239656Y0335644D01*
X0239717Y0335639D01*
X0239776Y0335630D01*
X0239835Y0335617D01*
X0239894Y0335601D01*
X0239951Y0335581D01*
X0240006Y0335558D01*
X0240061Y0335531D01*
X0240113Y0335502D01*
X0240164Y0335469D01*
X0240213Y0335433D01*
X0240259Y0335395D01*
X0240303Y0335353D01*
X0240345Y0335309D01*
X0240383Y0335263D01*
X0240419Y0335214D01*
X0240452Y0335163D01*
X0240481Y0335111D01*
X0240508Y0335056D01*
X0240531Y0335001D01*
X0240551Y0334944D01*
X0240567Y0334885D01*
X0240580Y0334826D01*
X0240589Y0334767D01*
X0240594Y0334706D01*
X0240596Y0334646D01*
X0332934Y0292346D02*
X0332934Y0286346D01*
X0332936Y0286286D01*
X0332941Y0286225D01*
X0332950Y0286166D01*
X0332963Y0286107D01*
X0332979Y0286048D01*
X0332999Y0285991D01*
X0333022Y0285936D01*
X0333049Y0285881D01*
X0333078Y0285829D01*
X0333111Y0285778D01*
X0333147Y0285729D01*
X0333185Y0285683D01*
X0333227Y0285639D01*
X0333271Y0285597D01*
X0333317Y0285559D01*
X0333366Y0285523D01*
X0333417Y0285490D01*
X0333469Y0285461D01*
X0333524Y0285434D01*
X0333579Y0285411D01*
X0333636Y0285391D01*
X0333695Y0285375D01*
X0333754Y0285362D01*
X0333813Y0285353D01*
X0333874Y0285348D01*
X0333934Y0285346D01*
X0335434Y0285346D01*
X0335934Y0285846D01*
X0349934Y0285846D01*
X0350434Y0285346D01*
X0351934Y0285346D01*
X0351994Y0285348D01*
X0352055Y0285353D01*
X0352114Y0285362D01*
X0352173Y0285375D01*
X0352232Y0285391D01*
X0352289Y0285411D01*
X0352344Y0285434D01*
X0352399Y0285461D01*
X0352451Y0285490D01*
X0352502Y0285523D01*
X0352551Y0285559D01*
X0352597Y0285597D01*
X0352641Y0285639D01*
X0352683Y0285683D01*
X0352721Y0285729D01*
X0352757Y0285778D01*
X0352790Y0285829D01*
X0352819Y0285881D01*
X0352846Y0285936D01*
X0352869Y0285991D01*
X0352889Y0286048D01*
X0352905Y0286107D01*
X0352918Y0286166D01*
X0352927Y0286225D01*
X0352932Y0286286D01*
X0352934Y0286346D01*
X0352934Y0292346D01*
X0352932Y0292406D01*
X0352927Y0292467D01*
X0352918Y0292526D01*
X0352905Y0292585D01*
X0352889Y0292644D01*
X0352869Y0292701D01*
X0352846Y0292756D01*
X0352819Y0292811D01*
X0352790Y0292863D01*
X0352757Y0292914D01*
X0352721Y0292963D01*
X0352683Y0293009D01*
X0352641Y0293053D01*
X0352597Y0293095D01*
X0352551Y0293133D01*
X0352502Y0293169D01*
X0352451Y0293202D01*
X0352399Y0293231D01*
X0352344Y0293258D01*
X0352289Y0293281D01*
X0352232Y0293301D01*
X0352173Y0293317D01*
X0352114Y0293330D01*
X0352055Y0293339D01*
X0351994Y0293344D01*
X0351934Y0293346D01*
X0350434Y0293346D01*
X0349934Y0292846D01*
X0335934Y0292846D01*
X0335434Y0293346D01*
X0333934Y0293346D01*
X0333874Y0293344D01*
X0333813Y0293339D01*
X0333754Y0293330D01*
X0333695Y0293317D01*
X0333636Y0293301D01*
X0333579Y0293281D01*
X0333524Y0293258D01*
X0333469Y0293231D01*
X0333417Y0293202D01*
X0333366Y0293169D01*
X0333317Y0293133D01*
X0333271Y0293095D01*
X0333227Y0293053D01*
X0333185Y0293009D01*
X0333147Y0292963D01*
X0333111Y0292914D01*
X0333078Y0292863D01*
X0333049Y0292811D01*
X0333022Y0292756D01*
X0332999Y0292701D01*
X0332979Y0292644D01*
X0332963Y0292585D01*
X0332950Y0292526D01*
X0332941Y0292467D01*
X0332936Y0292406D01*
X0332934Y0292346D01*
X0334131Y0260669D02*
X0335631Y0260669D01*
X0336131Y0260169D01*
X0350131Y0260169D01*
X0350631Y0260669D01*
X0352131Y0260669D01*
X0352191Y0260667D01*
X0352252Y0260662D01*
X0352311Y0260653D01*
X0352370Y0260640D01*
X0352429Y0260624D01*
X0352486Y0260604D01*
X0352541Y0260581D01*
X0352596Y0260554D01*
X0352648Y0260525D01*
X0352699Y0260492D01*
X0352748Y0260456D01*
X0352794Y0260418D01*
X0352838Y0260376D01*
X0352880Y0260332D01*
X0352918Y0260286D01*
X0352954Y0260237D01*
X0352987Y0260186D01*
X0353016Y0260134D01*
X0353043Y0260079D01*
X0353066Y0260024D01*
X0353086Y0259967D01*
X0353102Y0259908D01*
X0353115Y0259849D01*
X0353124Y0259790D01*
X0353129Y0259729D01*
X0353131Y0259669D01*
X0353131Y0253669D01*
X0353129Y0253609D01*
X0353124Y0253548D01*
X0353115Y0253489D01*
X0353102Y0253430D01*
X0353086Y0253371D01*
X0353066Y0253314D01*
X0353043Y0253259D01*
X0353016Y0253204D01*
X0352987Y0253152D01*
X0352954Y0253101D01*
X0352918Y0253052D01*
X0352880Y0253006D01*
X0352838Y0252962D01*
X0352794Y0252920D01*
X0352748Y0252882D01*
X0352699Y0252846D01*
X0352648Y0252813D01*
X0352596Y0252784D01*
X0352541Y0252757D01*
X0352486Y0252734D01*
X0352429Y0252714D01*
X0352370Y0252698D01*
X0352311Y0252685D01*
X0352252Y0252676D01*
X0352191Y0252671D01*
X0352131Y0252669D01*
X0350631Y0252669D01*
X0350131Y0253169D01*
X0336131Y0253169D01*
X0335631Y0252669D01*
X0334131Y0252669D01*
X0334071Y0252671D01*
X0334010Y0252676D01*
X0333951Y0252685D01*
X0333892Y0252698D01*
X0333833Y0252714D01*
X0333776Y0252734D01*
X0333721Y0252757D01*
X0333666Y0252784D01*
X0333614Y0252813D01*
X0333563Y0252846D01*
X0333514Y0252882D01*
X0333468Y0252920D01*
X0333424Y0252962D01*
X0333382Y0253006D01*
X0333344Y0253052D01*
X0333308Y0253101D01*
X0333275Y0253152D01*
X0333246Y0253204D01*
X0333219Y0253259D01*
X0333196Y0253314D01*
X0333176Y0253371D01*
X0333160Y0253430D01*
X0333147Y0253489D01*
X0333138Y0253548D01*
X0333133Y0253609D01*
X0333131Y0253669D01*
X0333131Y0259669D01*
X0333133Y0259729D01*
X0333138Y0259790D01*
X0333147Y0259849D01*
X0333160Y0259908D01*
X0333176Y0259967D01*
X0333196Y0260024D01*
X0333219Y0260079D01*
X0333246Y0260134D01*
X0333275Y0260186D01*
X0333308Y0260237D01*
X0333344Y0260286D01*
X0333382Y0260332D01*
X0333424Y0260376D01*
X0333468Y0260418D01*
X0333514Y0260456D01*
X0333563Y0260492D01*
X0333614Y0260525D01*
X0333666Y0260554D01*
X0333721Y0260581D01*
X0333776Y0260604D01*
X0333833Y0260624D01*
X0333892Y0260640D01*
X0333951Y0260653D01*
X0334010Y0260662D01*
X0334071Y0260667D01*
X0334131Y0260669D01*
X0333934Y0229843D02*
X0335434Y0229843D01*
X0335934Y0229343D01*
X0349934Y0229343D01*
X0350434Y0229843D01*
X0351934Y0229843D01*
X0351994Y0229841D01*
X0352055Y0229836D01*
X0352114Y0229827D01*
X0352173Y0229814D01*
X0352232Y0229798D01*
X0352289Y0229778D01*
X0352344Y0229755D01*
X0352399Y0229728D01*
X0352451Y0229699D01*
X0352502Y0229666D01*
X0352551Y0229630D01*
X0352597Y0229592D01*
X0352641Y0229550D01*
X0352683Y0229506D01*
X0352721Y0229460D01*
X0352757Y0229411D01*
X0352790Y0229360D01*
X0352819Y0229308D01*
X0352846Y0229253D01*
X0352869Y0229198D01*
X0352889Y0229141D01*
X0352905Y0229082D01*
X0352918Y0229023D01*
X0352927Y0228964D01*
X0352932Y0228903D01*
X0352934Y0228843D01*
X0352934Y0222843D01*
X0352932Y0222783D01*
X0352927Y0222722D01*
X0352918Y0222663D01*
X0352905Y0222604D01*
X0352889Y0222545D01*
X0352869Y0222488D01*
X0352846Y0222433D01*
X0352819Y0222378D01*
X0352790Y0222326D01*
X0352757Y0222275D01*
X0352721Y0222226D01*
X0352683Y0222180D01*
X0352641Y0222136D01*
X0352597Y0222094D01*
X0352551Y0222056D01*
X0352502Y0222020D01*
X0352451Y0221987D01*
X0352399Y0221958D01*
X0352344Y0221931D01*
X0352289Y0221908D01*
X0352232Y0221888D01*
X0352173Y0221872D01*
X0352114Y0221859D01*
X0352055Y0221850D01*
X0351994Y0221845D01*
X0351934Y0221843D01*
X0350434Y0221843D01*
X0349934Y0222343D01*
X0335934Y0222343D01*
X0335434Y0221843D01*
X0333934Y0221843D01*
X0333874Y0221845D01*
X0333813Y0221850D01*
X0333754Y0221859D01*
X0333695Y0221872D01*
X0333636Y0221888D01*
X0333579Y0221908D01*
X0333524Y0221931D01*
X0333469Y0221958D01*
X0333417Y0221987D01*
X0333366Y0222020D01*
X0333317Y0222056D01*
X0333271Y0222094D01*
X0333227Y0222136D01*
X0333185Y0222180D01*
X0333147Y0222226D01*
X0333111Y0222275D01*
X0333078Y0222326D01*
X0333049Y0222378D01*
X0333022Y0222433D01*
X0332999Y0222488D01*
X0332979Y0222545D01*
X0332963Y0222604D01*
X0332950Y0222663D01*
X0332941Y0222722D01*
X0332936Y0222783D01*
X0332934Y0222843D01*
X0332934Y0228843D01*
X0332936Y0228903D01*
X0332941Y0228964D01*
X0332950Y0229023D01*
X0332963Y0229082D01*
X0332979Y0229141D01*
X0332999Y0229198D01*
X0333022Y0229253D01*
X0333049Y0229308D01*
X0333078Y0229360D01*
X0333111Y0229411D01*
X0333147Y0229460D01*
X0333185Y0229506D01*
X0333227Y0229550D01*
X0333271Y0229592D01*
X0333317Y0229630D01*
X0333366Y0229666D01*
X0333417Y0229699D01*
X0333469Y0229728D01*
X0333524Y0229755D01*
X0333579Y0229778D01*
X0333636Y0229798D01*
X0333695Y0229814D01*
X0333754Y0229827D01*
X0333813Y0229836D01*
X0333874Y0229841D01*
X0333934Y0229843D01*
X0344175Y0201197D02*
X0341675Y0198697D01*
X0341675Y0193697D01*
X0344175Y0191197D01*
X0349175Y0191197D01*
X0351675Y0193697D01*
X0351675Y0198697D01*
X0349175Y0201197D01*
X0344175Y0201197D01*
X0344175Y0191197D02*
X0341675Y0188697D01*
X0341675Y0183697D01*
X0344175Y0181197D01*
X0349175Y0181197D01*
X0351675Y0183697D01*
X0351675Y0188697D01*
X0349175Y0191197D01*
X0349175Y0181197D02*
X0351675Y0178697D01*
X0351675Y0173697D01*
X0349175Y0171197D01*
X0344175Y0171197D01*
X0341675Y0173697D01*
X0341675Y0178697D01*
X0344175Y0181197D01*
X0370336Y0179839D02*
X0370336Y0174839D01*
X0372836Y0172339D01*
X0377836Y0172339D01*
X0380336Y0174839D01*
X0380336Y0179839D01*
X0377836Y0182339D01*
X0372836Y0182339D01*
X0370336Y0179839D01*
X0372836Y0182339D02*
X0370336Y0184839D01*
X0370336Y0189839D01*
X0372836Y0192339D01*
X0370336Y0194839D01*
X0370336Y0199839D01*
X0372836Y0202339D01*
X0377836Y0202339D01*
X0380336Y0199839D01*
X0380336Y0194839D01*
X0377836Y0192339D01*
X0380336Y0189839D01*
X0380336Y0184839D01*
X0377836Y0182339D01*
X0377836Y0192339D02*
X0372836Y0192339D01*
X0373033Y0211276D02*
X0370533Y0213776D01*
X0370533Y0218776D01*
X0373033Y0221276D01*
X0370533Y0223776D01*
X0370533Y0228776D01*
X0373033Y0231276D01*
X0378033Y0231276D01*
X0380533Y0228776D01*
X0380533Y0223776D01*
X0378033Y0221276D01*
X0380533Y0218776D01*
X0380533Y0213776D01*
X0378033Y0211276D01*
X0373033Y0211276D01*
X0373033Y0221276D02*
X0378033Y0221276D01*
X0378230Y0241827D02*
X0373230Y0241827D01*
X0370730Y0244327D01*
X0370730Y0249327D01*
X0373230Y0251827D01*
X0370730Y0254327D01*
X0370730Y0259327D01*
X0373230Y0261827D01*
X0378230Y0261827D01*
X0380730Y0259327D01*
X0380730Y0254327D01*
X0378230Y0251827D01*
X0380730Y0249327D01*
X0380730Y0244327D01*
X0378230Y0241827D01*
X0378230Y0251827D02*
X0373230Y0251827D01*
X0373584Y0275291D02*
X0371084Y0277791D01*
X0371084Y0282791D01*
X0373584Y0285291D01*
X0371084Y0287791D01*
X0371084Y0292791D01*
X0373584Y0295291D01*
X0378584Y0295291D01*
X0381084Y0292791D01*
X0381084Y0287791D01*
X0378584Y0285291D01*
X0381084Y0282791D01*
X0381084Y0277791D01*
X0378584Y0275291D01*
X0373584Y0275291D01*
X0373584Y0285291D02*
X0378584Y0285291D01*
X0377836Y0172339D02*
X0380336Y0169839D01*
X0380336Y0164839D01*
X0377836Y0162339D01*
X0372836Y0162339D01*
X0370336Y0164839D01*
X0370336Y0169839D01*
X0372836Y0172339D01*
X0372836Y0152929D02*
X0370336Y0150429D01*
X0370336Y0145429D01*
X0372836Y0142929D01*
X0370336Y0140429D01*
X0370336Y0135429D01*
X0372836Y0132929D01*
X0377836Y0132929D01*
X0380336Y0135429D01*
X0380336Y0140429D01*
X0377836Y0142929D01*
X0372836Y0142929D01*
X0377836Y0142929D02*
X0380336Y0145429D01*
X0380336Y0150429D01*
X0377836Y0152929D01*
X0372836Y0152929D01*
X0372836Y0132929D02*
X0370336Y0130429D01*
X0370336Y0125429D01*
X0372836Y0122929D01*
X0370336Y0120429D01*
X0370336Y0115429D01*
X0372836Y0112929D01*
X0377836Y0112929D01*
X0380336Y0115429D01*
X0380336Y0120429D01*
X0377836Y0122929D01*
X0372836Y0122929D01*
X0377836Y0122929D02*
X0380336Y0125429D01*
X0380336Y0130429D01*
X0377836Y0132929D01*
X0330655Y0097535D02*
X0323155Y0097535D01*
X0323153Y0097409D01*
X0323147Y0097284D01*
X0323137Y0097159D01*
X0323123Y0097034D01*
X0323106Y0096909D01*
X0323084Y0096785D01*
X0323059Y0096662D01*
X0323029Y0096540D01*
X0322996Y0096419D01*
X0322959Y0096299D01*
X0322919Y0096180D01*
X0322874Y0096063D01*
X0322826Y0095946D01*
X0322774Y0095832D01*
X0322719Y0095719D01*
X0322660Y0095608D01*
X0322598Y0095499D01*
X0322532Y0095392D01*
X0322463Y0095287D01*
X0322391Y0095184D01*
X0322316Y0095083D01*
X0322237Y0094985D01*
X0322155Y0094890D01*
X0322071Y0094797D01*
X0321983Y0094707D01*
X0321893Y0094619D01*
X0321800Y0094535D01*
X0321705Y0094453D01*
X0321607Y0094374D01*
X0321506Y0094299D01*
X0321403Y0094227D01*
X0321298Y0094158D01*
X0321191Y0094092D01*
X0321082Y0094030D01*
X0320971Y0093971D01*
X0320858Y0093916D01*
X0320744Y0093864D01*
X0320627Y0093816D01*
X0320510Y0093771D01*
X0320391Y0093731D01*
X0320271Y0093694D01*
X0320150Y0093661D01*
X0320028Y0093631D01*
X0319905Y0093606D01*
X0319781Y0093584D01*
X0319656Y0093567D01*
X0319531Y0093553D01*
X0319406Y0093543D01*
X0319281Y0093537D01*
X0319155Y0093535D01*
X0319029Y0093537D01*
X0318904Y0093543D01*
X0318779Y0093553D01*
X0318654Y0093567D01*
X0318529Y0093584D01*
X0318405Y0093606D01*
X0318282Y0093631D01*
X0318160Y0093661D01*
X0318039Y0093694D01*
X0317919Y0093731D01*
X0317800Y0093771D01*
X0317683Y0093816D01*
X0317566Y0093864D01*
X0317452Y0093916D01*
X0317339Y0093971D01*
X0317228Y0094030D01*
X0317119Y0094092D01*
X0317012Y0094158D01*
X0316907Y0094227D01*
X0316804Y0094299D01*
X0316703Y0094374D01*
X0316605Y0094453D01*
X0316510Y0094535D01*
X0316417Y0094619D01*
X0316327Y0094707D01*
X0316239Y0094797D01*
X0316155Y0094890D01*
X0316073Y0094985D01*
X0315994Y0095083D01*
X0315919Y0095184D01*
X0315847Y0095287D01*
X0315778Y0095392D01*
X0315712Y0095499D01*
X0315650Y0095608D01*
X0315591Y0095719D01*
X0315536Y0095832D01*
X0315484Y0095946D01*
X0315436Y0096063D01*
X0315391Y0096180D01*
X0315351Y0096299D01*
X0315314Y0096419D01*
X0315281Y0096540D01*
X0315251Y0096662D01*
X0315226Y0096785D01*
X0315204Y0096909D01*
X0315187Y0097034D01*
X0315173Y0097159D01*
X0315163Y0097284D01*
X0315157Y0097409D01*
X0315155Y0097535D01*
X0307655Y0097535D01*
X0307655Y0017535D01*
X0330655Y0017535D01*
X0330655Y0097535D01*
X0357974Y0075232D02*
X0360474Y0077732D01*
X0365474Y0077732D01*
X0367974Y0075232D01*
X0367974Y0070232D01*
X0365474Y0067732D01*
X0367974Y0065232D01*
X0367974Y0060232D01*
X0365474Y0057732D01*
X0367974Y0055232D01*
X0367974Y0050232D01*
X0365474Y0047732D01*
X0367974Y0045232D01*
X0367974Y0040232D01*
X0365474Y0037732D01*
X0360474Y0037732D01*
X0357974Y0040232D01*
X0357974Y0045232D01*
X0360474Y0047732D01*
X0357974Y0050232D01*
X0357974Y0055232D01*
X0360474Y0057732D01*
X0365474Y0057732D01*
X0360474Y0057732D02*
X0357974Y0060232D01*
X0357974Y0065232D01*
X0360474Y0067732D01*
X0357974Y0070232D01*
X0357974Y0075232D01*
X0360474Y0067732D02*
X0365474Y0067732D01*
X0365474Y0047732D02*
X0360474Y0047732D01*
X0282108Y0050429D02*
X0282108Y0055429D01*
X0279608Y0057929D01*
X0282108Y0060429D01*
X0282108Y0065429D01*
X0279608Y0067929D01*
X0274608Y0067929D01*
X0272108Y0065429D01*
X0272108Y0060429D01*
X0274608Y0057929D01*
X0279608Y0057929D01*
X0274608Y0057929D02*
X0272108Y0055429D01*
X0272108Y0050429D01*
X0274608Y0047929D01*
X0279608Y0047929D01*
X0282108Y0050429D01*
X0248135Y0018874D02*
X0225135Y0018874D01*
X0225135Y0098874D01*
X0232635Y0098874D01*
X0232637Y0098748D01*
X0232643Y0098623D01*
X0232653Y0098498D01*
X0232667Y0098373D01*
X0232684Y0098248D01*
X0232706Y0098124D01*
X0232731Y0098001D01*
X0232761Y0097879D01*
X0232794Y0097758D01*
X0232831Y0097638D01*
X0232871Y0097519D01*
X0232916Y0097402D01*
X0232964Y0097285D01*
X0233016Y0097171D01*
X0233071Y0097058D01*
X0233130Y0096947D01*
X0233192Y0096838D01*
X0233258Y0096731D01*
X0233327Y0096626D01*
X0233399Y0096523D01*
X0233474Y0096422D01*
X0233553Y0096324D01*
X0233635Y0096229D01*
X0233719Y0096136D01*
X0233807Y0096046D01*
X0233897Y0095958D01*
X0233990Y0095874D01*
X0234085Y0095792D01*
X0234183Y0095713D01*
X0234284Y0095638D01*
X0234387Y0095566D01*
X0234492Y0095497D01*
X0234599Y0095431D01*
X0234708Y0095369D01*
X0234819Y0095310D01*
X0234932Y0095255D01*
X0235046Y0095203D01*
X0235163Y0095155D01*
X0235280Y0095110D01*
X0235399Y0095070D01*
X0235519Y0095033D01*
X0235640Y0095000D01*
X0235762Y0094970D01*
X0235885Y0094945D01*
X0236009Y0094923D01*
X0236134Y0094906D01*
X0236259Y0094892D01*
X0236384Y0094882D01*
X0236509Y0094876D01*
X0236635Y0094874D01*
X0236761Y0094876D01*
X0236886Y0094882D01*
X0237011Y0094892D01*
X0237136Y0094906D01*
X0237261Y0094923D01*
X0237385Y0094945D01*
X0237508Y0094970D01*
X0237630Y0095000D01*
X0237751Y0095033D01*
X0237871Y0095070D01*
X0237990Y0095110D01*
X0238107Y0095155D01*
X0238224Y0095203D01*
X0238338Y0095255D01*
X0238451Y0095310D01*
X0238562Y0095369D01*
X0238671Y0095431D01*
X0238778Y0095497D01*
X0238883Y0095566D01*
X0238986Y0095638D01*
X0239087Y0095713D01*
X0239185Y0095792D01*
X0239280Y0095874D01*
X0239373Y0095958D01*
X0239463Y0096046D01*
X0239551Y0096136D01*
X0239635Y0096229D01*
X0239717Y0096324D01*
X0239796Y0096422D01*
X0239871Y0096523D01*
X0239943Y0096626D01*
X0240012Y0096731D01*
X0240078Y0096838D01*
X0240140Y0096947D01*
X0240199Y0097058D01*
X0240254Y0097171D01*
X0240306Y0097285D01*
X0240354Y0097402D01*
X0240399Y0097519D01*
X0240439Y0097638D01*
X0240476Y0097758D01*
X0240509Y0097879D01*
X0240539Y0098001D01*
X0240564Y0098124D01*
X0240586Y0098248D01*
X0240603Y0098373D01*
X0240617Y0098498D01*
X0240627Y0098623D01*
X0240633Y0098748D01*
X0240635Y0098874D01*
X0248135Y0098874D01*
X0248135Y0018874D01*
X0203210Y0051807D02*
X0200710Y0049307D01*
X0195710Y0049307D01*
X0193210Y0051807D01*
X0193210Y0056807D01*
X0195710Y0059307D01*
X0193210Y0061807D01*
X0193210Y0066807D01*
X0195710Y0069307D01*
X0200710Y0069307D01*
X0203210Y0066807D01*
X0203210Y0061807D01*
X0200710Y0059307D01*
X0203210Y0056807D01*
X0203210Y0051807D01*
X0200710Y0059307D02*
X0195710Y0059307D01*
X0164986Y0021079D02*
X0157486Y0021079D01*
X0157484Y0021205D01*
X0157478Y0021330D01*
X0157468Y0021455D01*
X0157454Y0021580D01*
X0157437Y0021705D01*
X0157415Y0021829D01*
X0157390Y0021952D01*
X0157360Y0022074D01*
X0157327Y0022195D01*
X0157290Y0022315D01*
X0157250Y0022434D01*
X0157205Y0022551D01*
X0157157Y0022668D01*
X0157105Y0022782D01*
X0157050Y0022895D01*
X0156991Y0023006D01*
X0156929Y0023115D01*
X0156863Y0023222D01*
X0156794Y0023327D01*
X0156722Y0023430D01*
X0156647Y0023531D01*
X0156568Y0023629D01*
X0156486Y0023724D01*
X0156402Y0023817D01*
X0156314Y0023907D01*
X0156224Y0023995D01*
X0156131Y0024079D01*
X0156036Y0024161D01*
X0155938Y0024240D01*
X0155837Y0024315D01*
X0155734Y0024387D01*
X0155629Y0024456D01*
X0155522Y0024522D01*
X0155413Y0024584D01*
X0155302Y0024643D01*
X0155189Y0024698D01*
X0155075Y0024750D01*
X0154958Y0024798D01*
X0154841Y0024843D01*
X0154722Y0024883D01*
X0154602Y0024920D01*
X0154481Y0024953D01*
X0154359Y0024983D01*
X0154236Y0025008D01*
X0154112Y0025030D01*
X0153987Y0025047D01*
X0153862Y0025061D01*
X0153737Y0025071D01*
X0153612Y0025077D01*
X0153486Y0025079D01*
X0153360Y0025077D01*
X0153235Y0025071D01*
X0153110Y0025061D01*
X0152985Y0025047D01*
X0152860Y0025030D01*
X0152736Y0025008D01*
X0152613Y0024983D01*
X0152491Y0024953D01*
X0152370Y0024920D01*
X0152250Y0024883D01*
X0152131Y0024843D01*
X0152014Y0024798D01*
X0151897Y0024750D01*
X0151783Y0024698D01*
X0151670Y0024643D01*
X0151559Y0024584D01*
X0151450Y0024522D01*
X0151343Y0024456D01*
X0151238Y0024387D01*
X0151135Y0024315D01*
X0151034Y0024240D01*
X0150936Y0024161D01*
X0150841Y0024079D01*
X0150748Y0023995D01*
X0150658Y0023907D01*
X0150570Y0023817D01*
X0150486Y0023724D01*
X0150404Y0023629D01*
X0150325Y0023531D01*
X0150250Y0023430D01*
X0150178Y0023327D01*
X0150109Y0023222D01*
X0150043Y0023115D01*
X0149981Y0023006D01*
X0149922Y0022895D01*
X0149867Y0022782D01*
X0149815Y0022668D01*
X0149767Y0022551D01*
X0149722Y0022434D01*
X0149682Y0022315D01*
X0149645Y0022195D01*
X0149612Y0022074D01*
X0149582Y0021952D01*
X0149557Y0021829D01*
X0149535Y0021705D01*
X0149518Y0021580D01*
X0149504Y0021455D01*
X0149494Y0021330D01*
X0149488Y0021205D01*
X0149486Y0021079D01*
X0141986Y0021079D01*
X0141986Y0101079D01*
X0164986Y0101079D01*
X0164986Y0021079D01*
X0117698Y0023697D02*
X0117698Y0028697D01*
X0115198Y0031197D01*
X0117698Y0033697D01*
X0117698Y0038697D01*
X0115198Y0041197D01*
X0110198Y0041197D01*
X0107698Y0038697D01*
X0107698Y0033697D01*
X0110198Y0031197D01*
X0115198Y0031197D01*
X0110198Y0031197D02*
X0107698Y0028697D01*
X0107698Y0023697D01*
X0110198Y0021197D01*
X0115198Y0021197D01*
X0117698Y0023697D01*
X0115198Y0041197D02*
X0117698Y0043697D01*
X0117698Y0048697D01*
X0115198Y0051197D01*
X0117698Y0053697D01*
X0117698Y0058697D01*
X0115198Y0061197D01*
X0117698Y0063697D01*
X0117698Y0068697D01*
X0115198Y0071197D01*
X0110198Y0071197D01*
X0107698Y0068697D01*
X0107698Y0063697D01*
X0110198Y0061197D01*
X0115198Y0061197D01*
X0110198Y0061197D02*
X0107698Y0058697D01*
X0107698Y0053697D01*
X0110198Y0051197D01*
X0115198Y0051197D01*
X0110198Y0051197D02*
X0107698Y0048697D01*
X0107698Y0043697D01*
X0110198Y0041197D01*
X0081363Y0026039D02*
X0073863Y0026039D01*
X0073861Y0026165D01*
X0073855Y0026290D01*
X0073845Y0026415D01*
X0073831Y0026540D01*
X0073814Y0026665D01*
X0073792Y0026789D01*
X0073767Y0026912D01*
X0073737Y0027034D01*
X0073704Y0027155D01*
X0073667Y0027275D01*
X0073627Y0027394D01*
X0073582Y0027511D01*
X0073534Y0027628D01*
X0073482Y0027742D01*
X0073427Y0027855D01*
X0073368Y0027966D01*
X0073306Y0028075D01*
X0073240Y0028182D01*
X0073171Y0028287D01*
X0073099Y0028390D01*
X0073024Y0028491D01*
X0072945Y0028589D01*
X0072863Y0028684D01*
X0072779Y0028777D01*
X0072691Y0028867D01*
X0072601Y0028955D01*
X0072508Y0029039D01*
X0072413Y0029121D01*
X0072315Y0029200D01*
X0072214Y0029275D01*
X0072111Y0029347D01*
X0072006Y0029416D01*
X0071899Y0029482D01*
X0071790Y0029544D01*
X0071679Y0029603D01*
X0071566Y0029658D01*
X0071452Y0029710D01*
X0071335Y0029758D01*
X0071218Y0029803D01*
X0071099Y0029843D01*
X0070979Y0029880D01*
X0070858Y0029913D01*
X0070736Y0029943D01*
X0070613Y0029968D01*
X0070489Y0029990D01*
X0070364Y0030007D01*
X0070239Y0030021D01*
X0070114Y0030031D01*
X0069989Y0030037D01*
X0069863Y0030039D01*
X0069737Y0030037D01*
X0069612Y0030031D01*
X0069487Y0030021D01*
X0069362Y0030007D01*
X0069237Y0029990D01*
X0069113Y0029968D01*
X0068990Y0029943D01*
X0068868Y0029913D01*
X0068747Y0029880D01*
X0068627Y0029843D01*
X0068508Y0029803D01*
X0068391Y0029758D01*
X0068274Y0029710D01*
X0068160Y0029658D01*
X0068047Y0029603D01*
X0067936Y0029544D01*
X0067827Y0029482D01*
X0067720Y0029416D01*
X0067615Y0029347D01*
X0067512Y0029275D01*
X0067411Y0029200D01*
X0067313Y0029121D01*
X0067218Y0029039D01*
X0067125Y0028955D01*
X0067035Y0028867D01*
X0066947Y0028777D01*
X0066863Y0028684D01*
X0066781Y0028589D01*
X0066702Y0028491D01*
X0066627Y0028390D01*
X0066555Y0028287D01*
X0066486Y0028182D01*
X0066420Y0028075D01*
X0066358Y0027966D01*
X0066299Y0027855D01*
X0066244Y0027742D01*
X0066192Y0027628D01*
X0066144Y0027511D01*
X0066099Y0027394D01*
X0066059Y0027275D01*
X0066022Y0027155D01*
X0065989Y0027034D01*
X0065959Y0026912D01*
X0065934Y0026789D01*
X0065912Y0026665D01*
X0065895Y0026540D01*
X0065881Y0026415D01*
X0065871Y0026290D01*
X0065865Y0026165D01*
X0065863Y0026039D01*
X0058363Y0026039D01*
X0058363Y0106039D01*
X0081363Y0106039D01*
X0081363Y0026039D01*
X0032777Y0028028D02*
X0032777Y0023028D01*
X0030277Y0020528D01*
X0025277Y0020528D01*
X0022777Y0023028D01*
X0022777Y0028028D01*
X0025277Y0030528D01*
X0022777Y0033028D01*
X0022777Y0038028D01*
X0025277Y0040528D01*
X0030277Y0040528D01*
X0032777Y0038028D01*
X0032777Y0033028D01*
X0030277Y0030528D01*
X0032777Y0028028D01*
X0030277Y0030528D02*
X0025277Y0030528D01*
X0025277Y0040528D02*
X0022777Y0043028D01*
X0022777Y0048028D01*
X0025277Y0050528D01*
X0022777Y0053028D01*
X0022777Y0058028D01*
X0025277Y0060528D01*
X0022777Y0063028D01*
X0022777Y0068028D01*
X0025277Y0070528D01*
X0030277Y0070528D01*
X0032777Y0068028D01*
X0032777Y0063028D01*
X0030277Y0060528D01*
X0032777Y0058028D01*
X0032777Y0053028D01*
X0030277Y0050528D01*
X0032777Y0048028D01*
X0032777Y0043028D01*
X0030277Y0040528D01*
X0030277Y0050528D02*
X0025277Y0050528D01*
X0025277Y0060528D02*
X0030277Y0060528D01*
X0029647Y0124189D02*
X0027147Y0126689D01*
X0024647Y0124189D01*
X0019647Y0124189D01*
X0017147Y0126689D01*
X0017147Y0131689D01*
X0019647Y0134189D01*
X0024647Y0134189D01*
X0027147Y0131689D01*
X0029647Y0134189D01*
X0034647Y0134189D01*
X0037147Y0131689D01*
X0039647Y0134189D01*
X0044647Y0134189D01*
X0047147Y0131689D01*
X0047147Y0126689D01*
X0044647Y0124189D01*
X0039647Y0124189D01*
X0037147Y0126689D01*
X0034647Y0124189D01*
X0029647Y0124189D01*
X0027147Y0126689D02*
X0027147Y0131689D01*
X0037147Y0131689D02*
X0037147Y0126689D01*
X0034647Y0150055D02*
X0029647Y0150055D01*
X0027147Y0152555D01*
X0024647Y0150055D01*
X0019647Y0150055D01*
X0017147Y0152555D01*
X0017147Y0157555D01*
X0019647Y0160055D01*
X0024647Y0160055D01*
X0027147Y0157555D01*
X0029647Y0160055D01*
X0034647Y0160055D01*
X0037147Y0157555D01*
X0039647Y0160055D01*
X0044647Y0160055D01*
X0047147Y0157555D01*
X0047147Y0152555D01*
X0044647Y0150055D01*
X0039647Y0150055D01*
X0037147Y0152555D01*
X0034647Y0150055D01*
X0037147Y0152555D02*
X0037147Y0157555D01*
X0027147Y0157555D02*
X0027147Y0152555D01*
X0024647Y0175685D02*
X0019647Y0175685D01*
X0017147Y0178185D01*
X0017147Y0183185D01*
X0019647Y0185685D01*
X0024647Y0185685D01*
X0027147Y0183185D01*
X0029647Y0185685D01*
X0034647Y0185685D01*
X0037147Y0183185D01*
X0039647Y0185685D01*
X0044647Y0185685D01*
X0047147Y0183185D01*
X0047147Y0178185D01*
X0044647Y0175685D01*
X0039647Y0175685D01*
X0037147Y0178185D01*
X0034647Y0175685D01*
X0029647Y0175685D01*
X0027147Y0178185D01*
X0024647Y0175685D01*
X0027147Y0178185D02*
X0027147Y0183185D01*
X0037147Y0183185D02*
X0037147Y0178185D01*
X0039371Y0200449D02*
X0036871Y0202949D01*
X0034371Y0200449D01*
X0029371Y0200449D01*
X0026871Y0202949D01*
X0024371Y0200449D01*
X0019371Y0200449D01*
X0016871Y0202949D01*
X0016871Y0207949D01*
X0019371Y0210449D01*
X0024371Y0210449D01*
X0026871Y0207949D01*
X0029371Y0210449D01*
X0034371Y0210449D01*
X0036871Y0207949D01*
X0039371Y0210449D01*
X0044371Y0210449D01*
X0046871Y0207949D01*
X0046871Y0202949D01*
X0044371Y0200449D01*
X0039371Y0200449D01*
X0036871Y0202949D02*
X0036871Y0207949D01*
X0026871Y0207949D02*
X0026871Y0202949D01*
X0025198Y0224228D02*
X0020198Y0224228D01*
X0017698Y0226728D01*
X0017698Y0231728D01*
X0020198Y0234228D01*
X0025198Y0234228D01*
X0027698Y0231728D01*
X0030198Y0234228D01*
X0035198Y0234228D01*
X0037698Y0231728D01*
X0040198Y0234228D01*
X0045198Y0234228D01*
X0047698Y0231728D01*
X0047698Y0226728D01*
X0045198Y0224228D01*
X0040198Y0224228D01*
X0037698Y0226728D01*
X0035198Y0224228D01*
X0030198Y0224228D01*
X0027698Y0226728D01*
X0025198Y0224228D01*
X0027698Y0226728D02*
X0027698Y0231728D01*
X0037698Y0231728D02*
X0037698Y0226728D01*
X0125021Y0311965D02*
X0125021Y0316965D01*
D12*
X0124795Y0307018D02*
X0123294Y0307018D01*
X0124044Y0307018D02*
X0124044Y0302515D01*
X0123294Y0302515D02*
X0124795Y0302515D01*
X0126363Y0302515D02*
X0126363Y0307018D01*
X0129366Y0302515D01*
X0129366Y0307018D01*
X0130967Y0306268D02*
X0130967Y0305517D01*
X0131718Y0304766D01*
X0133219Y0304766D01*
X0133969Y0304016D01*
X0133969Y0303265D01*
X0133219Y0302515D01*
X0131718Y0302515D01*
X0130967Y0303265D01*
X0130967Y0306268D02*
X0131718Y0307018D01*
X0133219Y0307018D01*
X0133969Y0306268D01*
X0121692Y0306268D02*
X0121692Y0304766D01*
X0120942Y0304016D01*
X0118690Y0304016D01*
X0118690Y0302515D02*
X0118690Y0307018D01*
X0120942Y0307018D01*
X0121692Y0306268D01*
X0117088Y0301764D02*
X0114086Y0301764D01*
X0110983Y0302515D02*
X0110983Y0304766D01*
X0112484Y0306268D01*
X0112484Y0307018D01*
X0110983Y0304766D02*
X0109482Y0306268D01*
X0109482Y0307018D01*
X0104878Y0307018D02*
X0104878Y0302515D01*
X0107881Y0302515D01*
X0103277Y0304766D02*
X0102526Y0304016D01*
X0100274Y0304016D01*
X0100274Y0302515D02*
X0100274Y0307018D01*
X0102526Y0307018D01*
X0103277Y0306268D01*
X0103277Y0304766D01*
X0098673Y0304766D02*
X0098673Y0306268D01*
X0097922Y0307018D01*
X0095670Y0307018D01*
X0095670Y0302515D01*
X0095670Y0304016D02*
X0097922Y0304016D01*
X0098673Y0304766D01*
X0094069Y0303265D02*
X0094069Y0307018D01*
X0091066Y0307018D02*
X0091066Y0303265D01*
X0091817Y0302515D01*
X0093318Y0302515D01*
X0094069Y0303265D01*
X0089465Y0303265D02*
X0088714Y0302515D01*
X0087213Y0302515D01*
X0086462Y0303265D01*
X0087213Y0304766D02*
X0086462Y0305517D01*
X0086462Y0306268D01*
X0087213Y0307018D01*
X0088714Y0307018D01*
X0089465Y0306268D01*
X0088714Y0304766D02*
X0089465Y0304016D01*
X0089465Y0303265D01*
X0088714Y0304766D02*
X0087213Y0304766D01*
X0084861Y0301764D02*
X0081858Y0301764D01*
X0080257Y0302515D02*
X0078756Y0304016D01*
X0079506Y0304016D02*
X0077254Y0304016D01*
X0077254Y0302515D02*
X0077254Y0307018D01*
X0079506Y0307018D01*
X0080257Y0306268D01*
X0080257Y0304766D01*
X0079506Y0304016D01*
X0075653Y0302515D02*
X0072650Y0302515D01*
X0072650Y0307018D01*
X0075653Y0307018D01*
X0074152Y0304766D02*
X0072650Y0304766D01*
X0071049Y0302515D02*
X0071049Y0307018D01*
X0068047Y0307018D02*
X0068047Y0302515D01*
X0069548Y0304016D01*
X0071049Y0302515D01*
X0066445Y0303265D02*
X0066445Y0306268D01*
X0065695Y0307018D01*
X0064193Y0307018D01*
X0063443Y0306268D01*
X0063443Y0303265D01*
X0064193Y0302515D01*
X0065695Y0302515D01*
X0066445Y0303265D01*
X0061841Y0304766D02*
X0061091Y0304016D01*
X0058839Y0304016D01*
X0058839Y0302515D02*
X0058839Y0307018D01*
X0061091Y0307018D01*
X0061841Y0306268D01*
X0061841Y0304766D01*
X0034963Y0303937D02*
X0030459Y0303937D01*
X0032711Y0305538D02*
X0032711Y0308541D01*
X0030459Y0310142D02*
X0034963Y0310142D01*
X0034963Y0313145D01*
X0034963Y0314746D02*
X0034963Y0316998D01*
X0034212Y0317749D01*
X0031210Y0317749D01*
X0030459Y0316998D01*
X0030459Y0314746D01*
X0034963Y0314746D01*
X0035239Y0317946D02*
X0030735Y0317946D01*
X0030735Y0320198D01*
X0031485Y0320949D01*
X0032987Y0320949D01*
X0033737Y0320198D01*
X0033737Y0317946D01*
X0033462Y0319350D02*
X0033462Y0321602D01*
X0032711Y0322353D01*
X0031210Y0322353D01*
X0030459Y0321602D01*
X0030459Y0319350D01*
X0034963Y0319350D01*
X0033462Y0320851D02*
X0034963Y0322353D01*
X0035239Y0322550D02*
X0035239Y0324051D01*
X0034963Y0324705D02*
X0034212Y0323954D01*
X0034963Y0324705D02*
X0034963Y0326206D01*
X0034212Y0326956D01*
X0033462Y0326956D01*
X0032711Y0326206D01*
X0032711Y0325455D01*
X0032711Y0326206D02*
X0031961Y0326956D01*
X0031210Y0326956D01*
X0030459Y0326206D01*
X0030459Y0324705D01*
X0031210Y0323954D01*
X0030735Y0324051D02*
X0030735Y0322550D01*
X0030735Y0323301D02*
X0035239Y0323301D01*
X0035239Y0325619D02*
X0030735Y0325619D01*
X0035239Y0328622D01*
X0030735Y0328622D01*
X0032987Y0330223D02*
X0032987Y0333226D01*
X0030735Y0334827D02*
X0035239Y0334827D01*
X0035239Y0337830D01*
X0035239Y0339431D02*
X0035239Y0341683D01*
X0034488Y0342434D01*
X0031485Y0342434D01*
X0030735Y0341683D01*
X0030735Y0339431D01*
X0035239Y0339431D01*
X0035514Y0343970D02*
X0031010Y0343970D01*
X0031010Y0346222D01*
X0031761Y0346972D01*
X0033262Y0346972D01*
X0034013Y0346222D01*
X0034013Y0343970D01*
X0033737Y0344035D02*
X0033737Y0346287D01*
X0032987Y0347038D01*
X0031485Y0347038D01*
X0030735Y0346287D01*
X0030735Y0344035D01*
X0035239Y0344035D01*
X0033737Y0345536D02*
X0035239Y0347038D01*
X0035514Y0348574D02*
X0035514Y0350075D01*
X0035514Y0349324D02*
X0031010Y0349324D01*
X0031010Y0348574D02*
X0031010Y0350075D01*
X0030735Y0350891D02*
X0032987Y0348639D01*
X0032987Y0351641D01*
X0031010Y0351643D02*
X0035514Y0354645D01*
X0031010Y0354645D01*
X0033262Y0356247D02*
X0033262Y0359249D01*
X0031010Y0360851D02*
X0035514Y0360851D01*
X0035514Y0363853D01*
X0035514Y0365455D02*
X0031010Y0365455D01*
X0031010Y0367707D01*
X0031761Y0368457D01*
X0034764Y0368457D01*
X0035514Y0367707D01*
X0035514Y0365455D01*
X0035514Y0370059D02*
X0031010Y0370059D01*
X0031010Y0372311D01*
X0031761Y0373061D01*
X0033262Y0373061D01*
X0034013Y0372311D01*
X0034013Y0370059D01*
X0034013Y0371560D02*
X0035514Y0373061D01*
X0034764Y0374663D02*
X0035514Y0375413D01*
X0035514Y0376914D01*
X0034764Y0377665D01*
X0033262Y0377665D01*
X0032512Y0376914D01*
X0032512Y0376164D01*
X0033262Y0374663D01*
X0031010Y0374663D01*
X0031010Y0377665D01*
X0031010Y0351643D02*
X0035514Y0351643D01*
X0035239Y0350891D02*
X0030735Y0350891D01*
X0034963Y0303937D02*
X0030459Y0300934D01*
X0034963Y0300934D01*
X0034963Y0299791D02*
X0034963Y0296789D01*
X0031961Y0299791D01*
X0031210Y0299791D01*
X0030459Y0299040D01*
X0030459Y0297539D01*
X0031210Y0296789D01*
X0031210Y0296264D02*
X0032711Y0296264D01*
X0033462Y0295513D01*
X0033462Y0293261D01*
X0033462Y0293686D02*
X0034963Y0295187D01*
X0033462Y0294437D02*
X0033462Y0292185D01*
X0034963Y0292185D02*
X0030459Y0292185D01*
X0030459Y0294437D01*
X0031210Y0295187D01*
X0032711Y0295187D01*
X0033462Y0294437D01*
X0034963Y0293261D02*
X0030459Y0293261D01*
X0030459Y0295513D01*
X0031210Y0296264D01*
X0030459Y0297865D02*
X0030459Y0299366D01*
X0030459Y0298616D02*
X0034963Y0298616D01*
X0034963Y0299366D02*
X0034963Y0297865D01*
X0034212Y0290583D02*
X0031210Y0290583D01*
X0030459Y0289833D01*
X0030459Y0287581D01*
X0034963Y0287581D01*
X0034963Y0289833D01*
X0034212Y0290583D01*
X0034963Y0285979D02*
X0034963Y0282977D01*
X0030459Y0282977D01*
X0032711Y0281375D02*
X0032711Y0278373D01*
X0034963Y0276771D02*
X0030459Y0276771D01*
X0030459Y0273769D02*
X0034963Y0276771D01*
X0034963Y0273769D02*
X0030459Y0273769D01*
X0030459Y0272201D02*
X0030459Y0270700D01*
X0030459Y0271450D02*
X0034963Y0271450D01*
X0034963Y0270700D02*
X0034963Y0272201D01*
X0034688Y0269634D02*
X0034688Y0266631D01*
X0034963Y0266096D02*
X0030459Y0266096D01*
X0030459Y0268348D01*
X0031210Y0269098D01*
X0032711Y0269098D01*
X0033462Y0268348D01*
X0033462Y0266096D01*
X0032436Y0265030D02*
X0033186Y0264279D01*
X0033186Y0262027D01*
X0033186Y0263528D02*
X0034688Y0265030D01*
X0032436Y0265030D02*
X0030934Y0265030D01*
X0030184Y0264279D01*
X0030184Y0262027D01*
X0034688Y0262027D01*
X0033937Y0260426D02*
X0030934Y0260426D01*
X0030184Y0259675D01*
X0030184Y0257423D01*
X0034688Y0257423D01*
X0034688Y0259675D01*
X0033937Y0260426D01*
X0034688Y0255822D02*
X0034688Y0252819D01*
X0030184Y0252819D01*
X0032436Y0251218D02*
X0032436Y0248215D01*
X0034688Y0246614D02*
X0030184Y0246614D01*
X0030184Y0243611D02*
X0034688Y0246614D01*
X0034688Y0243611D02*
X0030184Y0243611D01*
X0030184Y0242043D02*
X0030184Y0240542D01*
X0030184Y0241293D02*
X0034688Y0241293D01*
X0034688Y0242043D02*
X0034688Y0240542D01*
X0032436Y0238941D02*
X0033186Y0238190D01*
X0033186Y0235938D01*
X0034688Y0235938D02*
X0030184Y0235938D01*
X0030184Y0238190D01*
X0030934Y0238941D01*
X0032436Y0238941D01*
X0032084Y0221782D02*
X0030583Y0221782D01*
X0029832Y0221032D01*
X0029832Y0220281D01*
X0030583Y0219530D01*
X0032084Y0219530D01*
X0032835Y0218780D01*
X0032835Y0218029D01*
X0032084Y0217278D01*
X0030583Y0217278D01*
X0029832Y0218029D01*
X0028231Y0217278D02*
X0028231Y0220281D01*
X0026730Y0221782D01*
X0025228Y0220281D01*
X0025228Y0217278D01*
X0023627Y0217278D02*
X0020624Y0217278D01*
X0020624Y0221782D01*
X0019023Y0219530D02*
X0016021Y0219530D01*
X0014419Y0217278D02*
X0014419Y0221782D01*
X0011417Y0221782D02*
X0011417Y0217278D01*
X0009849Y0217278D02*
X0008347Y0217278D01*
X0009098Y0217278D02*
X0009098Y0221782D01*
X0008347Y0221782D02*
X0009849Y0221782D01*
X0011417Y0221782D02*
X0014419Y0217278D01*
X0006746Y0219530D02*
X0005995Y0218780D01*
X0003743Y0218780D01*
X0003743Y0217278D02*
X0003743Y0221782D01*
X0005995Y0221782D01*
X0006746Y0221032D01*
X0006746Y0219530D01*
X0025228Y0219530D02*
X0028231Y0219530D01*
X0032084Y0221782D02*
X0032835Y0221032D01*
X0034436Y0221782D02*
X0034436Y0217278D01*
X0037439Y0217278D01*
X0039040Y0217278D02*
X0039040Y0221782D01*
X0041292Y0221782D01*
X0042043Y0221032D01*
X0042043Y0219530D01*
X0041292Y0218780D01*
X0039040Y0218780D01*
X0040541Y0218780D02*
X0042043Y0217278D01*
X0043644Y0218029D02*
X0044395Y0217278D01*
X0045896Y0217278D01*
X0046647Y0218029D01*
X0046647Y0219530D01*
X0045896Y0220281D01*
X0045145Y0220281D01*
X0043644Y0219530D01*
X0043644Y0221782D01*
X0046647Y0221782D01*
X0037439Y0221782D02*
X0034436Y0221782D01*
X0034436Y0219530D02*
X0035938Y0219530D01*
X0036612Y0198003D02*
X0033609Y0198003D01*
X0033609Y0193499D01*
X0036612Y0193499D01*
X0038213Y0193499D02*
X0038213Y0198003D01*
X0040465Y0198003D01*
X0041216Y0197252D01*
X0041216Y0195751D01*
X0040465Y0195000D01*
X0038213Y0195000D01*
X0039715Y0195000D02*
X0041216Y0193499D01*
X0042817Y0193499D02*
X0045820Y0193499D01*
X0044319Y0193499D02*
X0044319Y0198003D01*
X0042817Y0196501D01*
X0035111Y0195751D02*
X0033609Y0195751D01*
X0032008Y0195000D02*
X0032008Y0194249D01*
X0031257Y0193499D01*
X0029756Y0193499D01*
X0029006Y0194249D01*
X0029756Y0195751D02*
X0031257Y0195751D01*
X0032008Y0195000D01*
X0032008Y0197252D02*
X0031257Y0198003D01*
X0029756Y0198003D01*
X0029006Y0197252D01*
X0029006Y0196501D01*
X0029756Y0195751D01*
X0027404Y0195751D02*
X0024402Y0195751D01*
X0024402Y0196501D02*
X0025903Y0198003D01*
X0027404Y0196501D01*
X0027404Y0193499D01*
X0024402Y0193499D02*
X0024402Y0196501D01*
X0022800Y0193499D02*
X0019798Y0193499D01*
X0019798Y0198003D01*
X0018196Y0195751D02*
X0015194Y0195751D01*
X0013592Y0193499D02*
X0013592Y0198003D01*
X0010590Y0198003D02*
X0010590Y0193499D01*
X0009022Y0193499D02*
X0007521Y0193499D01*
X0008271Y0193499D02*
X0008271Y0198003D01*
X0007521Y0198003D02*
X0009022Y0198003D01*
X0010590Y0198003D02*
X0013592Y0193499D01*
X0005919Y0195751D02*
X0005169Y0195000D01*
X0002917Y0195000D01*
X0002917Y0193499D02*
X0002917Y0198003D01*
X0005169Y0198003D01*
X0005919Y0197252D01*
X0005919Y0195751D01*
X0005444Y0173239D02*
X0003192Y0173239D01*
X0003192Y0168735D01*
X0003192Y0170236D02*
X0005444Y0170236D01*
X0006195Y0170987D01*
X0006195Y0172488D01*
X0005444Y0173239D01*
X0007796Y0173239D02*
X0009297Y0173239D01*
X0008547Y0173239D02*
X0008547Y0168735D01*
X0009297Y0168735D02*
X0007796Y0168735D01*
X0010865Y0168735D02*
X0010865Y0173239D01*
X0013868Y0168735D01*
X0013868Y0173239D01*
X0015469Y0170987D02*
X0018472Y0170987D01*
X0020073Y0173239D02*
X0020073Y0168735D01*
X0023076Y0168735D01*
X0024677Y0168735D02*
X0024677Y0171738D01*
X0026179Y0173239D01*
X0027680Y0171738D01*
X0027680Y0168735D01*
X0029281Y0169486D02*
X0030032Y0168735D01*
X0031533Y0168735D01*
X0032284Y0169486D01*
X0032284Y0170236D01*
X0031533Y0170987D01*
X0030032Y0170987D01*
X0029281Y0171738D01*
X0029281Y0172488D01*
X0030032Y0173239D01*
X0031533Y0173239D01*
X0032284Y0172488D01*
X0033885Y0173239D02*
X0033885Y0168735D01*
X0036888Y0168735D01*
X0038489Y0168735D02*
X0038489Y0173239D01*
X0040741Y0173239D01*
X0041492Y0172488D01*
X0041492Y0170987D01*
X0040741Y0170236D01*
X0038489Y0170236D01*
X0039990Y0170236D02*
X0041492Y0168735D01*
X0043093Y0169486D02*
X0043844Y0168735D01*
X0045345Y0168735D01*
X0046095Y0169486D01*
X0046095Y0170236D01*
X0045345Y0170987D01*
X0044594Y0170987D01*
X0045345Y0170987D02*
X0046095Y0171738D01*
X0046095Y0172488D01*
X0045345Y0173239D01*
X0043844Y0173239D01*
X0043093Y0172488D01*
X0036888Y0173239D02*
X0033885Y0173239D01*
X0033885Y0170987D02*
X0035386Y0170987D01*
X0027680Y0170987D02*
X0024677Y0170987D01*
X0026179Y0147609D02*
X0027680Y0146108D01*
X0027680Y0143105D01*
X0029281Y0143856D02*
X0030032Y0143105D01*
X0031533Y0143105D01*
X0032284Y0143856D01*
X0032284Y0144606D01*
X0031533Y0145357D01*
X0030032Y0145357D01*
X0029281Y0146108D01*
X0029281Y0146858D01*
X0030032Y0147609D01*
X0031533Y0147609D01*
X0032284Y0146858D01*
X0033885Y0147609D02*
X0033885Y0143105D01*
X0036888Y0143105D01*
X0038489Y0143105D02*
X0038489Y0147609D01*
X0040741Y0147609D01*
X0041492Y0146858D01*
X0041492Y0145357D01*
X0040741Y0144606D01*
X0038489Y0144606D01*
X0039990Y0144606D02*
X0041492Y0143105D01*
X0043093Y0143105D02*
X0046095Y0146108D01*
X0046095Y0146858D01*
X0045345Y0147609D01*
X0043844Y0147609D01*
X0043093Y0146858D01*
X0043093Y0143105D02*
X0046095Y0143105D01*
X0036888Y0147609D02*
X0033885Y0147609D01*
X0033885Y0145357D02*
X0035386Y0145357D01*
X0027680Y0145357D02*
X0024677Y0145357D01*
X0024677Y0146108D02*
X0026179Y0147609D01*
X0024677Y0146108D02*
X0024677Y0143105D01*
X0023076Y0143105D02*
X0020073Y0143105D01*
X0020073Y0147609D01*
X0018472Y0145357D02*
X0015469Y0145357D01*
X0013868Y0143105D02*
X0013868Y0147609D01*
X0010865Y0147609D02*
X0010865Y0143105D01*
X0009297Y0143105D02*
X0007796Y0143105D01*
X0008547Y0143105D02*
X0008547Y0147609D01*
X0009297Y0147609D02*
X0007796Y0147609D01*
X0006195Y0146858D02*
X0006195Y0145357D01*
X0005444Y0144606D01*
X0003192Y0144606D01*
X0003192Y0143105D02*
X0003192Y0147609D01*
X0005444Y0147609D01*
X0006195Y0146858D01*
X0010865Y0147609D02*
X0013868Y0143105D01*
X0013868Y0121743D02*
X0013868Y0117239D01*
X0010865Y0121743D01*
X0010865Y0117239D01*
X0009297Y0117239D02*
X0007796Y0117239D01*
X0008547Y0117239D02*
X0008547Y0121743D01*
X0009297Y0121743D02*
X0007796Y0121743D01*
X0006195Y0120992D02*
X0006195Y0119491D01*
X0005444Y0118740D01*
X0003192Y0118740D01*
X0003192Y0117239D02*
X0003192Y0121743D01*
X0005444Y0121743D01*
X0006195Y0120992D01*
X0015469Y0119491D02*
X0018472Y0119491D01*
X0020073Y0121743D02*
X0020073Y0117239D01*
X0023076Y0117239D01*
X0024677Y0117239D02*
X0024677Y0120242D01*
X0026179Y0121743D01*
X0027680Y0120242D01*
X0027680Y0117239D01*
X0029281Y0117990D02*
X0030032Y0117239D01*
X0031533Y0117239D01*
X0032284Y0117990D01*
X0032284Y0118740D01*
X0031533Y0119491D01*
X0030032Y0119491D01*
X0029281Y0120242D01*
X0029281Y0120992D01*
X0030032Y0121743D01*
X0031533Y0121743D01*
X0032284Y0120992D01*
X0033885Y0121743D02*
X0033885Y0117239D01*
X0036888Y0117239D01*
X0038489Y0117239D02*
X0038489Y0121743D01*
X0040741Y0121743D01*
X0041492Y0120992D01*
X0041492Y0119491D01*
X0040741Y0118740D01*
X0038489Y0118740D01*
X0039990Y0118740D02*
X0041492Y0117239D01*
X0043093Y0119491D02*
X0046095Y0119491D01*
X0045345Y0117239D02*
X0045345Y0121743D01*
X0043093Y0119491D01*
X0036888Y0121743D02*
X0033885Y0121743D01*
X0033885Y0119491D02*
X0035386Y0119491D01*
X0027680Y0119491D02*
X0024677Y0119491D01*
X0094745Y0137260D02*
X0094745Y0282142D01*
X0311281Y0282142D01*
X0311281Y0137457D01*
X0094745Y0137260D01*
X0101495Y0045634D02*
X0100744Y0044884D01*
X0100744Y0043382D01*
X0101495Y0042632D01*
X0100744Y0041030D02*
X0105248Y0041030D01*
X0105248Y0042632D02*
X0102246Y0045634D01*
X0101495Y0045634D01*
X0105248Y0045634D02*
X0105248Y0042632D01*
X0102246Y0039529D02*
X0100744Y0041030D01*
X0102246Y0039529D02*
X0100744Y0038028D01*
X0105248Y0038028D01*
X0102996Y0036427D02*
X0102996Y0033424D01*
X0105248Y0031823D02*
X0100744Y0031823D01*
X0100744Y0028820D02*
X0105248Y0031823D01*
X0105248Y0028820D02*
X0100744Y0028820D01*
X0100744Y0027252D02*
X0100744Y0025751D01*
X0100744Y0026501D02*
X0105248Y0026501D01*
X0105248Y0025751D02*
X0105248Y0027252D01*
X0102996Y0024149D02*
X0103747Y0023399D01*
X0103747Y0021147D01*
X0105248Y0021147D02*
X0100744Y0021147D01*
X0100744Y0023399D01*
X0101495Y0024149D01*
X0102996Y0024149D01*
X0080012Y0019789D02*
X0077010Y0019789D01*
X0078511Y0019789D02*
X0078511Y0024293D01*
X0077010Y0022792D01*
X0075408Y0024293D02*
X0075408Y0019789D01*
X0072406Y0019789D02*
X0072406Y0024293D01*
X0073907Y0022792D01*
X0075408Y0024293D01*
X0070804Y0022041D02*
X0067802Y0022041D01*
X0066234Y0019789D02*
X0064732Y0019789D01*
X0065483Y0019789D02*
X0065483Y0024293D01*
X0064732Y0024293D02*
X0066234Y0024293D01*
X0063131Y0023543D02*
X0062380Y0024293D01*
X0060879Y0024293D01*
X0060128Y0023543D01*
X0060128Y0020540D01*
X0060879Y0019789D01*
X0062380Y0019789D01*
X0063131Y0020540D01*
X0020327Y0020478D02*
X0015823Y0020478D01*
X0015823Y0022729D01*
X0016574Y0023480D01*
X0018075Y0023480D01*
X0018826Y0022729D01*
X0018826Y0020478D01*
X0020327Y0025081D02*
X0020327Y0026583D01*
X0020327Y0025832D02*
X0015823Y0025832D01*
X0015823Y0025081D02*
X0015823Y0026583D01*
X0015823Y0028151D02*
X0020327Y0031153D01*
X0015823Y0031153D01*
X0018075Y0032755D02*
X0018075Y0035757D01*
X0020327Y0037359D02*
X0015823Y0037359D01*
X0017324Y0038860D01*
X0015823Y0040361D01*
X0020327Y0040361D01*
X0020327Y0041963D02*
X0020327Y0044965D01*
X0020327Y0043464D02*
X0015823Y0043464D01*
X0017324Y0041963D01*
X0015823Y0028151D02*
X0020327Y0028151D01*
X0143751Y0018582D02*
X0143751Y0015579D01*
X0144501Y0014829D01*
X0146002Y0014829D01*
X0146753Y0015579D01*
X0148354Y0014829D02*
X0149856Y0014829D01*
X0149105Y0014829D02*
X0149105Y0019333D01*
X0148354Y0019333D02*
X0149856Y0019333D01*
X0151424Y0017081D02*
X0154426Y0017081D01*
X0156028Y0019333D02*
X0157529Y0017831D01*
X0159030Y0019333D01*
X0159030Y0014829D01*
X0160632Y0014829D02*
X0163634Y0017831D01*
X0163634Y0018582D01*
X0162883Y0019333D01*
X0161382Y0019333D01*
X0160632Y0018582D01*
X0160632Y0014829D02*
X0163634Y0014829D01*
X0156028Y0014829D02*
X0156028Y0019333D01*
X0146753Y0018582D02*
X0146002Y0019333D01*
X0144501Y0019333D01*
X0143751Y0018582D01*
X0205656Y0039164D02*
X0205656Y0041416D01*
X0206407Y0042167D01*
X0207908Y0042167D01*
X0208659Y0041416D01*
X0208659Y0039164D01*
X0210160Y0039164D02*
X0205656Y0039164D01*
X0205656Y0043768D02*
X0205656Y0045269D01*
X0205656Y0044519D02*
X0210160Y0044519D01*
X0210160Y0045269D02*
X0210160Y0043768D01*
X0210160Y0046837D02*
X0205656Y0046837D01*
X0210160Y0049840D01*
X0205656Y0049840D01*
X0207908Y0051441D02*
X0207908Y0054444D01*
X0207908Y0056045D02*
X0207908Y0059048D01*
X0207157Y0059048D02*
X0210160Y0059048D01*
X0207157Y0059048D02*
X0205656Y0057547D01*
X0207157Y0056045D01*
X0210160Y0056045D01*
X0210160Y0062150D02*
X0205656Y0062150D01*
X0205656Y0060649D02*
X0205656Y0063652D01*
X0207157Y0065253D02*
X0205656Y0066754D01*
X0210160Y0066754D01*
X0210160Y0065253D02*
X0210160Y0068256D01*
X0226136Y0100624D02*
X0227637Y0100624D01*
X0228388Y0101375D01*
X0229989Y0100624D02*
X0231490Y0100624D01*
X0230740Y0100624D02*
X0230740Y0105128D01*
X0231490Y0105128D02*
X0229989Y0105128D01*
X0228388Y0104377D02*
X0227637Y0105128D01*
X0226136Y0105128D01*
X0225385Y0104377D01*
X0225385Y0101375D01*
X0226136Y0100624D01*
X0233058Y0102876D02*
X0236061Y0102876D01*
X0237662Y0102876D02*
X0240665Y0102876D01*
X0240665Y0103627D02*
X0240665Y0100624D01*
X0240665Y0103627D02*
X0239164Y0105128D01*
X0237662Y0103627D01*
X0237662Y0100624D01*
X0243767Y0100624D02*
X0243767Y0105128D01*
X0242266Y0105128D02*
X0245269Y0105128D01*
X0246870Y0103627D02*
X0248371Y0105128D01*
X0248371Y0100624D01*
X0246870Y0100624D02*
X0249873Y0100624D01*
X0251474Y0102876D02*
X0254477Y0102876D01*
X0256078Y0102876D02*
X0259081Y0102876D01*
X0259081Y0103627D02*
X0259081Y0100624D01*
X0259081Y0103627D02*
X0257579Y0105128D01*
X0256078Y0103627D01*
X0256078Y0100624D01*
X0262183Y0100624D02*
X0262183Y0105128D01*
X0260682Y0105128D02*
X0263684Y0105128D01*
X0265286Y0104377D02*
X0266036Y0105128D01*
X0267538Y0105128D01*
X0268288Y0104377D01*
X0268288Y0103627D01*
X0265286Y0100624D01*
X0268288Y0100624D01*
X0269658Y0076971D02*
X0269658Y0073968D01*
X0266655Y0076971D01*
X0265904Y0076971D01*
X0265154Y0076220D01*
X0265154Y0074719D01*
X0265904Y0073968D01*
X0265154Y0072367D02*
X0265154Y0069364D01*
X0265154Y0070865D02*
X0269658Y0070865D01*
X0269658Y0067763D02*
X0266655Y0067763D01*
X0265154Y0066261D01*
X0266655Y0064760D01*
X0269658Y0064760D01*
X0267406Y0064760D02*
X0267406Y0067763D01*
X0267406Y0063159D02*
X0267406Y0060156D01*
X0269658Y0058555D02*
X0265154Y0058555D01*
X0265154Y0055552D02*
X0269658Y0058555D01*
X0269658Y0055552D02*
X0265154Y0055552D01*
X0265154Y0053984D02*
X0265154Y0052483D01*
X0265154Y0053234D02*
X0269658Y0053234D01*
X0269658Y0053984D02*
X0269658Y0052483D01*
X0267406Y0050882D02*
X0268156Y0050131D01*
X0268156Y0047879D01*
X0269658Y0047879D02*
X0265154Y0047879D01*
X0265154Y0050131D01*
X0265904Y0050882D01*
X0267406Y0050882D01*
X0308655Y0099285D02*
X0310157Y0099285D01*
X0310907Y0100036D01*
X0312509Y0099285D02*
X0314010Y0099285D01*
X0313259Y0099285D02*
X0313259Y0103789D01*
X0312509Y0103789D02*
X0314010Y0103789D01*
X0315578Y0101537D02*
X0318581Y0101537D01*
X0320182Y0101537D02*
X0323185Y0101537D01*
X0323185Y0102288D02*
X0323185Y0099285D01*
X0323185Y0102288D02*
X0321683Y0103789D01*
X0320182Y0102288D01*
X0320182Y0099285D01*
X0326287Y0099285D02*
X0326287Y0103789D01*
X0324786Y0103789D02*
X0327788Y0103789D01*
X0329390Y0103039D02*
X0330140Y0103789D01*
X0331642Y0103789D01*
X0332392Y0103039D01*
X0332392Y0102288D01*
X0331642Y0101537D01*
X0332392Y0100787D01*
X0332392Y0100036D01*
X0331642Y0099285D01*
X0330140Y0099285D01*
X0329390Y0100036D01*
X0330891Y0101537D02*
X0331642Y0101537D01*
X0310907Y0103039D02*
X0310157Y0103789D01*
X0308655Y0103789D01*
X0307905Y0103039D01*
X0307905Y0100036D01*
X0308655Y0099285D01*
X0351020Y0066023D02*
X0351771Y0066774D01*
X0352521Y0066774D01*
X0353272Y0066023D01*
X0354022Y0066774D01*
X0354773Y0066774D01*
X0355524Y0066023D01*
X0355524Y0064522D01*
X0354773Y0063771D01*
X0353272Y0065272D02*
X0353272Y0066023D01*
X0351020Y0066023D02*
X0351020Y0064522D01*
X0351771Y0063771D01*
X0351020Y0062170D02*
X0351020Y0059167D01*
X0351020Y0060669D02*
X0355524Y0060669D01*
X0355524Y0057566D02*
X0352521Y0057566D01*
X0351020Y0056065D01*
X0352521Y0054563D01*
X0355524Y0054563D01*
X0353272Y0054563D02*
X0353272Y0057566D01*
X0353272Y0052962D02*
X0353272Y0049959D01*
X0355524Y0048358D02*
X0351020Y0045355D01*
X0355524Y0045355D01*
X0355524Y0043787D02*
X0355524Y0042286D01*
X0355524Y0043037D02*
X0351020Y0043037D01*
X0351020Y0043787D02*
X0351020Y0042286D01*
X0351771Y0040685D02*
X0351020Y0039934D01*
X0351020Y0037682D01*
X0355524Y0037682D01*
X0354022Y0037682D02*
X0354022Y0039934D01*
X0353272Y0040685D01*
X0351771Y0040685D01*
X0351020Y0048358D02*
X0355524Y0048358D01*
X0382782Y0069074D02*
X0382782Y0071326D01*
X0383533Y0072076D01*
X0385034Y0072076D01*
X0385785Y0071326D01*
X0385785Y0069074D01*
X0387286Y0069074D02*
X0382782Y0069074D01*
X0382782Y0073678D02*
X0382782Y0075179D01*
X0382782Y0074428D02*
X0387286Y0074428D01*
X0387286Y0073678D02*
X0387286Y0075179D01*
X0387286Y0076747D02*
X0382782Y0076747D01*
X0387286Y0079749D01*
X0382782Y0079749D01*
X0385034Y0081351D02*
X0385034Y0084353D01*
X0384283Y0085955D02*
X0385034Y0086705D01*
X0385034Y0088207D01*
X0385785Y0088957D01*
X0386535Y0088957D01*
X0387286Y0088207D01*
X0387286Y0086705D01*
X0386535Y0085955D01*
X0384283Y0085955D02*
X0383533Y0085955D01*
X0382782Y0086705D01*
X0382782Y0088207D01*
X0383533Y0088957D01*
X0384283Y0090559D02*
X0382782Y0092060D01*
X0387286Y0092060D01*
X0387286Y0090559D02*
X0387286Y0093561D01*
X0385034Y0095163D02*
X0385034Y0098165D01*
X0386535Y0099766D02*
X0382782Y0099766D01*
X0382782Y0102769D02*
X0386535Y0102769D01*
X0387286Y0102018D01*
X0387286Y0100517D01*
X0386535Y0099766D01*
X0387286Y0104370D02*
X0382782Y0104370D01*
X0387286Y0104370D02*
X0387286Y0107373D01*
X0387286Y0110476D02*
X0382782Y0110476D01*
X0382782Y0111977D02*
X0382782Y0108974D01*
X0382782Y0113578D02*
X0382782Y0115830D01*
X0383533Y0116581D01*
X0385034Y0116581D01*
X0385785Y0115830D01*
X0385785Y0113578D01*
X0387286Y0113578D02*
X0382782Y0113578D01*
X0385785Y0115080D02*
X0387286Y0116581D01*
X0387286Y0118182D02*
X0384283Y0118182D01*
X0382782Y0119683D01*
X0384283Y0121185D01*
X0387286Y0121185D01*
X0386535Y0122786D02*
X0387286Y0123537D01*
X0387286Y0125038D01*
X0386535Y0125789D01*
X0385785Y0125789D01*
X0385034Y0125038D01*
X0385034Y0123537D01*
X0384283Y0122786D01*
X0383533Y0122786D01*
X0382782Y0123537D01*
X0382782Y0125038D01*
X0383533Y0125789D01*
X0383533Y0127390D02*
X0384283Y0127390D01*
X0385034Y0128141D01*
X0385034Y0129642D01*
X0385785Y0130393D01*
X0386535Y0130393D01*
X0387286Y0129642D01*
X0387286Y0128141D01*
X0386535Y0127390D01*
X0383533Y0127390D02*
X0382782Y0128141D01*
X0382782Y0129642D01*
X0383533Y0130393D01*
X0383533Y0131994D02*
X0386535Y0131994D01*
X0387286Y0132745D01*
X0387286Y0134246D01*
X0386535Y0134997D01*
X0383533Y0134997D01*
X0382782Y0134246D01*
X0382782Y0132745D01*
X0383533Y0131994D01*
X0382782Y0136598D02*
X0387286Y0139600D01*
X0382782Y0139600D01*
X0382782Y0141202D02*
X0382782Y0142703D01*
X0382782Y0141952D02*
X0387286Y0141952D01*
X0387286Y0141202D02*
X0387286Y0142703D01*
X0386535Y0144271D02*
X0387286Y0145022D01*
X0387286Y0146523D01*
X0386535Y0147274D01*
X0386535Y0148875D02*
X0387286Y0149626D01*
X0387286Y0151127D01*
X0386535Y0151878D01*
X0383533Y0151878D01*
X0382782Y0151127D01*
X0382782Y0149626D01*
X0383533Y0148875D01*
X0386535Y0148875D01*
X0383533Y0147274D02*
X0382782Y0146523D01*
X0382782Y0145022D01*
X0383533Y0144271D01*
X0386535Y0144271D01*
X0387286Y0136598D02*
X0382782Y0136598D01*
X0385034Y0121185D02*
X0385034Y0118182D01*
X0367886Y0162289D02*
X0363382Y0162289D01*
X0363382Y0164541D01*
X0364133Y0165291D01*
X0365634Y0165291D01*
X0366385Y0164541D01*
X0366385Y0162289D01*
X0367886Y0166893D02*
X0367886Y0168394D01*
X0367886Y0167643D02*
X0363382Y0167643D01*
X0363382Y0166893D02*
X0363382Y0168394D01*
X0363382Y0169962D02*
X0367886Y0172964D01*
X0363382Y0172964D01*
X0365634Y0174566D02*
X0365634Y0177568D01*
X0364883Y0179170D02*
X0365634Y0179920D01*
X0365634Y0181422D01*
X0366385Y0182172D01*
X0367135Y0182172D01*
X0367886Y0181422D01*
X0367886Y0179920D01*
X0367135Y0179170D01*
X0364883Y0179170D02*
X0364133Y0179170D01*
X0363382Y0179920D01*
X0363382Y0181422D01*
X0364133Y0182172D01*
X0364133Y0183774D02*
X0363382Y0184524D01*
X0363382Y0186025D01*
X0364133Y0186776D01*
X0364883Y0186776D01*
X0367886Y0183774D01*
X0367886Y0186776D01*
X0365634Y0188377D02*
X0365634Y0191380D01*
X0367135Y0192981D02*
X0367886Y0193732D01*
X0367886Y0195233D01*
X0367135Y0195984D01*
X0367135Y0197585D02*
X0367886Y0198336D01*
X0367886Y0199837D01*
X0367135Y0200588D01*
X0364133Y0200588D01*
X0363382Y0199837D01*
X0363382Y0198336D01*
X0364133Y0197585D01*
X0367135Y0197585D01*
X0364133Y0195984D02*
X0363382Y0195233D01*
X0363382Y0193732D01*
X0364133Y0192981D01*
X0367135Y0192981D01*
X0366385Y0202189D02*
X0366385Y0204441D01*
X0365634Y0205192D01*
X0364133Y0205192D01*
X0363382Y0204441D01*
X0363382Y0202189D01*
X0367886Y0202189D01*
X0366385Y0203691D02*
X0367886Y0205192D01*
X0365634Y0206793D02*
X0365634Y0209796D01*
X0365080Y0211226D02*
X0365831Y0211976D01*
X0365831Y0213478D01*
X0366581Y0214228D01*
X0367332Y0214228D01*
X0368083Y0213478D01*
X0368083Y0211976D01*
X0367332Y0211226D01*
X0367886Y0211397D02*
X0367886Y0214400D01*
X0367886Y0212898D02*
X0363382Y0212898D01*
X0364883Y0211397D01*
X0365080Y0211226D02*
X0364330Y0211226D01*
X0363579Y0211976D01*
X0363579Y0213478D01*
X0364330Y0214228D01*
X0365831Y0215830D02*
X0365831Y0218832D01*
X0366581Y0220433D02*
X0366581Y0222685D01*
X0365831Y0223436D01*
X0364330Y0223436D01*
X0363579Y0222685D01*
X0363579Y0220433D01*
X0368083Y0220433D01*
X0367332Y0225037D02*
X0368083Y0225788D01*
X0368083Y0227289D01*
X0367332Y0228040D01*
X0364330Y0228040D01*
X0363579Y0227289D01*
X0363579Y0225788D01*
X0364330Y0225037D01*
X0367332Y0225037D01*
X0367332Y0229641D02*
X0368083Y0230392D01*
X0368083Y0231893D01*
X0367332Y0232644D01*
X0366581Y0232644D01*
X0365831Y0231893D01*
X0365831Y0230392D01*
X0365080Y0229641D01*
X0364330Y0229641D01*
X0363579Y0230392D01*
X0363579Y0231893D01*
X0364330Y0232644D01*
X0363579Y0234245D02*
X0363579Y0235746D01*
X0363579Y0234996D02*
X0368083Y0234996D01*
X0368083Y0235746D02*
X0368083Y0234245D01*
X0367332Y0237314D02*
X0368083Y0238065D01*
X0368083Y0239566D01*
X0367332Y0240317D01*
X0367529Y0241777D02*
X0368280Y0242527D01*
X0368280Y0244029D01*
X0367529Y0244779D01*
X0366778Y0244779D01*
X0366028Y0244029D01*
X0366028Y0242527D01*
X0365277Y0241777D01*
X0364526Y0241777D01*
X0363776Y0242527D01*
X0363776Y0244029D01*
X0364526Y0244779D01*
X0365080Y0244921D02*
X0368083Y0244921D01*
X0367332Y0246522D02*
X0368083Y0247273D01*
X0368083Y0248774D01*
X0367332Y0249525D01*
X0364330Y0249525D01*
X0363579Y0248774D01*
X0363579Y0247273D01*
X0364330Y0246522D01*
X0367332Y0246522D01*
X0366028Y0246381D02*
X0366028Y0249383D01*
X0365831Y0251126D02*
X0365831Y0254129D01*
X0366028Y0253987D02*
X0366778Y0253237D01*
X0366778Y0250985D01*
X0368280Y0250985D02*
X0363776Y0250985D01*
X0363776Y0253237D01*
X0364526Y0253987D01*
X0366028Y0253987D01*
X0366581Y0255730D02*
X0366581Y0257982D01*
X0365831Y0258733D01*
X0364330Y0258733D01*
X0363579Y0257982D01*
X0363579Y0255730D01*
X0368083Y0255730D01*
X0367529Y0255589D02*
X0368280Y0256339D01*
X0368280Y0257840D01*
X0367529Y0258591D01*
X0364526Y0258591D01*
X0363776Y0257840D01*
X0363776Y0256339D01*
X0364526Y0255589D01*
X0367529Y0255589D01*
X0366581Y0257231D02*
X0368083Y0258733D01*
X0367529Y0260192D02*
X0368280Y0260943D01*
X0368280Y0262444D01*
X0367529Y0263195D01*
X0366778Y0263195D01*
X0366028Y0262444D01*
X0366028Y0260943D01*
X0365277Y0260192D01*
X0364526Y0260192D01*
X0363776Y0260943D01*
X0363776Y0262444D01*
X0364526Y0263195D01*
X0363579Y0263337D02*
X0363579Y0260334D01*
X0368083Y0260334D01*
X0368083Y0263337D01*
X0368280Y0264796D02*
X0368280Y0266298D01*
X0368083Y0265689D02*
X0367332Y0264938D01*
X0368083Y0265689D02*
X0368083Y0267190D01*
X0367332Y0267941D01*
X0366581Y0267941D01*
X0365831Y0267190D01*
X0365831Y0265689D01*
X0365080Y0264938D01*
X0364330Y0264938D01*
X0363579Y0265689D01*
X0363579Y0267190D01*
X0364330Y0267941D01*
X0364526Y0267866D02*
X0367529Y0267866D01*
X0368280Y0268616D01*
X0368280Y0270118D01*
X0367529Y0270868D01*
X0368083Y0269542D02*
X0363579Y0269542D01*
X0363579Y0272545D01*
X0363776Y0273971D02*
X0365277Y0275472D01*
X0368280Y0275472D01*
X0367883Y0275241D02*
X0368634Y0275992D01*
X0368634Y0277493D01*
X0367883Y0278244D01*
X0367133Y0278244D01*
X0366382Y0277493D01*
X0366382Y0275992D01*
X0365631Y0275241D01*
X0364881Y0275241D01*
X0364130Y0275992D01*
X0364130Y0277493D01*
X0364881Y0278244D01*
X0363776Y0277824D02*
X0364526Y0277074D01*
X0367529Y0277074D01*
X0368280Y0277824D01*
X0368280Y0279325D01*
X0367529Y0280076D01*
X0364526Y0280076D01*
X0363776Y0279325D01*
X0363776Y0277824D01*
X0364330Y0277148D02*
X0363579Y0276398D01*
X0363579Y0274146D01*
X0368083Y0274146D01*
X0366581Y0274146D02*
X0366581Y0276398D01*
X0365831Y0277148D01*
X0364330Y0277148D01*
X0363579Y0278750D02*
X0366581Y0278750D01*
X0368083Y0280251D01*
X0366581Y0281752D01*
X0363579Y0281752D01*
X0365080Y0283354D02*
X0363579Y0284855D01*
X0365080Y0286356D01*
X0368083Y0286356D01*
X0368280Y0286281D02*
X0363776Y0286281D01*
X0363776Y0288533D01*
X0364526Y0289284D01*
X0366028Y0289284D01*
X0366778Y0288533D01*
X0366778Y0286281D01*
X0367133Y0286701D02*
X0367133Y0284449D01*
X0366028Y0284680D02*
X0366028Y0281677D01*
X0366382Y0282848D02*
X0366382Y0279845D01*
X0368083Y0277148D02*
X0366581Y0275647D01*
X0366028Y0275472D02*
X0366028Y0272470D01*
X0365277Y0272470D02*
X0363776Y0273971D01*
X0365277Y0272470D02*
X0368280Y0272470D01*
X0368083Y0272545D02*
X0368083Y0269542D01*
X0365831Y0269542D02*
X0365831Y0271043D01*
X0364526Y0270868D02*
X0363776Y0270118D01*
X0363776Y0268616D01*
X0364526Y0267866D01*
X0363776Y0266298D02*
X0363776Y0264796D01*
X0363776Y0265547D02*
X0368280Y0265547D01*
X0365831Y0261835D02*
X0365831Y0260334D01*
X0365831Y0244921D02*
X0365831Y0241918D01*
X0365080Y0241918D02*
X0363579Y0243420D01*
X0365080Y0244921D01*
X0365080Y0241918D02*
X0368083Y0241918D01*
X0364330Y0240317D02*
X0363579Y0239566D01*
X0363579Y0238065D01*
X0364330Y0237314D01*
X0367332Y0237314D01*
X0339225Y0223258D02*
X0339225Y0220255D01*
X0336222Y0223258D01*
X0335471Y0223258D01*
X0334721Y0222507D01*
X0334721Y0221006D01*
X0335471Y0220255D01*
X0336973Y0218654D02*
X0336973Y0215651D01*
X0336973Y0214050D02*
X0337723Y0213299D01*
X0337723Y0211048D01*
X0337723Y0212549D02*
X0339225Y0214050D01*
X0336973Y0214050D02*
X0335471Y0214050D01*
X0334721Y0213299D01*
X0334721Y0211048D01*
X0339225Y0211048D01*
X0338474Y0209446D02*
X0335471Y0209446D01*
X0334721Y0208696D01*
X0334721Y0207194D01*
X0335471Y0206444D01*
X0338474Y0206444D01*
X0339225Y0207194D01*
X0339225Y0208696D01*
X0338474Y0209446D01*
X0338474Y0204842D02*
X0339225Y0204092D01*
X0339225Y0202590D01*
X0338474Y0201840D01*
X0335471Y0201840D01*
X0334721Y0202590D01*
X0334721Y0204092D01*
X0335471Y0204842D01*
X0336973Y0200238D02*
X0336973Y0197236D01*
X0336222Y0195634D02*
X0335471Y0195634D01*
X0334721Y0194884D01*
X0334721Y0193382D01*
X0335471Y0192632D01*
X0335471Y0191030D02*
X0334721Y0190280D01*
X0334721Y0188779D01*
X0335471Y0188028D01*
X0336222Y0188028D01*
X0336973Y0188779D01*
X0336973Y0190280D01*
X0337723Y0191030D01*
X0338474Y0191030D01*
X0339225Y0190280D01*
X0339225Y0188779D01*
X0338474Y0188028D01*
X0336973Y0186427D02*
X0336973Y0183424D01*
X0339225Y0181823D02*
X0334721Y0181823D01*
X0334721Y0178820D02*
X0339225Y0181823D01*
X0339225Y0178820D02*
X0334721Y0178820D01*
X0334721Y0177252D02*
X0334721Y0175751D01*
X0334721Y0176501D02*
X0339225Y0176501D01*
X0339225Y0175751D02*
X0339225Y0177252D01*
X0336973Y0174149D02*
X0337723Y0173399D01*
X0337723Y0171147D01*
X0339225Y0171147D02*
X0334721Y0171147D01*
X0334721Y0173399D01*
X0335471Y0174149D01*
X0336973Y0174149D01*
X0339225Y0192632D02*
X0336222Y0195634D01*
X0339225Y0195634D02*
X0339225Y0192632D01*
X0363382Y0169962D02*
X0367886Y0169962D01*
X0368083Y0283354D02*
X0365080Y0283354D01*
X0365831Y0283354D02*
X0365831Y0286356D01*
X0366382Y0287452D02*
X0367133Y0286701D01*
X0366382Y0287452D02*
X0364881Y0287452D01*
X0364130Y0286701D01*
X0364130Y0284449D01*
X0368634Y0284449D01*
X0366778Y0287783D02*
X0368280Y0289284D01*
X0368083Y0289459D02*
X0363579Y0289459D01*
X0364130Y0289804D02*
X0364881Y0289053D01*
X0367883Y0289053D01*
X0368634Y0289804D01*
X0368634Y0291305D01*
X0367883Y0292056D01*
X0364881Y0292056D01*
X0364130Y0291305D01*
X0364130Y0289804D01*
X0363776Y0290885D02*
X0368280Y0290885D01*
X0368280Y0293888D01*
X0367883Y0293657D02*
X0368634Y0294408D01*
X0368634Y0295909D01*
X0367883Y0296660D01*
X0367133Y0296660D01*
X0366382Y0295909D01*
X0366382Y0294408D01*
X0365631Y0293657D01*
X0364881Y0293657D01*
X0364130Y0294408D01*
X0364130Y0295909D01*
X0364881Y0296660D01*
X0363776Y0296240D02*
X0364526Y0295489D01*
X0365277Y0295489D01*
X0366028Y0296240D01*
X0366028Y0297741D01*
X0366778Y0298492D01*
X0367529Y0298492D01*
X0368280Y0297741D01*
X0368280Y0296240D01*
X0367529Y0295489D01*
X0367332Y0295564D02*
X0364330Y0295564D01*
X0363579Y0294814D01*
X0363579Y0293312D01*
X0364330Y0292562D01*
X0367332Y0292562D01*
X0368083Y0293312D01*
X0368083Y0294814D01*
X0367332Y0295564D01*
X0366581Y0297166D02*
X0366581Y0299417D01*
X0365831Y0300168D01*
X0364330Y0300168D01*
X0363579Y0299417D01*
X0363579Y0297166D01*
X0368083Y0297166D01*
X0368634Y0298261D02*
X0368634Y0299762D01*
X0368280Y0300093D02*
X0368280Y0303096D01*
X0368083Y0303271D02*
X0368083Y0301769D01*
X0367883Y0301330D02*
X0368634Y0302081D01*
X0368634Y0303582D01*
X0367883Y0304333D01*
X0368280Y0304697D02*
X0363776Y0304697D01*
X0363776Y0306949D01*
X0364526Y0307700D01*
X0366028Y0307700D01*
X0366778Y0306949D01*
X0366778Y0304697D01*
X0367332Y0304839D02*
X0368083Y0305589D01*
X0368083Y0307091D01*
X0367332Y0307841D01*
X0364330Y0307841D01*
X0363579Y0307091D01*
X0363579Y0305589D01*
X0364330Y0304839D01*
X0367332Y0304839D01*
X0366382Y0305934D02*
X0366382Y0308937D01*
X0366778Y0309301D02*
X0368280Y0310802D01*
X0366778Y0312304D01*
X0363776Y0312304D01*
X0364330Y0312445D02*
X0363579Y0311695D01*
X0363579Y0310193D01*
X0364330Y0309443D01*
X0363776Y0309301D02*
X0366778Y0309301D01*
X0365631Y0308937D02*
X0368634Y0308937D01*
X0368083Y0309443D02*
X0365080Y0312445D01*
X0364330Y0312445D01*
X0364130Y0312790D02*
X0364881Y0313541D01*
X0367883Y0313541D01*
X0368634Y0312790D01*
X0368634Y0311289D01*
X0367883Y0310538D01*
X0364881Y0310538D01*
X0364130Y0311289D01*
X0364130Y0312790D01*
X0365277Y0313905D02*
X0363776Y0315406D01*
X0365277Y0316907D01*
X0368280Y0316907D01*
X0366028Y0316907D02*
X0366028Y0313905D01*
X0365277Y0313905D02*
X0368280Y0313905D01*
X0368083Y0312445D02*
X0368083Y0309443D01*
X0368280Y0307700D02*
X0366778Y0306198D01*
X0365631Y0305934D02*
X0364130Y0307435D01*
X0365631Y0308937D01*
X0365631Y0305934D02*
X0368634Y0305934D01*
X0368083Y0302520D02*
X0363579Y0302520D01*
X0363776Y0303096D02*
X0363776Y0300093D01*
X0368280Y0300093D01*
X0368083Y0300168D02*
X0366581Y0298667D01*
X0366028Y0300093D02*
X0366028Y0301594D01*
X0364881Y0301330D02*
X0367883Y0301330D01*
X0368634Y0299012D02*
X0364130Y0299012D01*
X0364526Y0298492D02*
X0363776Y0297741D01*
X0363776Y0296240D01*
X0364130Y0298261D02*
X0364130Y0299762D01*
X0364881Y0301330D02*
X0364130Y0302081D01*
X0364130Y0303582D01*
X0364881Y0304333D01*
X0363579Y0303271D02*
X0363579Y0301769D01*
X0363776Y0293888D02*
X0363776Y0290885D01*
X0363579Y0290960D02*
X0363579Y0287958D01*
X0366028Y0290885D02*
X0366028Y0292387D01*
X0366382Y0315142D02*
X0366382Y0318145D01*
X0367133Y0319746D02*
X0367133Y0321998D01*
X0366382Y0322748D01*
X0364881Y0322748D01*
X0364130Y0321998D01*
X0364130Y0319746D01*
X0368634Y0319746D01*
X0368280Y0320010D02*
X0363776Y0320010D01*
X0363776Y0318509D02*
X0363776Y0321511D01*
X0364526Y0323113D02*
X0367529Y0323113D01*
X0368280Y0323863D01*
X0368280Y0325365D01*
X0367529Y0326115D01*
X0364526Y0326115D01*
X0363776Y0325365D01*
X0363776Y0323863D01*
X0364526Y0323113D01*
X0364130Y0324350D02*
X0368634Y0324350D01*
X0368634Y0327352D01*
X0368280Y0327717D02*
X0363776Y0327717D01*
X0363776Y0329969D01*
X0364526Y0330719D01*
X0366028Y0330719D01*
X0366778Y0329969D01*
X0366778Y0327717D01*
X0366778Y0329218D02*
X0368280Y0330719D01*
X0368634Y0331206D02*
X0368634Y0329704D01*
X0367883Y0328954D01*
X0366382Y0329704D02*
X0366382Y0331206D01*
X0367133Y0331956D01*
X0367883Y0331956D01*
X0368634Y0331206D01*
X0368280Y0332321D02*
X0368280Y0333822D01*
X0368634Y0333558D02*
X0368634Y0336560D01*
X0368280Y0336141D02*
X0368280Y0337642D01*
X0367529Y0338392D01*
X0364526Y0338392D01*
X0363776Y0337642D01*
X0363776Y0336141D01*
X0364526Y0335390D01*
X0367529Y0335390D01*
X0368280Y0336141D01*
X0368634Y0338162D02*
X0364130Y0338162D01*
X0364130Y0340414D01*
X0364881Y0341164D01*
X0366382Y0341164D01*
X0367133Y0340414D01*
X0367133Y0338162D01*
X0367133Y0339663D02*
X0368634Y0341164D01*
X0368280Y0341495D02*
X0363776Y0341495D01*
X0365277Y0339994D01*
X0364130Y0342766D02*
X0367133Y0342766D01*
X0368634Y0344267D01*
X0367133Y0345768D01*
X0364130Y0345768D01*
X0365631Y0347369D02*
X0364130Y0348871D01*
X0365631Y0350372D01*
X0368634Y0350372D01*
X0366382Y0350372D02*
X0366382Y0347369D01*
X0365631Y0347369D02*
X0368634Y0347369D01*
X0368280Y0342996D02*
X0368280Y0339994D01*
X0366382Y0335059D02*
X0366382Y0333558D01*
X0368280Y0333071D02*
X0363776Y0333071D01*
X0364130Y0333558D02*
X0368634Y0333558D01*
X0364881Y0331956D02*
X0364130Y0331206D01*
X0364130Y0329704D01*
X0364881Y0328954D01*
X0365631Y0328954D01*
X0366382Y0329704D01*
X0364130Y0327352D02*
X0364130Y0324350D01*
X0366382Y0324350D02*
X0366382Y0325851D01*
X0368634Y0322748D02*
X0367133Y0321247D01*
X0363776Y0332321D02*
X0363776Y0333822D01*
X0364130Y0333558D02*
X0364130Y0336560D01*
X0364130Y0351973D02*
X0364130Y0354976D01*
X0364130Y0353475D02*
X0368634Y0353475D01*
X0367883Y0356577D02*
X0368634Y0357328D01*
X0368634Y0358829D01*
X0367883Y0359580D01*
X0364881Y0359580D01*
X0364130Y0358829D01*
X0364130Y0357328D01*
X0364881Y0356577D01*
X0367883Y0356577D01*
X0367133Y0361181D02*
X0367133Y0363433D01*
X0366382Y0364184D01*
X0364881Y0364184D01*
X0364130Y0363433D01*
X0364130Y0361181D01*
X0368634Y0361181D01*
X0367133Y0362683D02*
X0368634Y0364184D01*
X0368634Y0365785D02*
X0368634Y0367286D01*
X0368634Y0366536D02*
X0364130Y0366536D01*
X0364130Y0367286D02*
X0364130Y0365785D01*
X0364881Y0368854D02*
X0367883Y0368854D01*
X0368634Y0369605D01*
X0368634Y0371106D01*
X0367883Y0371857D01*
X0364881Y0371857D01*
X0364130Y0371106D01*
X0364130Y0369605D01*
X0364881Y0368854D01*
X0365902Y0369946D02*
X0367403Y0369946D01*
X0368154Y0370697D01*
X0368154Y0373699D01*
X0367403Y0374450D01*
X0365902Y0374450D01*
X0365151Y0373699D01*
X0365151Y0370697D01*
X0365902Y0369946D01*
X0364732Y0372198D02*
X0367735Y0372198D01*
X0369336Y0371447D02*
X0371588Y0371447D01*
X0372339Y0372198D01*
X0372339Y0373699D01*
X0371588Y0374450D01*
X0369336Y0374450D01*
X0369336Y0369946D01*
X0370838Y0371447D02*
X0372339Y0369946D01*
X0373940Y0369946D02*
X0376943Y0369946D01*
X0377362Y0369946D02*
X0377362Y0372949D01*
X0375860Y0374450D01*
X0374359Y0372949D01*
X0374359Y0369946D01*
X0373940Y0369946D02*
X0373940Y0374450D01*
X0376943Y0374450D01*
X0378544Y0373699D02*
X0378544Y0370697D01*
X0379295Y0369946D01*
X0380796Y0369946D01*
X0381547Y0370697D01*
X0380464Y0369946D02*
X0380464Y0374450D01*
X0380796Y0374450D02*
X0379295Y0374450D01*
X0378544Y0373699D01*
X0378963Y0374450D02*
X0381966Y0374450D01*
X0381547Y0373699D02*
X0380796Y0374450D01*
X0383148Y0374450D02*
X0383148Y0370697D01*
X0383899Y0369946D01*
X0385400Y0369946D01*
X0386151Y0370697D01*
X0386151Y0374450D01*
X0385819Y0374450D02*
X0386569Y0373699D01*
X0386569Y0372949D01*
X0385819Y0372198D01*
X0386569Y0371447D01*
X0386569Y0370697D01*
X0385819Y0369946D01*
X0384318Y0369946D01*
X0383567Y0370697D01*
X0385068Y0372198D02*
X0385819Y0372198D01*
X0385819Y0374450D02*
X0384318Y0374450D01*
X0383567Y0373699D01*
X0387752Y0373699D02*
X0387752Y0370697D01*
X0388503Y0369946D01*
X0390004Y0369946D01*
X0390755Y0370697D01*
X0390755Y0373699D01*
X0390004Y0374450D01*
X0388503Y0374450D01*
X0387752Y0373699D01*
X0392356Y0372198D02*
X0395358Y0372198D01*
X0396960Y0372198D02*
X0399962Y0372198D01*
X0399962Y0372949D02*
X0399962Y0369946D01*
X0396960Y0369946D02*
X0396960Y0372949D01*
X0398461Y0374450D01*
X0399962Y0372949D01*
X0401564Y0374450D02*
X0404566Y0374450D01*
X0403065Y0374450D02*
X0403065Y0369946D01*
X0406168Y0370697D02*
X0406918Y0369946D01*
X0408420Y0369946D01*
X0409170Y0370697D01*
X0409170Y0371447D01*
X0408420Y0372198D01*
X0407669Y0372198D01*
X0408420Y0372198D02*
X0409170Y0372949D01*
X0409170Y0373699D01*
X0408420Y0374450D01*
X0406918Y0374450D01*
X0406168Y0373699D01*
X0377362Y0372198D02*
X0374359Y0372198D01*
X0373940Y0372198D02*
X0375441Y0372198D01*
X0372758Y0372198D02*
X0369755Y0372198D01*
X0363550Y0371447D02*
X0362799Y0370697D01*
X0361298Y0370697D01*
X0360547Y0371447D01*
X0360547Y0374450D01*
X0361298Y0375201D01*
X0362799Y0375201D01*
X0363550Y0374450D01*
X0363131Y0373699D02*
X0362380Y0374450D01*
X0360879Y0374450D01*
X0360128Y0373699D01*
X0360128Y0372949D01*
X0360879Y0372198D01*
X0362380Y0372198D01*
X0363131Y0371447D01*
X0363131Y0370697D01*
X0362380Y0369946D01*
X0360879Y0369946D01*
X0360128Y0370697D01*
X0360547Y0369946D02*
X0360547Y0369195D01*
X0361298Y0368445D01*
X0362049Y0368445D01*
X0362799Y0369195D01*
X0362049Y0369946D01*
X0362049Y0370697D01*
X0358946Y0369946D02*
X0358946Y0374450D01*
X0355943Y0374450D02*
X0358946Y0369946D01*
X0355943Y0369946D02*
X0355943Y0374450D01*
X0355430Y0374250D02*
X0354679Y0375001D01*
X0353178Y0375001D01*
X0352428Y0374250D01*
X0352841Y0374450D02*
X0354342Y0372949D01*
X0354342Y0369946D01*
X0355430Y0370497D02*
X0352428Y0370497D01*
X0355430Y0373500D01*
X0355430Y0374250D01*
X0354342Y0372198D02*
X0351339Y0372198D01*
X0351339Y0372949D02*
X0351339Y0369946D01*
X0349325Y0370497D02*
X0349325Y0375001D01*
X0349738Y0374450D02*
X0349738Y0371447D01*
X0348237Y0369946D01*
X0346735Y0371447D01*
X0346735Y0374450D01*
X0346222Y0373500D02*
X0346222Y0370497D01*
X0345134Y0369946D02*
X0345134Y0372949D01*
X0343633Y0374450D01*
X0342132Y0372949D01*
X0342132Y0369946D01*
X0343220Y0370497D02*
X0343220Y0373500D01*
X0344721Y0375001D01*
X0346222Y0373500D01*
X0346222Y0372749D02*
X0343220Y0372749D01*
X0342132Y0372198D02*
X0345134Y0372198D01*
X0341618Y0372749D02*
X0338616Y0372749D01*
X0337528Y0372198D02*
X0340530Y0372198D01*
X0337014Y0371248D02*
X0337014Y0374250D01*
X0336264Y0375001D01*
X0334762Y0375001D01*
X0334012Y0374250D01*
X0334012Y0371248D01*
X0334762Y0370497D01*
X0336264Y0370497D01*
X0337014Y0371248D01*
X0335926Y0371447D02*
X0335926Y0370697D01*
X0335176Y0369946D01*
X0333674Y0369946D01*
X0332924Y0370697D01*
X0332947Y0370497D02*
X0329945Y0370497D01*
X0332947Y0373500D01*
X0332947Y0374250D01*
X0332197Y0375001D01*
X0330695Y0375001D01*
X0329945Y0374250D01*
X0329408Y0375001D02*
X0329408Y0371248D01*
X0330159Y0370497D01*
X0331660Y0370497D01*
X0332410Y0371248D01*
X0332410Y0375001D01*
X0333674Y0374450D02*
X0332924Y0373699D01*
X0332924Y0372949D01*
X0333674Y0372198D01*
X0335176Y0372198D01*
X0335926Y0371447D01*
X0335926Y0373699D02*
X0335176Y0374450D01*
X0333674Y0374450D01*
X0328343Y0375001D02*
X0325341Y0375001D01*
X0325555Y0375001D02*
X0324804Y0374250D01*
X0324804Y0371248D01*
X0325555Y0370497D01*
X0327056Y0370497D01*
X0327807Y0371248D01*
X0326842Y0370497D02*
X0326842Y0375001D01*
X0327056Y0375001D02*
X0325555Y0375001D01*
X0327056Y0375001D02*
X0327807Y0374250D01*
X0323740Y0373500D02*
X0323740Y0370497D01*
X0323203Y0370497D02*
X0320200Y0370497D01*
X0320200Y0375001D01*
X0323203Y0375001D01*
X0322238Y0375001D02*
X0323740Y0373500D01*
X0323740Y0372749D02*
X0320737Y0372749D01*
X0320200Y0372749D02*
X0321701Y0372749D01*
X0320737Y0373500D02*
X0322238Y0375001D01*
X0320737Y0373500D02*
X0320737Y0370497D01*
X0318599Y0370497D02*
X0317097Y0371999D01*
X0317848Y0371999D02*
X0315596Y0371999D01*
X0316133Y0372749D02*
X0319136Y0372749D01*
X0318599Y0372749D02*
X0317848Y0371999D01*
X0318599Y0372749D02*
X0318599Y0374250D01*
X0317848Y0375001D01*
X0315596Y0375001D01*
X0315596Y0370497D01*
X0314532Y0371248D02*
X0314532Y0374250D01*
X0313781Y0375001D01*
X0312280Y0375001D01*
X0311529Y0374250D01*
X0311529Y0371248D01*
X0312280Y0370497D01*
X0313781Y0370497D01*
X0314532Y0371248D01*
X0313995Y0372749D02*
X0310992Y0372749D01*
X0309928Y0371999D02*
X0309177Y0371248D01*
X0307676Y0371248D01*
X0306925Y0371999D01*
X0306925Y0375001D01*
X0307676Y0375752D01*
X0309177Y0375752D01*
X0309928Y0375001D01*
X0309391Y0374250D02*
X0308640Y0375001D01*
X0307139Y0375001D01*
X0306388Y0374250D01*
X0306388Y0373500D01*
X0307139Y0372749D01*
X0308640Y0372749D01*
X0309391Y0371999D01*
X0309391Y0371248D01*
X0308640Y0370497D01*
X0307139Y0370497D01*
X0306388Y0371248D01*
X0306925Y0370497D02*
X0306925Y0369747D01*
X0307676Y0368996D01*
X0308427Y0368996D01*
X0309177Y0369747D01*
X0308427Y0370497D01*
X0308427Y0371248D01*
X0305324Y0370497D02*
X0305324Y0375001D01*
X0302321Y0375001D02*
X0305324Y0370497D01*
X0302321Y0370497D02*
X0302321Y0375001D01*
X0300720Y0373500D02*
X0300720Y0370497D01*
X0300155Y0370773D02*
X0297152Y0370773D01*
X0297717Y0370497D02*
X0297717Y0373500D01*
X0299219Y0375001D01*
X0300720Y0373500D01*
X0300720Y0372749D02*
X0297717Y0372749D01*
X0297152Y0373775D02*
X0298653Y0375277D01*
X0298653Y0370773D01*
X0296116Y0371999D02*
X0296116Y0375001D01*
X0295551Y0375277D02*
X0292548Y0375277D01*
X0293113Y0375001D02*
X0293113Y0371999D01*
X0294615Y0370497D01*
X0296116Y0371999D01*
X0294049Y0370773D02*
X0294049Y0375277D01*
X0291512Y0373500D02*
X0291512Y0370497D01*
X0290947Y0370773D02*
X0290947Y0373775D01*
X0289445Y0375277D01*
X0287944Y0373775D01*
X0287944Y0370773D01*
X0288510Y0370497D02*
X0288510Y0373500D01*
X0290011Y0375001D01*
X0291512Y0373500D01*
X0290947Y0373025D02*
X0287944Y0373025D01*
X0288510Y0372749D02*
X0291512Y0372749D01*
X0286908Y0372749D02*
X0283906Y0372749D01*
X0283340Y0373025D02*
X0286343Y0373025D01*
X0282304Y0371999D02*
X0282304Y0371248D01*
X0281554Y0370497D01*
X0280052Y0370497D01*
X0279302Y0371248D01*
X0279487Y0370773D02*
X0280988Y0370773D01*
X0281739Y0371523D01*
X0281739Y0374526D01*
X0280988Y0375277D01*
X0279487Y0375277D01*
X0278736Y0374526D01*
X0278736Y0371523D01*
X0279487Y0370773D01*
X0280052Y0372749D02*
X0281554Y0372749D01*
X0282304Y0371999D01*
X0282304Y0374250D02*
X0281554Y0375001D01*
X0280052Y0375001D01*
X0279302Y0374250D01*
X0279302Y0373500D01*
X0280052Y0372749D01*
X0277135Y0371523D02*
X0277135Y0375277D01*
X0274241Y0375277D02*
X0274241Y0370773D01*
X0274883Y0370773D02*
X0276384Y0370773D01*
X0277135Y0371523D01*
X0275743Y0370773D02*
X0272740Y0370773D01*
X0272531Y0371523D02*
X0271780Y0370773D01*
X0270279Y0370773D01*
X0269528Y0371523D01*
X0269528Y0374526D01*
X0270279Y0375277D01*
X0271780Y0375277D01*
X0272531Y0374526D01*
X0272740Y0373775D02*
X0274241Y0375277D01*
X0274132Y0375277D02*
X0274132Y0371523D01*
X0274883Y0370773D01*
X0269637Y0370773D02*
X0269637Y0375277D01*
X0268136Y0375277D02*
X0271139Y0375277D01*
X0267927Y0375277D02*
X0264924Y0375277D01*
X0264924Y0370773D01*
X0267927Y0370773D01*
X0266535Y0370773D02*
X0266535Y0373775D01*
X0265034Y0375277D01*
X0263532Y0373775D01*
X0263532Y0370773D01*
X0263323Y0370773D02*
X0261822Y0372274D01*
X0262572Y0372274D02*
X0260321Y0372274D01*
X0260321Y0370773D02*
X0260321Y0375277D01*
X0262572Y0375277D01*
X0263323Y0374526D01*
X0263323Y0373025D01*
X0262572Y0372274D01*
X0261931Y0373025D02*
X0258928Y0373025D01*
X0258719Y0373025D02*
X0255717Y0373025D01*
X0254115Y0372274D02*
X0253365Y0373025D01*
X0251863Y0373025D01*
X0251113Y0373775D01*
X0251113Y0374526D01*
X0251863Y0375277D01*
X0253365Y0375277D01*
X0254115Y0374526D01*
X0254324Y0374526D02*
X0254324Y0371523D01*
X0255075Y0370773D01*
X0256576Y0370773D01*
X0257327Y0371523D01*
X0257327Y0374526D01*
X0256576Y0375277D01*
X0255075Y0375277D01*
X0254324Y0374526D01*
X0252723Y0375277D02*
X0251972Y0376027D01*
X0250471Y0376027D01*
X0249720Y0375277D01*
X0249720Y0372274D01*
X0250471Y0371523D01*
X0251972Y0371523D01*
X0252723Y0372274D01*
X0254115Y0372274D02*
X0254115Y0371523D01*
X0253365Y0370773D01*
X0251863Y0370773D01*
X0251113Y0371523D01*
X0251222Y0371523D02*
X0251222Y0370773D01*
X0251972Y0370022D01*
X0251222Y0369272D01*
X0250471Y0369272D01*
X0249720Y0370022D01*
X0249720Y0370773D01*
X0248119Y0370773D02*
X0248119Y0375277D01*
X0245117Y0375277D02*
X0245117Y0370773D01*
X0243515Y0370773D02*
X0243515Y0373775D01*
X0242014Y0375277D01*
X0240513Y0373775D01*
X0240513Y0370773D01*
X0238911Y0372274D02*
X0238911Y0375277D01*
X0240513Y0373025D02*
X0243515Y0373025D01*
X0245117Y0375277D02*
X0248119Y0370773D01*
X0238911Y0372274D02*
X0237410Y0370773D01*
X0235909Y0372274D01*
X0235909Y0375277D01*
X0234307Y0373775D02*
X0234307Y0370773D01*
X0234307Y0373025D02*
X0231305Y0373025D01*
X0231305Y0373775D02*
X0232806Y0375277D01*
X0234307Y0373775D01*
X0231305Y0373775D02*
X0231305Y0370773D01*
X0229703Y0373025D02*
X0226701Y0373025D01*
X0225100Y0372274D02*
X0224349Y0373025D01*
X0222848Y0373025D01*
X0222097Y0373775D01*
X0222097Y0374526D01*
X0222848Y0375277D01*
X0224349Y0375277D01*
X0225100Y0374526D01*
X0225100Y0372274D02*
X0225100Y0371523D01*
X0224349Y0370773D01*
X0222848Y0370773D01*
X0222097Y0371523D01*
X0210187Y0332648D02*
X0208686Y0332648D01*
X0207935Y0331898D01*
X0206334Y0332648D02*
X0203331Y0328144D01*
X0201730Y0328895D02*
X0201730Y0329646D01*
X0200979Y0330396D01*
X0198728Y0330396D01*
X0198728Y0328895D01*
X0199478Y0328144D01*
X0200979Y0328144D01*
X0201730Y0328895D01*
X0198728Y0330396D02*
X0200229Y0331898D01*
X0201730Y0332648D01*
X0203331Y0332648D02*
X0206334Y0328144D01*
X0207935Y0328144D02*
X0210938Y0331147D01*
X0210938Y0331898D01*
X0210187Y0332648D01*
X0210938Y0328144D02*
X0207935Y0328144D01*
X0197126Y0328144D02*
X0194124Y0328144D01*
X0195625Y0328144D02*
X0195625Y0332648D01*
X0194124Y0331147D01*
X0192522Y0327394D02*
X0189520Y0327394D01*
X0187918Y0328895D02*
X0187168Y0328144D01*
X0184916Y0328144D01*
X0184916Y0332648D01*
X0187168Y0332648D01*
X0187918Y0331898D01*
X0187918Y0328895D01*
X0183314Y0328895D02*
X0182564Y0328144D01*
X0181063Y0328144D01*
X0180312Y0328895D01*
X0180312Y0331898D01*
X0181063Y0332648D01*
X0182564Y0332648D01*
X0183314Y0331898D01*
X0178711Y0328144D02*
X0175708Y0328144D01*
X0175708Y0332648D01*
X0174107Y0330396D02*
X0171104Y0330396D01*
X0169503Y0328144D02*
X0169503Y0332648D01*
X0166500Y0332648D02*
X0166500Y0328144D01*
X0164932Y0328144D02*
X0163431Y0328144D01*
X0164181Y0328144D02*
X0164181Y0332648D01*
X0163431Y0332648D02*
X0164932Y0332648D01*
X0166500Y0332648D02*
X0169503Y0328144D01*
X0161829Y0330396D02*
X0161079Y0329646D01*
X0158827Y0329646D01*
X0158827Y0328144D02*
X0158827Y0332648D01*
X0161079Y0332648D01*
X0161829Y0331898D01*
X0161829Y0330396D01*
X0263532Y0373025D02*
X0266535Y0373025D01*
X0266426Y0373025D02*
X0264924Y0373025D01*
X0347824Y0375001D02*
X0350826Y0375001D01*
X0352841Y0374450D02*
X0351339Y0372949D01*
X0034688Y0268132D02*
X0030184Y0268132D01*
X0031685Y0266631D01*
D13*
X0050654Y0270985D02*
X0050654Y0274488D01*
X0052406Y0274488D01*
X0052989Y0273904D01*
X0052989Y0272737D01*
X0052406Y0272153D01*
X0050654Y0272153D01*
X0051822Y0272153D02*
X0052989Y0270985D01*
X0054245Y0270985D02*
X0056580Y0270985D01*
X0055413Y0270985D02*
X0055413Y0274488D01*
X0054245Y0273320D01*
X0054521Y0291418D02*
X0056856Y0293753D01*
X0056856Y0294337D01*
X0056272Y0294921D01*
X0055105Y0294921D01*
X0054521Y0294337D01*
X0053265Y0294337D02*
X0053265Y0293170D01*
X0052681Y0292586D01*
X0050930Y0292586D01*
X0052097Y0292586D02*
X0053265Y0291418D01*
X0054521Y0291418D02*
X0056856Y0291418D01*
X0053265Y0294337D02*
X0052681Y0294921D01*
X0050930Y0294921D01*
X0050930Y0291418D01*
X0051205Y0318308D02*
X0051205Y0321811D01*
X0052957Y0321811D01*
X0053541Y0321227D01*
X0053541Y0320059D01*
X0052957Y0319476D01*
X0051205Y0319476D01*
X0052373Y0319476D02*
X0053541Y0318308D01*
X0054796Y0318892D02*
X0055380Y0318308D01*
X0056548Y0318308D01*
X0057132Y0318892D01*
X0057132Y0319476D01*
X0056548Y0320059D01*
X0055964Y0320059D01*
X0056548Y0320059D02*
X0057132Y0320643D01*
X0057132Y0321227D01*
X0056548Y0321811D01*
X0055380Y0321811D01*
X0054796Y0321227D01*
X0054343Y0342993D02*
X0054343Y0346496D01*
X0052592Y0344744D01*
X0054927Y0344744D01*
X0051336Y0344744D02*
X0050752Y0344161D01*
X0049000Y0344161D01*
X0049000Y0342993D02*
X0049000Y0346496D01*
X0050752Y0346496D01*
X0051336Y0345912D01*
X0051336Y0344744D01*
X0050168Y0344161D02*
X0051336Y0342993D01*
X0051336Y0369017D02*
X0050168Y0370184D01*
X0050752Y0370184D02*
X0049000Y0370184D01*
X0049000Y0369017D02*
X0049000Y0372520D01*
X0050752Y0372520D01*
X0051336Y0371936D01*
X0051336Y0370768D01*
X0050752Y0370184D01*
X0052592Y0369600D02*
X0053175Y0369017D01*
X0054343Y0369017D01*
X0054927Y0369600D01*
X0054927Y0370768D01*
X0054343Y0371352D01*
X0053759Y0371352D01*
X0052592Y0370768D01*
X0052592Y0372520D01*
X0054927Y0372520D01*
X0180362Y0357120D02*
X0180362Y0353617D01*
X0180362Y0354785D02*
X0182113Y0354785D01*
X0182697Y0355369D01*
X0182697Y0356536D01*
X0182113Y0357120D01*
X0180362Y0357120D01*
X0181529Y0354785D02*
X0182697Y0353617D01*
X0183953Y0354201D02*
X0184537Y0353617D01*
X0185704Y0353617D01*
X0186288Y0354201D01*
X0186288Y0354785D01*
X0185704Y0355369D01*
X0183953Y0355369D01*
X0183953Y0354201D01*
X0183953Y0355369D02*
X0185120Y0356536D01*
X0186288Y0357120D01*
X0227793Y0321772D02*
X0227793Y0319437D01*
X0228377Y0318181D02*
X0229544Y0318181D01*
X0230128Y0317597D01*
X0230128Y0315846D01*
X0230128Y0317013D02*
X0231296Y0318181D01*
X0231296Y0319437D02*
X0230712Y0319437D01*
X0228377Y0321772D01*
X0227793Y0321772D01*
X0228377Y0318181D02*
X0227793Y0317597D01*
X0227793Y0315846D01*
X0231296Y0315846D01*
X0257635Y0316121D02*
X0257635Y0317873D01*
X0258219Y0318457D01*
X0259387Y0318457D01*
X0259971Y0317873D01*
X0259971Y0316121D01*
X0261138Y0316121D02*
X0257635Y0316121D01*
X0259971Y0317289D02*
X0261138Y0318457D01*
X0260554Y0319712D02*
X0261138Y0320296D01*
X0261138Y0321464D01*
X0260554Y0322048D01*
X0258219Y0322048D01*
X0257635Y0321464D01*
X0257635Y0320296D01*
X0258219Y0319712D01*
X0258803Y0319712D01*
X0259387Y0320296D01*
X0259387Y0322048D01*
X0285549Y0321156D02*
X0286716Y0319988D01*
X0286133Y0318732D02*
X0287300Y0318732D01*
X0287884Y0318148D01*
X0287884Y0316397D01*
X0287884Y0317565D02*
X0289052Y0318732D01*
X0289052Y0319988D02*
X0289052Y0322323D01*
X0289052Y0321156D02*
X0285549Y0321156D01*
X0286133Y0323579D02*
X0285549Y0324163D01*
X0285549Y0325330D01*
X0286133Y0325914D01*
X0288468Y0323579D01*
X0289052Y0324163D01*
X0289052Y0325330D01*
X0288468Y0325914D01*
X0286133Y0325914D01*
X0286133Y0323579D02*
X0288468Y0323579D01*
X0286133Y0318732D02*
X0285549Y0318148D01*
X0285549Y0316397D01*
X0289052Y0316397D01*
X0312911Y0316397D02*
X0312911Y0318148D01*
X0313495Y0318732D01*
X0314662Y0318732D01*
X0315246Y0318148D01*
X0315246Y0316397D01*
X0315246Y0317565D02*
X0316414Y0318732D01*
X0316414Y0319988D02*
X0316414Y0322323D01*
X0316414Y0321156D02*
X0312911Y0321156D01*
X0314079Y0319988D01*
X0314079Y0323579D02*
X0312911Y0324747D01*
X0316414Y0324747D01*
X0316414Y0325914D02*
X0316414Y0323579D01*
X0316414Y0316397D02*
X0312911Y0316397D01*
X0338226Y0316672D02*
X0338226Y0318424D01*
X0338810Y0319008D01*
X0339977Y0319008D01*
X0340561Y0318424D01*
X0340561Y0316672D01*
X0341729Y0316672D02*
X0338226Y0316672D01*
X0340561Y0317840D02*
X0341729Y0319008D01*
X0341729Y0320264D02*
X0341729Y0322599D01*
X0341729Y0321431D02*
X0338226Y0321431D01*
X0339394Y0320264D01*
X0338810Y0323855D02*
X0338226Y0324438D01*
X0338226Y0325606D01*
X0338810Y0326190D01*
X0339394Y0326190D01*
X0341729Y0323855D01*
X0341729Y0326190D01*
X0366139Y0326708D02*
X0366723Y0327292D01*
X0367307Y0327292D01*
X0367891Y0326708D01*
X0368475Y0327292D01*
X0369058Y0327292D01*
X0369642Y0326708D01*
X0369642Y0325541D01*
X0369058Y0324957D01*
X0369642Y0323701D02*
X0369642Y0321366D01*
X0369642Y0322534D02*
X0366139Y0322534D01*
X0367307Y0321366D01*
X0366723Y0320110D02*
X0367891Y0320110D01*
X0368475Y0319526D01*
X0368475Y0317775D01*
X0369642Y0317775D02*
X0366139Y0317775D01*
X0366139Y0319526D01*
X0366723Y0320110D01*
X0368475Y0318942D02*
X0369642Y0320110D01*
X0366723Y0324957D02*
X0366139Y0325541D01*
X0366139Y0326708D01*
X0367891Y0326708D02*
X0367891Y0326125D01*
X0351295Y0284049D02*
X0350127Y0284049D01*
X0349543Y0283466D01*
X0349543Y0282882D01*
X0350127Y0282298D01*
X0351295Y0282298D01*
X0351879Y0281714D01*
X0351879Y0281130D01*
X0351295Y0280546D01*
X0350127Y0280546D01*
X0349543Y0281130D01*
X0349543Y0281714D01*
X0350127Y0282298D01*
X0351295Y0282298D02*
X0351879Y0282882D01*
X0351879Y0283466D01*
X0351295Y0284049D01*
X0348288Y0283466D02*
X0348288Y0282298D01*
X0347704Y0281714D01*
X0345952Y0281714D01*
X0345952Y0280546D02*
X0345952Y0284049D01*
X0347704Y0284049D01*
X0348288Y0283466D01*
X0347120Y0281714D02*
X0348288Y0280546D01*
X0347317Y0251372D02*
X0346149Y0250205D01*
X0344893Y0250788D02*
X0344893Y0249621D01*
X0344309Y0249037D01*
X0342558Y0249037D01*
X0343726Y0249037D02*
X0344893Y0247869D01*
X0346149Y0247869D02*
X0348484Y0247869D01*
X0347317Y0247869D02*
X0347317Y0251372D01*
X0344893Y0250788D02*
X0344309Y0251372D01*
X0342558Y0251372D01*
X0342558Y0247869D01*
X0349740Y0249621D02*
X0352075Y0249621D01*
X0351492Y0251372D02*
X0351492Y0247869D01*
X0349740Y0249621D02*
X0351492Y0251372D01*
X0351879Y0220546D02*
X0349543Y0220546D01*
X0349543Y0218794D01*
X0350711Y0219378D01*
X0351295Y0219378D01*
X0351879Y0218794D01*
X0351879Y0217626D01*
X0351295Y0217043D01*
X0350127Y0217043D01*
X0349543Y0217626D01*
X0348288Y0217043D02*
X0345952Y0217043D01*
X0347120Y0217043D02*
X0347120Y0220546D01*
X0345952Y0219378D01*
X0344696Y0219962D02*
X0344696Y0218794D01*
X0344113Y0218210D01*
X0342361Y0218210D01*
X0342361Y0217043D02*
X0342361Y0220546D01*
X0344113Y0220546D01*
X0344696Y0219962D01*
X0343529Y0218210D02*
X0344696Y0217043D01*
X0174796Y0227342D02*
X0171727Y0227342D01*
X0170192Y0227342D02*
X0168658Y0227342D01*
X0169425Y0227342D02*
X0169425Y0231946D01*
X0168658Y0231946D02*
X0170192Y0231946D01*
X0171727Y0230411D02*
X0173262Y0231946D01*
X0173262Y0227342D01*
X0167123Y0227342D02*
X0167123Y0231946D01*
X0164054Y0231946D02*
X0164054Y0227342D01*
X0162519Y0227342D02*
X0160985Y0227342D01*
X0161752Y0227342D02*
X0161752Y0231946D01*
X0160985Y0231946D02*
X0162519Y0231946D01*
X0164054Y0231946D02*
X0167123Y0227342D01*
X0159450Y0227342D02*
X0159450Y0231946D01*
X0157915Y0230411D01*
X0156381Y0231946D01*
X0156381Y0227342D01*
X0154846Y0226574D02*
X0151777Y0226574D01*
X0150242Y0228109D02*
X0150242Y0231178D01*
X0149475Y0231946D01*
X0147940Y0231946D01*
X0147173Y0231178D01*
X0147173Y0228109D01*
X0147940Y0227342D01*
X0149475Y0227342D01*
X0150242Y0228109D01*
X0145638Y0227342D02*
X0144104Y0228876D01*
X0144871Y0228876D02*
X0142569Y0228876D01*
X0142569Y0227342D02*
X0142569Y0231946D01*
X0144871Y0231946D01*
X0145638Y0231178D01*
X0145638Y0229644D01*
X0144871Y0228876D01*
X0141034Y0229644D02*
X0141034Y0231178D01*
X0140267Y0231946D01*
X0137965Y0231946D01*
X0137965Y0227342D01*
X0137965Y0228876D02*
X0140267Y0228876D01*
X0141034Y0229644D01*
X0136430Y0226574D02*
X0133361Y0226574D01*
X0131826Y0227342D02*
X0131826Y0230411D01*
X0130292Y0231946D01*
X0128757Y0230411D01*
X0128757Y0227342D01*
X0127223Y0228109D02*
X0127223Y0229644D01*
X0125688Y0229644D01*
X0127223Y0231178D02*
X0126455Y0231946D01*
X0124921Y0231946D01*
X0124153Y0231178D01*
X0124153Y0228109D01*
X0124921Y0227342D01*
X0126455Y0227342D01*
X0127223Y0228109D01*
X0128757Y0229644D02*
X0131826Y0229644D01*
X0122619Y0231946D02*
X0119549Y0231946D01*
X0119549Y0227342D01*
X0122619Y0227342D01*
X0121084Y0229644D02*
X0119549Y0229644D01*
X0118015Y0231946D02*
X0118015Y0227342D01*
X0114945Y0227342D02*
X0114945Y0231946D01*
X0116480Y0230411D01*
X0118015Y0231946D01*
D14*
X0071204Y0265685D03*
X0071480Y0286118D03*
X0049980Y0286118D03*
X0049704Y0265685D03*
X0050255Y0313008D03*
X0071755Y0313008D03*
X0069550Y0337693D03*
X0048050Y0337693D03*
X0048050Y0363717D03*
X0069550Y0363717D03*
X0166594Y0362417D03*
X0188094Y0362417D03*
X0332184Y0289346D03*
X0353684Y0289346D03*
X0353881Y0256669D03*
X0332381Y0256669D03*
X0332184Y0225843D03*
X0353684Y0225843D03*
D15*
X0347029Y0315722D03*
X0347029Y0337222D03*
X0321714Y0336947D03*
X0321714Y0315447D03*
X0294352Y0315447D03*
X0294352Y0336947D03*
X0266438Y0336671D03*
X0266438Y0315171D03*
X0236596Y0314896D03*
X0236596Y0336396D03*
X0374942Y0338325D03*
X0374942Y0316825D03*
M02*
